SplineFontDB: 3.0
FontName: GohuFont
FullName: GohuFont
FamilyName: GohuFont
Weight: Medium
Copyright: Copyright by Hugo Chargois - Licensed under the WTFPL - Converted by Guilherme Maeda
UComments: "2014-10-1: Created." 
Version: 001.000
DefaultBaseFilename: gohufont-uni
ItalicAngle: 0
UnderlinePosition: 2.048
UnderlineWidth: 102.4
Ascent: 1638
Descent: 410
LayerCount: 2
Layer: 0 0 "Back"  1
Layer: 1 0 "Fore"  0
XUID: [1021 509 1242700312 809871]
FSType: 8
OS2Version: 0
OS2_WeightWidthSlopeOnly: 0
OS2_UseTypoMetrics: 1
CreationTime: 1412206208
ModificationTime: 1421863057
PfmFamily: 17
TTFWeight: 500
TTFWidth: 5
LineGap: 377
VLineGap: 0
OS2TypoAscent: 0
OS2TypoAOffset: 1
OS2TypoDescent: 0
OS2TypoDOffset: 1
OS2TypoLinegap: 377
OS2WinAscent: 0
OS2WinAOffset: 1
OS2WinDescent: 0
OS2WinDOffset: 1
HheadAscent: 0
HheadAOffset: 1
HheadDescent: 0
HheadDOffset: 1
OS2Vendor: 'PfEd'
MarkAttachClasses: 1
DEI: 91125
LangName: 1033 
Encoding: UnicodeBmp
UnicodeInterp: none
NameList: Adobe Glyph List
DisplaySize: -24
AntiAlias: 1
FitToEm: 1
WinInfo: 0 38 12
BeginPrivate: 0
EndPrivate
TeXData: 1 0 0 572522 286261 190840 478532 1048576 190840 783286 444596 497025 792723 393216 433062 380633 303038 157286 324010 404750 52429 2506097 1059062 262144
BeginChars: 65534 1695

StartChar: control
Encoding: 8963 8963 0
Width: 1118
VWidth: 40
Flags: W
HStem: 4 186<0 186 372 559 745 931> 376 186<0 186 745 931> 934 187<0 186 745 931> 1307 186<0 186 372 559 745 931>
VStem: 0 186<4 190 376 562 934 1121 1307 1493> 372 187<4 190 1307 1493> 745 186<4 190 376 562 934 1121 1307 1493>
CounterMasks: 1 0e
LayerCount: 2
Fore
SplineSet
0 1400 m 1
 0 1493 l 1
 93 1493 l 1
 186 1493 l 1
 186 1400 l 1
 186 1307 l 1
 93 1307 l 1
 0 1307 l 1
 0 1400 l 1
372 1400 m 1
 372 1493 l 1
 466 1493 l 1
 559 1493 l 1
 559 1400 l 1
 559 1307 l 1
 466 1307 l 1
 372 1307 l 1
 372 1400 l 1
745 1400 m 1
 745 1493 l 1
 838 1493 l 1
 931 1493 l 1
 931 1400 l 1
 931 1307 l 1
 838 1307 l 1
 745 1307 l 1
 745 1400 l 1
0 1028 m 1
 0 1121 l 1
 93 1121 l 1
 186 1121 l 1
 186 1028 l 1
 186 934 l 1
 93 934 l 1
 0 934 l 1
 0 1028 l 1
745 1028 m 1
 745 1121 l 1
 838 1121 l 1
 931 1121 l 1
 931 1028 l 1
 931 934 l 1
 838 934 l 1
 745 934 l 1
 745 1028 l 1
0 469 m 1
 0 562 l 1
 93 562 l 1
 186 562 l 1
 186 469 l 1
 186 376 l 1
 93 376 l 1
 0 376 l 1
 0 469 l 1
745 469 m 1
 745 562 l 1
 838 562 l 1
 931 562 l 1
 931 469 l 1
 931 376 l 1
 838 376 l 1
 745 376 l 1
 745 469 l 1
0 97 m 1
 0 190 l 1
 93 190 l 1
 186 190 l 1
 186 97 l 1
 186 4 l 1
 93 4 l 1
 0 4 l 1
 0 97 l 1
372 97 m 1
 372 190 l 1
 466 190 l 1
 559 190 l 1
 559 97 l 1
 559 4 l 1
 466 4 l 1
 372 4 l 1
 372 97 l 1
745 97 m 1
 745 190 l 1
 838 190 l 1
 931 190 l 1
 931 97 l 1
 931 4 l 1
 838 4 l 1
 745 4 l 1
 745 97 l 1
EndSplineSet
Validated: 6291457
EndChar

StartChar: EXCLAMATION
Encoding: 33 33 2
Width: 1117
VWidth: 40
Flags: HW
HStem: 4 186<372 559> 1473 20G<372 559>
VStem: 372 187<4 190 376 1493>
LayerCount: 2
Fore
SplineSet
372 934 m 1
 372 1493 l 1
 465 1493 l 1
 559 1493 l 1
 559 934 l 1
 559 376 l 1
 465 376 l 1
 372 376 l 1
 372 934 l 1
372 97 m 1
 372 190 l 1
 465 190 l 1
 559 190 l 1
 559 97 l 1
 559 4 l 1
 465 4 l 1
 372 4 l 1
 372 97 l 1
EndSplineSet
EndChar

StartChar: QUOTATION
Encoding: 34 34 3
Width: 1117
VWidth: 40
Flags: HW
HStem: 935 558<186 372 559 745>
VStem: 186 186<935 1493> 559 186<935 1493>
LayerCount: 2
Fore
SplineSet
186 1214 m 1
 186 1493 l 1
 279 1493 l 1
 372 1493 l 1
 372 1214 l 1
 372 935 l 1
 279 935 l 1
 186 935 l 1
 186 1214 l 1
559 1214 m 1
 559 1493 l 1
 652 1493 l 1
 745 1493 l 1
 745 1214 l 1
 745 935 l 1
 652 935 l 1
 559 935 l 1
 559 1214 l 1
EndSplineSet
EndChar

StartChar: NUMBER
Encoding: 35 35 4
Width: 1117
VWidth: 40
Flags: HW
HStem: 562 186<0 186 372 559 745 931> 934 187<0 186 372 559 745 931> 1473 20G<186 372 559 745>
VStem: 186 186<190 562 748 934 1121 1493> 559 186<190 562 748 934 1121 1493>
LayerCount: 2
Fore
SplineSet
559 841 m 1
 559 934 l 1
 466 934 l 1
 372 934 l 1
 372 841 l 1
 372 748 l 1
 466 748 l 1
 559 748 l 1
 559 841 l 1
186 1307 m 1
 186 1493 l 1
 279 1493 l 1
 372 1493 l 1
 372 1307 l 1
 372 1121 l 1
 466 1121 l 1
 559 1121 l 1
 559 1307 l 1
 559 1493 l 1
 652 1493 l 1
 745 1493 l 1
 745 1307 l 1
 745 1121 l 1
 838 1121 l 1
 931 1121 l 1
 931 1028 l 1
 931 934 l 1
 838 934 l 1
 745 934 l 1
 745 841 l 1
 745 748 l 1
 838 748 l 1
 931 748 l 1
 931 655 l 1
 931 562 l 1
 838 562 l 1
 745 562 l 1
 745 376 l 1
 745 190 l 1
 652 190 l 1
 559 190 l 1
 559 376 l 1
 559 562 l 1
 466 562 l 1
 372 562 l 1
 372 376 l 1
 372 190 l 1
 279 190 l 1
 186 190 l 1
 186 376 l 1
 186 562 l 1
 93 562 l 1
 0 562 l 1
 0 655 l 1
 0 748 l 1
 93 748 l 1
 186 748 l 1
 186 841 l 1
 186 934 l 1
 93 934 l 1
 0 934 l 1
 0 1028 l 1
 0 1121 l 1
 93 1121 l 1
 186 1121 l 1
 186 1307 l 1
EndSplineSet
EndChar

StartChar: DOLLAR
Encoding: 36 36 5
Width: 1117
VWidth: 40
Flags: HW
HStem: 3 187<186 372 559 745> 190 186<0 186> 562 186<186 372 559 745> 934 187<745 931> 1121 186<186 372 559 745> 1473 20G<372 559>
VStem: 0 186<190 376 748 1121> 186 559<3 190 562 748 1121 1307> 372 187<-182 3 190 562 748 1121 1307 1493> 745 186<190 562 934 1121>
LayerCount: 2
Fore
SplineSet
372 934 m 1x3680
 372 1121 l 1
 279 1121 l 1
 186 1121 l 1x2e80
 186 934 l 1
 186 748 l 1
 279 748 l 1
 372 748 l 1
 372 934 l 1x3680
372 1400 m 1
 372 1493 l 1
 466 1493 l 1
 559 1493 l 1
 559 1400 l 1
 559 1307 l 1x2c80
 652 1307 l 1
 745 1307 l 1x2d
 745 1214 l 1
 745 1121 l 1x35
 652 1121 l 1
 559 1121 l 1x2c80
 559 934 l 1
 559 748 l 1x3480
 652 748 l 1
 745 748 l 1
 745 655 l 1
 745 562 l 1x35
 652 562 l 1
 559 562 l 1
 559 376 l 1x7480
 559 190 l 1xa480
 652 190 l 1
 745 190 l 1xa5
 745 376 l 1x6440
 745 562 l 1x65
 838 562 l 1
 931 562 l 1
 931 376 l 1
 931 190 l 1
 838 190 l 1x6440
 745 190 l 1
 745 96 l 1
 745 3 l 1xa5
 652 3 l 1
 559 3 l 1
 559 -90 l 1
 559 -182 l 1
 466 -182 l 1
 372 -182 l 1
 372 -90 l 1
 372 3 l 1xa480
 279 3 l 1
 186 3 l 1
 186 96 l 1xa5
 186 190 l 1
 279 190 l 1
 372 190 l 1xa680
 372 376 l 1
 372 562 l 1x6680
 279 562 l 1
 186 562 l 1
 186 655 l 1x65
 186 748 l 1
 93 748 l 1
 0 748 l 1
 0 934 l 1x76
 0 1121 l 1
 93 1121 l 1
 186 1121 l 1x2e
 186 1214 l 1
 186 1307 l 1x2d
 279 1307 l 1
 372 1307 l 1
 372 1400 l 1
186 190 m 1xa6
 93 190 l 1
 0 190 l 1
 0 283 l 1
 0 376 l 1
 93 376 l 1
 186 376 l 1x66
 186 283 l 1
 186 190 l 1xa6
745 1121 m 1x35
 838 1121 l 1
 931 1121 l 1
 931 1028 l 1
 931 934 l 1
 838 934 l 1
 745 934 l 1
 745 1028 l 1x3440
 745 1121 l 1x35
EndSplineSet
EndChar

StartChar: PERCENT
Encoding: 37 37 6
Width: 1117
VWidth: 40
Flags: HW
HStem: 4 186<559 745> 190 186<372 559 745 931> 376 186<186 372 559 745> 562 186<372 559> 748 187<186 372 559 745> 935 186<0 186 372 559> 1121 186<186 372>
VStem: 0 186<4 376 935 1121> 186 186<376 562 748 935 1121 1307> 372 187<190 376 562 748 935 1121> 559 186<4 190 376 562 748 935> 745 186<190 376 935 1307>
LayerCount: 2
Fore
SplineSet
186 1214 m 1x0480
 186 1307 l 1
 279 1307 l 1
 372 1307 l 1x0280
 372 1214 l 1
 372 1121 l 1x0480
 279 1121 l 1x0280
 186 1121 l 1x05
 186 1028 l 1
 186 935 l 1x09
 279 935 l 1
 372 935 l 1x0880
 372 1028 l 1x0840
 372 1121 l 1x0480
 466 1121 l 1
 559 1121 l 1x0440
 559 1028 l 1
 559 935 l 1x0840
 466 935 l 1x0440
 372 935 l 1x0880
 372 841 l 1
 372 748 l 1x1080
 466 748 l 1
 559 748 l 1x1040
 559 841 l 1x1020
 559 935 l 1x0840
 652 935 l 1
 745 935 l 1
 745 841 l 1
 745 748 l 1
 652 748 l 1x0820
 559 748 l 1x1040
 559 655 l 1
 559 562 l 1x2040
 466 562 l 1x1040
 372 562 l 1x2080
 372 469 l 1
 372 376 l 1x4080
 466 376 l 1
 559 376 l 1x4040
 559 469 l 1x4020
 559 562 l 1x2040
 652 562 l 1
 745 562 l 1x2020
 745 469 l 1
 745 376 l 1x4020
 652 376 l 1x2020
 559 376 l 1x4040
 559 283 l 1
 559 190 l 1x8040
 652 190 l 1
 745 190 l 1x8020
 745 283 l 1x8010
 745 376 l 1x4020
 838 376 l 1
 931 376 l 1
 931 283 l 1
 931 190 l 1
 838 190 l 1x4010
 745 190 l 1
 745 97 l 1
 745 4 l 1
 652 4 l 1
 559 4 l 1
 559 97 l 1x8020
 559 190 l 1x8040
 466 190 l 1
 372 190 l 1
 372 283 l 1x4040
 372 376 l 1x4080
 279 376 l 1
 186 376 l 1x21
 186 469 l 1
 186 562 l 1
 279 562 l 1
 372 562 l 1x2080
 372 655 l 1x2040
 372 748 l 1x1080
 279 748 l 1
 186 748 l 1
 186 841 l 1x0880
 186 935 l 1x09
 93 935 l 1
 0 935 l 1
 0 1028 l 1
 0 1121 l 1
 93 1121 l 1
 186 1121 l 1x05
 186 1214 l 1x0480
186 376 m 1x21
 186 190 l 1x41
 186 4 l 1
 93 4 l 1
 0 4 l 1x81
 0 190 l 1x41
 0 376 l 1
 93 376 l 1
 186 376 l 1x21
745 935 m 1x0820
 745 1121 l 1
 745 1307 l 1
 838 1307 l 1
 931 1307 l 1
 931 1121 l 1x0a10
 931 935 l 1
 838 935 l 1x0410
 745 935 l 1x0820
EndSplineSet
EndChar

StartChar: AMPERSAND
Encoding: 38 38 7
Width: 1117
VWidth: 40
Flags: HW
HStem: 4 186<186 559 745 931> 190 186<559 745> 376 186<372 559 745 931> 562 186<186 372> 748 187<372 559> 935 186<559 745> 1121 186<186 559>
VStem: 0 186<190 562 748 1121> 186 186<562 748> 372 187<376 562 748 935> 559 186<190 376 935 1121> 745 186<4 190 376 562>
LayerCount: 2
Fore
SplineSet
186 1214 m 1x0a80
 186 1307 l 1
 373 1307 l 1
 559 1307 l 1x0aa0
 559 1214 l 1
 559 1121 l 1x04a0
 373 1121 l 1
 186 1121 l 1
 186 934 l 1
 186 748 l 1x1320
 279 748 l 1
 372 748 l 1x1280
 372 841 l 1
 372 935 l 1
 466 935 l 1
 559 935 l 1x0840
 559 1028 l 1
 559 1121 l 1
 652 1121 l 1
 745 1121 l 1
 745 1028 l 1
 745 935 l 1
 652 935 l 1x0420
 559 935 l 1
 559 841 l 1
 559 748 l 1
 466 748 l 1x0840
 372 748 l 1x1080
 372 655 l 1
 372 562 l 1x2080
 279 562 l 1
 186 562 l 1x11
 186 376 l 1
 186 190 l 1
 373 190 l 1
 559 190 l 1
 559 283 l 1xa120
 559 376 l 1x4040
 466 376 l 1
 372 376 l 1
 372 469 l 1x2040
 372 562 l 1x2080
 466 562 l 1
 559 562 l 1x2040
 559 469 l 1
 559 376 l 1x4040
 652 376 l 1
 745 376 l 1x4020
 745 283 l 1
 745 190 l 1x8020
 652 190 l 1x4020
 559 190 l 1
 559 97 l 1
 559 4 l 1
 373 4 l 1
 186 4 l 1
 186 97 l 1x80a0
 186 190 l 1x81
 93 190 l 1
 0 190 l 1x41
 0 376 l 1x21
 0 562 l 1
 93 562 l 1
 186 562 l 1x11
 186 655 l 1x1080
 186 748 l 1x11
 93 748 l 1
 0 748 l 1
 0 934 l 1
 0 1121 l 1
 93 1121 l 1
 186 1121 l 1x0b
 186 1214 l 1x0a80
745 190 m 1x8020
 838 190 l 1
 931 190 l 1
 931 97 l 1
 931 4 l 1
 838 4 l 1
 745 4 l 1
 745 97 l 1x8010
 745 190 l 1x8020
745 376 m 1x4020
 745 469 l 1
 745 562 l 1
 838 562 l 1
 931 562 l 1
 931 469 l 1
 931 376 l 1
 838 376 l 1x2010
 745 376 l 1x4020
EndSplineSet
EndChar

StartChar: APOSTROPHE
Encoding: 39 39 8
Width: 1117
VWidth: 80
Flags: HW
HStem: 933 559<372.363 558.546>
VStem: 372 186<933.272 1491.82>
LayerCount: 2
Fore
SplineSet
372 1213 m 1
 372 1492 l 1
 465 1492 l 1
 558 1492 l 1
 558 1213 l 1
 558 933 l 1
 465 933 l 1
 372 933 l 1
 372 1213 l 1
EndSplineSet
EndChar

StartChar: LEFT
Encoding: 40 40 9
Width: 1117
VWidth: 40
Flags: HW
HStem: -182 185<559 745> 3 21G<372 559> 1287 20G<372 559> 1307 186<559 745>
VStem: 186 186<376 934> 372 187<3 376 934 1307> 559 186<-182 3 1307 1493>
LayerCount: 2
Fore
SplineSet
559 1400 m 1x22
 559 1493 l 1
 652 1493 l 1
 745 1493 l 1
 745 1400 l 1
 745 1307 l 1
 652 1307 l 1x12
 559 1307 l 1x24
 559 1400 l 1x22
559 3 m 1xa4
 465 3 l 1
 372 3 l 1
 372 190 l 1x44
 372 376 l 1
 279 376 l 1
 186 376 l 1
 186 655 l 1
 186 934 l 1
 279 934 l 1
 372 934 l 1x48
 372 1121 l 1
 372 1307 l 1
 465 1307 l 1
 559 1307 l 1
 559 1121 l 1
 559 934 l 1x64
 465 934 l 1
 372 934 l 1
 372 655 l 1
 372 376 l 1x68
 465 376 l 1
 559 376 l 1
 559 190 l 1
 559 3 l 1xa4
559 3 m 1x84
 652 3 l 1
 745 3 l 1
 745 -90 l 1
 745 -182 l 1
 652 -182 l 1
 559 -182 l 1
 559 -90 l 1x82
 559 3 l 1x84
EndSplineSet
EndChar

StartChar: RIGHT
Encoding: 41 41 10
Width: 1117
VWidth: 40
Flags: HW
HStem: -182 185<186 372> 3 21G<372 559> 1287 20G<372 559> 1307 186<186 372>
VStem: 186 186<-182 3 1307 1493> 372 187<3 376 934 1307> 559 186<376 934>
LayerCount: 2
Fore
SplineSet
186 1400 m 1x18
 186 1493 l 1
 279 1493 l 1
 372 1493 l 1x18
 372 1400 l 1
 372 1307 l 1x28
 279 1307 l 1
 186 1307 l 1
 186 1400 l 1x18
372 3 m 1x88
 372 190 l 1
 372 376 l 1
 465 376 l 1
 559 376 l 1x84
 559 655 l 1x82
 559 934 l 1
 465 934 l 1
 372 934 l 1
 372 1121 l 1x84
 372 1307 l 1xa8
 465 1307 l 1
 559 1307 l 1
 559 1121 l 1
 559 934 l 1xa4
 652 934 l 1
 745 934 l 1
 745 655 l 1
 745 376 l 1xa2
 652 376 l 1
 559 376 l 1
 559 190 l 1
 559 3 l 1
 465 3 l 1x64
 372 3 l 1x88
372 3 m 1x88
 372 -90 l 1
 372 -182 l 1
 279 -182 l 1
 186 -182 l 1
 186 -90 l 1
 186 3 l 1
 279 3 l 1
 372 3 l 1x88
EndSplineSet
EndChar

StartChar: ASTERISK
Encoding: 42 42 11
Width: 1117
VWidth: 40
Flags: HW
HStem: 376 186<0 186 745 931> 562 186<186 372 559 745> 748 187<0 186 745 931>
VStem: 0 186<376 562 748 935> 372 187<190 562 748 1121> 745 186<376 562 748 935>
CounterMasks: 1 1c
LayerCount: 2
Fore
SplineSet
372 935 m 1x3c
 372 1121 l 1
 466 1121 l 1
 559 1121 l 1
 559 935 l 1x3c
 559 748 l 1
 652 748 l 1
 745 748 l 1x5c
 745 655 l 1
 745 562 l 1x9c
 652 562 l 1
 559 562 l 1x5c
 559 376 l 1
 559 190 l 1
 466 190 l 1
 372 190 l 1
 372 376 l 1x9c
 372 562 l 1
 279 562 l 1x5c
 186 562 l 1x9c
 186 655 l 1
 186 748 l 1
 279 748 l 1
 372 748 l 1x5c
 372 935 l 1x3c
186 748 m 1x5c
 93 748 l 1
 0 748 l 1
 0 842 l 1
 0 935 l 1
 93 935 l 1
 186 935 l 1x3c
 186 842 l 1
 186 748 l 1x5c
186 562 m 1x9c
 186 469 l 1
 186 376 l 1
 93 376 l 1
 0 376 l 1
 0 469 l 1
 0 562 l 1
 93 562 l 1
 186 562 l 1x9c
745 562 m 1
 838 562 l 1
 931 562 l 1
 931 469 l 1
 931 376 l 1
 838 376 l 1
 745 376 l 1
 745 469 l 1
 745 562 l 1
745 748 m 1x5c
 745 842 l 1
 745 935 l 1
 838 935 l 1
 931 935 l 1
 931 842 l 1
 931 748 l 1
 838 748 l 1x3c
 745 748 l 1x5c
EndSplineSet
EndChar

StartChar: PLUS
Encoding: 43 43 12
Width: 1117
VWidth: 40
Flags: HW
HStem: 562 186<0 372 559 931>
VStem: 372 187<190 562 748 1121>
LayerCount: 2
Fore
SplineSet
372 935 m 1
 372 1121 l 1
 466 1121 l 1
 559 1121 l 1
 559 935 l 1
 559 748 l 1
 745 748 l 1
 931 748 l 1
 931 655 l 1
 931 562 l 1
 745 562 l 1
 559 562 l 1
 559 376 l 1
 559 190 l 1
 466 190 l 1
 372 190 l 1
 372 376 l 1
 372 562 l 1
 186 562 l 1
 0 562 l 1
 0 655 l 1
 0 748 l 1
 186 748 l 1
 372 748 l 1
 372 935 l 1
EndSplineSet
EndChar

StartChar: COMMA
Encoding: 44 44 13
Width: 1117
VWidth: 40
Flags: HW
HStem: -369 186<186 372>
VStem: 186 186<-369 -183> 372 187<-183 4>
LayerCount: 2
Fore
SplineSet
186 190 m 1xc0
 186 376 l 1xc0
 372 376 l 1
 559 376 l 1
 559 97 l 1
 559 -183 l 1xa0
 465 -183 l 1
 372 -183 l 1xc0
 372 -90 l 1
 372 4 l 1xa0
 279 4 l 1
 186 4 l 1
 186 190 l 1xc0
372 -183 m 1
 372 -276 l 1
 372 -369 l 1
 279 -369 l 1
 186 -369 l 1
 186 -276 l 1
 186 -183 l 1
 279 -183 l 1
 372 -183 l 1
EndSplineSet
EndChar

StartChar: HYPHEN-MINUS
Encoding: 45 45 14
Width: 1117
VWidth: 80
Flags: HW
HStem: 561 186<0 930.909>
LayerCount: 2
Fore
SplineSet
0 654 m 1
 0 747 l 1
 465 747 l 1
 931 747 l 1
 931 654 l 1
 931 561 l 1
 465 561 l 1
 0 561 l 1
 0 654 l 1
EndSplineSet
EndChar

StartChar: FULL
Encoding: 46 46 15
Width: 1117
VWidth: 80
Flags: HW
HStem: 2 372<186.182 558.546>
VStem: 186 372<2.36328 374.728>
LayerCount: 2
Fore
SplineSet
186 189 m 1
 186 374 l 1
 372 374 l 1
 558 374 l 1
 558 189 l 1
 558 2 l 1
 372 2 l 1
 186 2 l 1
 186 189 l 1
EndSplineSet
EndChar

StartChar: SOLIDUS
Encoding: 47 47 16
Width: 1117
VWidth: 40
Flags: HW
HStem: -369 21G<0 186> -17 20G<0 186> 3 21G<186 372> 1473 20G<745 931>
VStem: 0 186<-369 3> 186 186<3 376> 372 187<376 748> 559 186<748 1121> 745 186<1121 1493>
LayerCount: 2
Fore
SplineSet
745 1307 m 1x9080
 745 1493 l 1
 838 1493 l 1
 931 1493 l 1
 931 1307 l 1
 931 1121 l 1x9080
 838 1121 l 1
 745 1121 l 1x91
 745 1307 l 1x9080
186 3 m 1xd8
 186 190 l 1
 186 376 l 1
 279 376 l 1
 372 376 l 1xd4
 372 562 l 1
 372 748 l 1
 466 748 l 1
 559 748 l 1xd2
 559 934 l 1
 559 1121 l 1
 652 1121 l 1
 745 1121 l 1
 745 934 l 1
 745 748 l 1xd1
 652 748 l 1
 559 748 l 1
 559 562 l 1
 559 376 l 1xd2
 466 376 l 1
 372 376 l 1
 372 190 l 1
 372 3 l 1
 279 3 l 1xb4
 186 3 l 1xd8
186 3 m 1xd8
 186 -183 l 1
 186 -369 l 1
 93 -369 l 1
 0 -369 l 1
 0 -183 l 1
 0 3 l 1
 93 3 l 1
 186 3 l 1xd8
EndSplineSet
EndChar

StartChar: DIGIT
Encoding: 48 48 17
Width: 1117
VWidth: 40
Flags: HW
HStem: 4 186<186 745> 376 186<186 372> 562 186<372 559> 748 187<559 745> 1121 186<186 745>
VStem: 0 186<190 376 562 1121> 186 559<4 190 1121 1307> 372 187<562 748> 745 186<190 748 935 1121>
LayerCount: 2
Fore
SplineSet
186 1214 m 1x9a
 186 1307 l 1
 466 1307 l 1
 745 1307 l 1
 745 1214 l 1
 745 1121 l 1x9a
 466 1121 l 1
 186 1121 l 1
 186 841 l 1
 186 562 l 1
 279 562 l 1
 372 562 l 1
 372 469 l 1
 372 376 l 1
 279 376 l 1
 186 376 l 1
 186 283 l 1
 186 190 l 1xdd
 466 190 l 1
 745 190 l 1xda
 745 469 l 1
 745 748 l 1
 652 748 l 1xd880
 559 748 l 1xa980
 559 841 l 1
 559 935 l 1
 652 935 l 1
 745 935 l 1
 745 1028 l 1x9980
 745 1121 l 1x9a
 838 1121 l 1
 931 1121 l 1
 931 655 l 1
 931 190 l 1x9880
 838 190 l 1
 745 190 l 1
 745 97 l 1
 745 4 l 1
 466 4 l 1
 186 4 l 1
 186 97 l 1x9a
 186 190 l 1
 93 190 l 1
 0 190 l 1
 0 655 l 1
 0 1121 l 1
 93 1121 l 1
 186 1121 l 1x9c
 186 1214 l 1x9a
372 655 m 1xc9
 372 748 l 1
 466 748 l 1
 559 748 l 1
 559 655 l 1
 559 562 l 1
 466 562 l 1xa9
 372 562 l 1
 372 655 l 1xc9
EndSplineSet
EndChar

StartChar: DIGIT
Encoding: 49 49 18
Width: 1117
VWidth: 40
Flags: HW
HStem: 4 21G<372 559> 748 187<0 186> 935 186<186 372> 1287 20G<372 559>
VStem: 0 186<748 935> 372 187<4 935 1121 1307>
LayerCount: 2
Fore
SplineSet
372 1214 m 1xbc
 372 1307 l 1
 465 1307 l 1
 559 1307 l 1
 559 655 l 1
 559 4 l 1
 465 4 l 1
 372 4 l 1
 372 469 l 1
 372 935 l 1
 279 935 l 1xbc
 186 935 l 1xdc
 186 1028 l 1
 186 1121 l 1
 279 1121 l 1
 372 1121 l 1
 372 1214 l 1xbc
186 935 m 1xdc
 186 841 l 1
 186 748 l 1
 93 748 l 1
 0 748 l 1
 0 841 l 1
 0 935 l 1
 93 935 l 1
 186 935 l 1xdc
EndSplineSet
EndChar

StartChar: DIGIT
Encoding: 50 50 19
Width: 1117
VWidth: 40
Flags: HW
HStem: 4 186<0 186 372 931> 376 186<372 559> 562 186<559 745> 935 186<0 186> 1121 186<186 745>
VStem: 0 186<935 1121> 186 186<190 376> 372 187<376 562> 559 186<562 748> 745 186<748 1121>
LayerCount: 2
Fore
SplineSet
186 1214 m 1x92
 186 1307 l 1
 466 1307 l 1
 745 1307 l 1
 745 1214 l 1
 745 1121 l 1
 466 1121 l 1x8a40
 186 1121 l 1x9440
 186 1214 l 1x92
186 1121 m 1x94
 186 1028 l 1
 186 935 l 1
 93 935 l 1
 0 935 l 1
 0 1028 l 1
 0 1121 l 1
 93 1121 l 1
 186 1121 l 1x94
372 376 m 1xc2
 372 469 l 1
 372 562 l 1
 466 562 l 1
 559 562 l 1xc1
 559 655 l 1
 559 748 l 1
 652 748 l 1
 745 748 l 1xa080
 745 934 l 1
 745 1121 l 1
 838 1121 l 1
 931 1121 l 1
 931 934 l 1
 931 748 l 1xa840
 838 748 l 1
 745 748 l 1
 745 655 l 1
 745 562 l 1
 652 562 l 1xa880
 559 562 l 1
 559 469 l 1
 559 376 l 1xc1
 466 376 l 1
 372 376 l 1xc2
372 376 m 1xc2
 372 283 l 1
 372 190 l 1xc2
 652 190 l 1
 931 190 l 1
 931 97 l 1
 931 4 l 1
 465 4 l 1
 0 4 l 1
 0 97 l 1
 0 190 l 1xc440
 93 190 l 1
 186 190 l 1
 186 283 l 1
 186 376 l 1
 279 376 l 1
 372 376 l 1xc2
EndSplineSet
EndChar

StartChar: DIGIT
Encoding: 51 51 20
Width: 1117
VWidth: 40
Flags: HW
HStem: 4 186<186 745> 190 186<0 186> 562 186<372 745> 935 186<0 186> 1121 186<186 745>
VStem: 0 186<190 376 935 1121> 186 559<4 190 1121 1307> 745 186<190 562 748 1121>
LayerCount: 2
Fore
SplineSet
186 1214 m 1x32
 186 1307 l 1
 466 1307 l 1
 745 1307 l 1
 745 1214 l 1
 745 1121 l 1
 466 1121 l 1x2a
 186 1121 l 1x34
 186 1214 l 1x32
186 1121 m 1x34
 186 1028 l 1
 186 935 l 1
 93 935 l 1
 0 935 l 1
 0 1028 l 1
 0 1121 l 1
 93 1121 l 1
 186 1121 l 1x34
186 190 m 1xa4
 466 190 l 1
 745 190 l 1xa2
 745 376 l 1
 745 562 l 1
 559 562 l 1
 372 562 l 1
 372 655 l 1
 372 748 l 1
 559 748 l 1
 745 748 l 1
 745 934 l 1x61
 745 1121 l 1x6a
 838 1121 l 1
 931 1121 l 1
 931 934 l 1
 931 748 l 1
 838 748 l 1
 745 748 l 1
 745 655 l 1
 745 562 l 1
 838 562 l 1
 931 562 l 1
 931 376 l 1
 931 190 l 1
 838 190 l 1x69
 745 190 l 1
 745 97 l 1
 745 4 l 1
 466 4 l 1
 186 4 l 1
 186 97 l 1xa2
 186 190 l 1xa4
186 190 m 1xa4
 93 190 l 1
 0 190 l 1
 0 283 l 1
 0 376 l 1
 93 376 l 1
 186 376 l 1x64
 186 283 l 1
 186 190 l 1xa4
EndSplineSet
EndChar

StartChar: DIGIT
Encoding: 52 52 21
Width: 1117
VWidth: 40
Flags: HW
HStem: 4 21G<559 745> 376 186<186 559 745 931> 748 187<186 372> 935 186<372 559> 1287 20G<559 745>
VStem: 0 186<562 748> 186 186<748 935> 559 186<4 376 562 935 1121 1307>
LayerCount: 2
Fore
SplineSet
559 748 m 1xed
 559 935 l 1
 466 935 l 1xdd
 372 935 l 1
 372 841 l 1
 372 748 l 1xeb
 279 748 l 1
 186 748 l 1
 186 655 l 1
 186 562 l 1
 373 562 l 1
 559 562 l 1
 559 748 l 1xed
559 1214 m 1
 559 1307 l 1
 652 1307 l 1
 745 1307 l 1
 745 934 l 1
 745 562 l 1
 838 562 l 1
 931 562 l 1
 931 469 l 1
 931 376 l 1
 838 376 l 1
 745 376 l 1
 745 190 l 1
 745 4 l 1
 652 4 l 1
 559 4 l 1
 559 190 l 1
 559 376 l 1
 279 376 l 1
 0 376 l 1
 0 562 l 1
 0 748 l 1
 93 748 l 1
 186 748 l 1xed
 186 841 l 1
 186 935 l 1
 279 935 l 1
 372 935 l 1xeb
 372 1028 l 1
 372 1121 l 1xdb
 466 1121 l 1
 559 1121 l 1
 559 1214 l 1
EndSplineSet
EndChar

StartChar: DIGIT
Encoding: 53 53 22
Width: 1117
VWidth: 40
Flags: HW
HStem: 4 186<186 745> 190 186<0 186> 748 187<186 745> 1121 186<186 931>
VStem: 0 186<190 376 935 1121> 745 186<190 748>
LayerCount: 2
Fore
SplineSet
0 1028 m 1x3c
 0 1307 l 1
 465 1307 l 1
 931 1307 l 1
 931 1214 l 1
 931 1121 l 1
 559 1121 l 1
 186 1121 l 1
 186 1028 l 1
 186 935 l 1
 466 935 l 1
 745 935 l 1
 745 841 l 1
 745 748 l 1
 373 748 l 1
 0 748 l 1
 0 1028 l 1x3c
186 190 m 1xbc
 466 190 l 1
 745 190 l 1xbc
 745 469 l 1
 745 748 l 1
 838 748 l 1
 931 748 l 1
 931 469 l 1
 931 190 l 1
 838 190 l 1x7c
 745 190 l 1
 745 97 l 1
 745 4 l 1
 466 4 l 1
 186 4 l 1
 186 97 l 1
 186 190 l 1xbc
186 190 m 1
 93 190 l 1
 0 190 l 1
 0 283 l 1
 0 376 l 1
 93 376 l 1
 186 376 l 1x7c
 186 283 l 1
 186 190 l 1
EndSplineSet
EndChar

StartChar: DIGIT
Encoding: 54 54 23
Width: 1117
VWidth: 40
Flags: HW
HStem: 4 186<186 745> 748 187<186 745> 1121 186<186 745>
VStem: 0 186<190 748 935 1121> 186 559<4 190 1121 1307> 745 186<190 748>
LayerCount: 2
Fore
SplineSet
186 1214 m 1xe8
 186 1307 l 1
 466 1307 l 1
 745 1307 l 1
 745 1214 l 1
 745 1121 l 1xe8
 466 1121 l 1
 186 1121 l 1xf0
 186 1214 l 1xe8
186 190 m 1xf4
 466 190 l 1
 745 190 l 1xe8
 745 469 l 1
 745 748 l 1
 466 748 l 1
 186 748 l 1
 186 469 l 1
 186 190 l 1xf4
186 190 m 1xf0
 93 190 l 1
 0 190 l 1
 0 655 l 1
 0 1121 l 1
 93 1121 l 1
 186 1121 l 1
 186 1028 l 1
 186 935 l 1
 466 935 l 1
 745 935 l 1
 745 841 l 1
 745 748 l 1
 838 748 l 1
 931 748 l 1
 931 469 l 1
 931 190 l 1xf4
 838 190 l 1
 745 190 l 1
 745 97 l 1
 745 4 l 1
 466 4 l 1
 186 4 l 1
 186 97 l 1xe8
 186 190 l 1xf0
EndSplineSet
EndChar

StartChar: DIGIT
Encoding: 55 55 24
Width: 1117
VWidth: 40
Flags: HW
HStem: 4 21G<372 559> 915 20G<559 745> 935 21G<745 931> 1121 186<0 745>
VStem: 372 187<4 562> 559 186<562 935> 745 186<935 1121>
LayerCount: 2
Fore
SplineSet
0 1214 m 1xd2
 0 1307 l 1
 465 1307 l 1
 931 1307 l 1
 931 1121 l 1
 931 935 l 1
 838 935 l 1xb2
 745 935 l 1xd4
 745 1028 l 1
 745 1121 l 1
 373 1121 l 1
 0 1121 l 1
 0 1214 l 1xd2
559 562 m 1xd8
 559 748 l 1
 559 935 l 1
 652 935 l 1
 745 935 l 1
 745 748 l 1
 745 562 l 1xd4
 652 562 l 1
 559 562 l 1xd8
559 562 m 1x98
 559 283 l 1
 559 4 l 1
 466 4 l 1
 372 4 l 1
 372 283 l 1
 372 562 l 1
 466 562 l 1
 559 562 l 1x98
EndSplineSet
EndChar

StartChar: DIGIT
Encoding: 56 56 25
Width: 1117
VWidth: 40
Flags: HW
HStem: 4 186<186 745> 190 372<0 186 745 931> 562 186<186 745> 748 373<0 186 745 931> 1121 186<186 745>
VStem: 0 186<190 562 748 1121> 186 559<4 190 562 748 1121 1307> 745 186<190 562 748 1121>
LayerCount: 2
Fore
SplineSet
186 1214 m 1x12
 186 1307 l 1
 466 1307 l 1
 745 1307 l 1x0a
 745 1214 l 1
 745 1121 l 1x12
 466 1121 l 1x0a
 186 1121 l 1x14
 186 934 l 1
 186 748 l 1x24
 466 748 l 1
 745 748 l 1x22
 745 934 l 1x21
 745 1121 l 1x12
 838 1121 l 1
 931 1121 l 1
 931 934 l 1
 931 748 l 1
 838 748 l 1x11
 745 748 l 1x22
 745 655 l 1
 745 562 l 1x42
 466 562 l 1x22
 186 562 l 1x44
 186 376 l 1
 186 190 l 1x84
 466 190 l 1
 745 190 l 1x82
 745 376 l 1x81
 745 562 l 1x42
 838 562 l 1
 931 562 l 1
 931 376 l 1
 931 190 l 1
 838 190 l 1x41
 745 190 l 1
 745 97 l 1
 745 4 l 1
 466 4 l 1
 186 4 l 1
 186 97 l 1x82
 186 190 l 1x84
 93 190 l 1
 0 190 l 1
 0 376 l 1
 0 562 l 1
 93 562 l 1
 186 562 l 1x44
 186 655 l 1x42
 186 748 l 1x24
 93 748 l 1
 0 748 l 1
 0 934 l 1
 0 1121 l 1
 93 1121 l 1
 186 1121 l 1x14
 186 1214 l 1x12
EndSplineSet
EndChar

StartChar: DIGIT
Encoding: 57 57 26
Width: 1117
VWidth: 40
Flags: HW
HStem: 4 186<186 745> 562 186<186 745> 1121 186<186 745>
VStem: 0 186<748 1121> 186 559<4 190 1121 1307> 745 186<190 562 748 1121>
LayerCount: 2
Fore
SplineSet
186 1214 m 1xe8
 186 1307 l 1
 466 1307 l 1
 745 1307 l 1
 745 1214 l 1
 745 1121 l 1xe8
 466 1121 l 1
 186 1121 l 1
 186 934 l 1
 186 748 l 1
 466 748 l 1
 745 748 l 1
 745 934 l 1xf4
 745 1121 l 1xe8
 838 1121 l 1
 931 1121 l 1
 931 655 l 1
 931 190 l 1xe4
 838 190 l 1
 745 190 l 1xe8
 745 376 l 1
 745 562 l 1xe4
 466 562 l 1
 186 562 l 1
 186 655 l 1xe8
 186 748 l 1
 93 748 l 1
 0 748 l 1
 0 934 l 1
 0 1121 l 1
 93 1121 l 1
 186 1121 l 1xf0
 186 1214 l 1xe8
745 190 m 1
 745 97 l 1
 745 4 l 1
 466 4 l 1
 186 4 l 1
 186 97 l 1
 186 190 l 1
 466 190 l 1
 745 190 l 1
EndSplineSet
EndChar

StartChar: COLON
Encoding: 58 58 27
Width: 1117
VWidth: 40
Flags: HW
HStem: 4 372<372 745> 562 373<372 745>
VStem: 372 373<4 376 562 935>
LayerCount: 2
Fore
SplineSet
372 748 m 1
 372 935 l 1
 559 935 l 1
 745 935 l 1
 745 748 l 1
 745 562 l 1
 559 562 l 1
 372 562 l 1
 372 748 l 1
372 190 m 1
 372 376 l 1
 559 376 l 1
 745 376 l 1
 745 190 l 1
 745 4 l 1
 559 4 l 1
 372 4 l 1
 372 190 l 1
EndSplineSet
EndChar

StartChar: SEMICOLON
Encoding: 59 59 28
Width: 1117
VWidth: 40
Flags: HW
HStem: -369 186<186 372> 562 373<186 559>
VStem: 186 186<-369 -183> 372 187<-183 3>
LayerCount: 2
Fore
SplineSet
186 748 m 1xe0
 186 935 l 1xe0
 372 935 l 1
 559 935 l 1
 559 748 l 1
 559 562 l 1
 372 562 l 1xd0
 186 562 l 1
 186 748 l 1xe0
186 190 m 1
 186 376 l 1xe0
 372 376 l 1
 559 376 l 1
 559 96 l 1
 559 -183 l 1xd0
 465 -183 l 1
 372 -183 l 1xe0
 372 -90 l 1
 372 3 l 1xd0
 279 3 l 1
 186 3 l 1
 186 190 l 1
372 -183 m 1
 372 -276 l 1
 372 -369 l 1
 279 -369 l 1
 186 -369 l 1
 186 -276 l 1
 186 -183 l 1
 279 -183 l 1
 372 -183 l 1
EndSplineSet
EndChar

StartChar: LESS-THAN
Encoding: 60 60 29
Width: 1117
VWidth: 40
Flags: HW
HStem: 4 186<745 931> 190 186<559 745> 376 186<372 559> 562 186<186 372> 748 187<372 559> 935 186<559 745> 1121 186<745 931>
VStem: 186 186<562 748> 372 187<376 562 748 935> 559 186<190 376 935 1121> 745 186<4 190 1121 1307>
LayerCount: 2
Fore
SplineSet
745 1214 m 1x0420
 745 1307 l 1
 838 1307 l 1
 931 1307 l 1
 931 1214 l 1
 931 1121 l 1
 838 1121 l 1x0220
 745 1121 l 1x0440
 745 1214 l 1x0420
745 190 m 1x8040
 652 190 l 1
 559 190 l 1
 559 283 l 1x4040
 559 376 l 1x4080
 465 376 l 1
 372 376 l 1
 372 469 l 1x2080
 372 562 l 1x21
 279 562 l 1
 186 562 l 1
 186 655 l 1
 186 748 l 1
 279 748 l 1
 372 748 l 1x11
 372 841 l 1
 372 935 l 1
 465 935 l 1
 559 935 l 1x0880
 559 1028 l 1
 559 1121 l 1
 652 1121 l 1
 745 1121 l 1
 745 1028 l 1
 745 935 l 1
 652 935 l 1x0440
 559 935 l 1
 559 841 l 1
 559 748 l 1
 465 748 l 1x0880
 372 748 l 1x11
 372 655 l 1
 372 562 l 1x21
 465 562 l 1
 559 562 l 1x2080
 559 469 l 1
 559 376 l 1x4080
 652 376 l 1
 745 376 l 1x4040
 745 283 l 1
 745 190 l 1x8040
745 190 m 1x8040
 838 190 l 1
 931 190 l 1
 931 97 l 1
 931 4 l 1
 838 4 l 1
 745 4 l 1
 745 97 l 1x8020
 745 190 l 1x8040
EndSplineSet
EndChar

StartChar: EQUALS
Encoding: 61 61 30
Width: 1117
VWidth: 40
Flags: HW
HStem: 376 186<0 931> 748 187<0 931>
LayerCount: 2
Fore
SplineSet
0 842 m 1
 0 935 l 1
 465 935 l 1
 931 935 l 1
 931 842 l 1
 931 748 l 1
 465 748 l 1
 0 748 l 1
 0 842 l 1
0 469 m 1
 0 562 l 1
 465 562 l 1
 931 562 l 1
 931 469 l 1
 931 376 l 1
 465 376 l 1
 0 376 l 1
 0 469 l 1
EndSplineSet
EndChar

StartChar: GREATER-THAN
Encoding: 62 62 31
Width: 1117
VWidth: 40
Flags: HW
HStem: 4 186<186 372> 190 186<372 559> 376 186<559 745> 562 186<745 931> 748 187<559 745> 935 186<372 559> 1121 186<186 372>
VStem: 186 186<4 190 1121 1307> 372 187<190 376 935 1121> 559 186<376 562 748 935> 745 186<562 748>
LayerCount: 2
Fore
SplineSet
186 1214 m 1x03
 186 1307 l 1
 279 1307 l 1
 372 1307 l 1x03
 372 1214 l 1
 372 1121 l 1x05
 279 1121 l 1
 186 1121 l 1
 186 1214 l 1x03
372 190 m 1x81
 372 283 l 1
 372 376 l 1
 465 376 l 1
 559 376 l 1x4080
 559 469 l 1
 559 562 l 1
 652 562 l 1
 745 562 l 1x2040
 745 655 l 1x2020
 745 748 l 1x1040
 652 748 l 1
 559 748 l 1
 559 841 l 1x0840
 559 935 l 1x0880
 465 935 l 1
 372 935 l 1
 372 1028 l 1x0480
 372 1121 l 1x05
 465 1121 l 1
 559 1121 l 1x0480
 559 1028 l 1
 559 935 l 1x0880
 652 935 l 1
 745 935 l 1x0840
 745 841 l 1
 745 748 l 1x1040
 838 748 l 1
 931 748 l 1
 931 655 l 1
 931 562 l 1
 838 562 l 1x1020
 745 562 l 1
 745 469 l 1
 745 376 l 1
 652 376 l 1x2040
 559 376 l 1
 559 283 l 1
 559 190 l 1
 465 190 l 1x4080
 372 190 l 1x81
372 190 m 1x81
 372 97 l 1
 372 4 l 1
 279 4 l 1
 186 4 l 1
 186 97 l 1
 186 190 l 1
 279 190 l 1
 372 190 l 1x81
EndSplineSet
EndChar

StartChar: QUESTION
Encoding: 63 63 32
Width: 1117
VWidth: 40
Flags: HW
HStem: 4 186<372 559> 376 186<372 559> 562 186<559 745> 935 186<0 186> 1121 186<186 745>
VStem: 0 186<935 1121> 372 187<4 190 376 562> 559 186<562 748> 745 186<748 1121>
LayerCount: 2
Fore
SplineSet
186 1214 m 1x9480
 186 1307 l 1
 466 1307 l 1
 745 1307 l 1
 745 1214 l 1
 745 1121 l 1
 466 1121 l 1x8c80
 186 1121 l 1
 186 1214 l 1x9480
372 97 m 1x86
 372 190 l 1
 466 190 l 1
 559 190 l 1
 559 97 l 1
 559 4 l 1
 466 4 l 1
 372 4 l 1
 372 97 l 1x86
186 1121 m 1x94
 186 1028 l 1
 186 935 l 1
 93 935 l 1
 0 935 l 1
 0 1028 l 1
 0 1121 l 1
 93 1121 l 1
 186 1121 l 1x94
559 562 m 1xc6
 559 655 l 1
 559 748 l 1
 652 748 l 1
 745 748 l 1xa5
 745 934 l 1
 745 1121 l 1
 838 1121 l 1
 931 1121 l 1
 931 934 l 1
 931 748 l 1xac80
 838 748 l 1
 745 748 l 1
 745 655 l 1
 745 562 l 1
 652 562 l 1xad
 559 562 l 1xc6
559 562 m 1xc6
 559 469 l 1
 559 376 l 1
 466 376 l 1
 372 376 l 1
 372 469 l 1
 372 562 l 1
 466 562 l 1
 559 562 l 1xc6
EndSplineSet
EndChar

StartChar: COMMERCIAL
Encoding: 64 64 33
Width: 1117
VWidth: 40
Flags: HW
HStem: 4 186<186 931> 376 186<559 745> 748 187<559 745> 1121 186<186 745>
VStem: 0 186<190 1121> 372 187<562 748> 745 186<562 748 935 1121>
CounterMasks: 1 0e
LayerCount: 2
Fore
SplineSet
745 655 m 1
 745 748 l 1
 652 748 l 1
 559 748 l 1
 559 655 l 1
 559 562 l 1
 652 562 l 1
 745 562 l 1
 745 655 l 1
186 1214 m 1
 186 1307 l 1
 466 1307 l 1
 745 1307 l 1
 745 1214 l 1
 745 1121 l 1
 466 1121 l 1
 186 1121 l 1
 186 1214 l 1
186 190 m 1
 93 190 l 1
 0 190 l 1
 0 655 l 1
 0 1121 l 1
 93 1121 l 1
 186 1121 l 1
 186 655 l 1
 186 190 l 1
186 190 m 1
 559 190 l 1
 931 190 l 1
 931 97 l 1
 931 4 l 1
 559 4 l 1
 186 4 l 1
 186 97 l 1
 186 190 l 1
745 1121 m 1
 838 1121 l 1
 931 1121 l 1
 931 748 l 1
 931 376 l 1
 652 376 l 1
 372 376 l 1
 372 655 l 1
 372 935 l 1
 559 935 l 1
 745 935 l 1
 745 1028 l 1
 745 1121 l 1
EndSplineSet
EndChar

StartChar: LATIN
Encoding: 65 65 34
Width: 1117
VWidth: 40
Flags: HW
HStem: 4 21G<0 186 745 931> 748 186<186 745> 1287 20G<745 931> 1307 186<186 745>
VStem: 0 186<4 748 934 1307> 745 186<4 748 934 1307>
LayerCount: 2
Fore
SplineSet
186 1400 m 1xdc
 186 1493 l 1
 466 1493 l 1
 745 1493 l 1xdc
 745 1400 l 1
 745 1307 l 1xec
 466 1307 l 1
 186 1307 l 1xdc
 186 1121 l 1
 186 934 l 1
 466 934 l 1
 745 934 l 1
 745 1121 l 1
 745 1307 l 1
 838 1307 l 1
 931 1307 l 1xec
 931 655 l 1
 931 4 l 1
 838 4 l 1
 745 4 l 1
 745 376 l 1
 745 748 l 1
 466 748 l 1
 186 748 l 1
 186 376 l 1
 186 4 l 1
 93 4 l 1
 0 4 l 1
 0 655 l 1
 0 1307 l 1
 93 1307 l 1
 186 1307 l 1
 186 1400 l 1xdc
EndSplineSet
EndChar

StartChar: LATIN
Encoding: 66 66 35
Width: 1117
VWidth: 40
Flags: HW
HStem: 4 186<186 745> 748 186<186 745> 1287 20G<745 931> 1307 186<186 745>
VStem: 0 745<4 190 748 934 1307 1493> 0 186<190 748 934 1307> 745 186<190 748 934 1307>
LayerCount: 2
Fore
SplineSet
0 748 m 1xe8
 0 1493 l 1
 373 1493 l 1
 745 1493 l 1xd8
 745 1400 l 1
 745 1307 l 1xe8
 466 1307 l 1
 186 1307 l 1
 186 1121 l 1
 186 934 l 1xd4
 466 934 l 1
 745 934 l 1xd8
 745 1121 l 1xd2
 745 1307 l 1xe8
 838 1307 l 1
 931 1307 l 1
 931 1121 l 1
 931 934 l 1xe2
 838 934 l 1
 745 934 l 1
 745 841 l 1
 745 748 l 1xe8
 466 748 l 1
 186 748 l 1
 186 469 l 1
 186 190 l 1xe4
 466 190 l 1
 745 190 l 1xe8
 745 469 l 1xe2
 745 748 l 1xe8
 838 748 l 1
 931 748 l 1
 931 469 l 1
 931 190 l 1xe2
 838 190 l 1
 745 190 l 1
 745 97 l 1
 745 4 l 1
 373 4 l 1
 0 4 l 1
 0 748 l 1xe8
EndSplineSet
EndChar

StartChar: LATIN
Encoding: 67 67 36
Width: 1117
VWidth: 40
Flags: HW
HStem: 4 186<186 745> 190 186<745 931> 1121 186<745 931> 1307 186<186 745>
VStem: 0 186<190 1307> 186 559<4 190 1307 1493> 745 186<190 376 1121 1307>
LayerCount: 2
Fore
SplineSet
186 1400 m 1x14
 186 1493 l 1
 466 1493 l 1
 745 1493 l 1x14
 745 1400 l 1
 745 1307 l 1x24
 466 1307 l 1
 186 1307 l 1x18
 186 1400 l 1x14
745 190 m 1x94
 745 97 l 1
 745 4 l 1
 466 4 l 1
 186 4 l 1
 186 97 l 1x94
 186 190 l 1x98
 93 190 l 1
 0 190 l 1x48
 0 748 l 1
 0 1307 l 1
 93 1307 l 1
 186 1307 l 1
 186 748 l 1
 186 190 l 1x98
 466 190 l 1
 745 190 l 1x94
745 190 m 1
 745 283 l 1
 745 376 l 1
 838 376 l 1
 931 376 l 1
 931 283 l 1
 931 190 l 1
 838 190 l 1x42
 745 190 l 1
745 1307 m 1x24
 838 1307 l 1
 931 1307 l 1
 931 1214 l 1
 931 1121 l 1
 838 1121 l 1
 745 1121 l 1
 745 1214 l 1x22
 745 1307 l 1x24
EndSplineSet
EndChar

StartChar: LATIN
Encoding: 68 68 37
Width: 1117
VWidth: 40
Flags: HW
HStem: 4 186<186 745> 1287 20G<745 931> 1307 186<186 745>
VStem: 0 186<190 1307> 745 186<190 1307>
LayerCount: 2
Fore
SplineSet
0 748 m 1xd8
 0 1493 l 1
 373 1493 l 1
 745 1493 l 1xb8
 745 1400 l 1
 745 1307 l 1xd8
 466 1307 l 1
 186 1307 l 1xb8
 186 748 l 1
 186 190 l 1
 466 190 l 1
 745 190 l 1
 745 748 l 1
 745 1307 l 1
 838 1307 l 1
 931 1307 l 1
 931 748 l 1
 931 190 l 1
 838 190 l 1
 745 190 l 1
 745 97 l 1
 745 4 l 1
 373 4 l 1
 0 4 l 1
 0 748 l 1xd8
EndSplineSet
EndChar

StartChar: LATIN
Encoding: 69 69 38
Width: 1117
VWidth: 40
Flags: HW
HStem: 4 186<186 931> 748 186<186 745> 1307 186<186 931>
VStem: 0 186<190 748 934 1307>
LayerCount: 2
Fore
SplineSet
0 748 m 1
 0 1493 l 1
 465 1493 l 1
 931 1493 l 1
 931 1400 l 1
 931 1307 l 1
 559 1307 l 1
 186 1307 l 1
 186 1121 l 1
 186 934 l 1
 466 934 l 1
 745 934 l 1
 745 841 l 1
 745 748 l 1
 466 748 l 1
 186 748 l 1
 186 469 l 1
 186 190 l 1
 559 190 l 1
 931 190 l 1
 931 97 l 1
 931 4 l 1
 465 4 l 1
 0 4 l 1
 0 748 l 1
EndSplineSet
EndChar

StartChar: LATIN
Encoding: 70 70 39
Width: 1117
VWidth: 40
Flags: HW
HStem: 4 21G<0 186> 748 186<186 745> 1307 186<186 931>
VStem: 0 186<4 748 934 1307>
LayerCount: 2
Fore
SplineSet
0 748 m 1
 0 1493 l 1
 465 1493 l 1
 931 1493 l 1
 931 1400 l 1
 931 1307 l 1
 559 1307 l 1
 186 1307 l 1
 186 1121 l 1
 186 934 l 1
 466 934 l 1
 745 934 l 1
 745 841 l 1
 745 748 l 1
 466 748 l 1
 186 748 l 1
 186 376 l 1
 186 4 l 1
 93 4 l 1
 0 4 l 1
 0 748 l 1
EndSplineSet
EndChar

StartChar: LATIN
Encoding: 71 71 40
Width: 1117
VWidth: 40
Flags: HW
HStem: 4 186<186 745> 748 186<372 745> 1121 186<745 931> 1307 186<186 745>
VStem: 0 186<190 1307> 186 559<4 190 1307 1493> 745 186<190 748 1121 1307>
LayerCount: 2
Fore
SplineSet
186 1400 m 1xd4
 186 1493 l 1
 466 1493 l 1
 745 1493 l 1xd4
 745 1400 l 1
 745 1307 l 1xe4
 466 1307 l 1
 186 1307 l 1xd8
 186 1400 l 1xd4
745 190 m 1
 745 97 l 1
 745 4 l 1
 466 4 l 1
 186 4 l 1
 186 97 l 1xd4
 186 190 l 1
 93 190 l 1
 0 190 l 1
 0 748 l 1
 0 1307 l 1
 93 1307 l 1
 186 1307 l 1
 186 748 l 1
 186 190 l 1xd8
 466 190 l 1
 745 190 l 1
745 190 m 1
 745 469 l 1
 745 748 l 1
 559 748 l 1
 372 748 l 1
 372 841 l 1
 372 934 l 1
 652 934 l 1
 931 934 l 1
 931 562 l 1
 931 190 l 1xc2
 838 190 l 1
 745 190 l 1
745 1307 m 1xe4
 838 1307 l 1
 931 1307 l 1
 931 1214 l 1
 931 1121 l 1
 838 1121 l 1
 745 1121 l 1
 745 1214 l 1xe2
 745 1307 l 1xe4
EndSplineSet
EndChar

StartChar: LATIN
Encoding: 72 72 41
Width: 1117
VWidth: 40
Flags: HW
HStem: 4 21G<0 186 745 931> 748 186<186 745> 1473 20G<0 186 745 931>
VStem: 0 186<4 748 934 1493> 745 186<4 748 934 1493>
LayerCount: 2
Fore
SplineSet
0 748 m 1
 0 1493 l 1
 93 1493 l 1
 186 1493 l 1
 186 1214 l 1
 186 934 l 1
 466 934 l 1
 745 934 l 1
 745 1214 l 1
 745 1493 l 1
 838 1493 l 1
 931 1493 l 1
 931 748 l 1
 931 4 l 1
 838 4 l 1
 745 4 l 1
 745 376 l 1
 745 748 l 1
 466 748 l 1
 186 748 l 1
 186 376 l 1
 186 4 l 1
 93 4 l 1
 0 4 l 1
 0 748 l 1
EndSplineSet
EndChar

StartChar: LATIN
Encoding: 73 73 42
Width: 1117
VWidth: 40
Flags: HW
HStem: 4 186<186 372 559 745> 1307 186<186 372 559 745>
VStem: 186 559<4 190 1307 1493> 372 187<190 1307>
LayerCount: 2
Fore
SplineSet
186 1400 m 1xe0
 186 1493 l 1
 465 1493 l 1
 745 1493 l 1
 745 1400 l 1
 745 1307 l 1xe0
 652 1307 l 1
 559 1307 l 1
 559 748 l 1
 559 190 l 1xd0
 652 190 l 1
 745 190 l 1
 745 97 l 1
 745 4 l 1
 465 4 l 1
 186 4 l 1
 186 97 l 1
 186 190 l 1xe0
 279 190 l 1
 372 190 l 1
 372 748 l 1
 372 1307 l 1xd0
 279 1307 l 1
 186 1307 l 1
 186 1400 l 1xe0
EndSplineSet
EndChar

StartChar: LATIN
Encoding: 74 74 43
Width: 1117
VWidth: 40
Flags: HW
HStem: 4 186<186 745> 1473 20G<745 931>
VStem: 0 186<190 562> 745 186<190 1493>
LayerCount: 2
Fore
SplineSet
745 841 m 1
 745 1493 l 1
 838 1493 l 1
 931 1493 l 1
 931 841 l 1
 931 190 l 1
 838 190 l 1
 745 190 l 1
 745 841 l 1
186 190 m 1
 466 190 l 1
 745 190 l 1
 745 97 l 1
 745 4 l 1
 466 4 l 1
 186 4 l 1
 186 97 l 1
 186 190 l 1
186 190 m 1
 93 190 l 1
 0 190 l 1
 0 376 l 1
 0 562 l 1
 93 562 l 1
 186 562 l 1
 186 376 l 1
 186 190 l 1
EndSplineSet
EndChar

StartChar: LATIN
Encoding: 75 75 44
Width: 1117
VWidth: 40
Flags: HW
HStem: 4 21G<0 186 745 931> 376 186<559 745> 562 186<372 559> 748 186<186 372> 934 187<372 559> 1121 186<559 745> 1307 186<745 931>
VStem: 0 186<4 748 934 1493> 372 187<562 748 934 1121> 559 186<376 562 1121 1307> 745 186<4 376 1307 1493>
LayerCount: 2
Fore
SplineSet
0 748 m 1xd180
 0 1493 l 1
 93 1493 l 1
 186 1493 l 1
 186 1214 l 1
 186 934 l 1
 279 934 l 1
 372 934 l 1xd380
 372 841 l 1
 372 748 l 1xa180
 279 748 l 1
 186 748 l 1
 186 376 l 1
 186 4 l 1
 93 4 l 1
 0 4 l 1
 0 748 l 1xd180
745 376 m 1xc140
 652 376 l 1
 559 376 l 1
 559 469 l 1xc140
 559 562 l 1xc180
 466 562 l 1
 372 562 l 1
 372 655 l 1
 372 748 l 1
 466 748 l 1
 559 748 l 1xa180
 559 655 l 1
 559 562 l 1xc180
 652 562 l 1
 745 562 l 1
 745 469 l 1
 745 376 l 1xc140
745 376 m 1
 838 376 l 1
 931 376 l 1
 931 190 l 1
 931 4 l 1
 838 4 l 1
 745 4 l 1
 745 190 l 1xc120
 745 376 l 1
745 1307 m 1x8540
 745 1214 l 1
 745 1121 l 1
 652 1121 l 1x8540
 559 1121 l 1
 559 1028 l 1
 559 934 l 1
 466 934 l 1x8980
 372 934 l 1x9180
 372 1028 l 1
 372 1121 l 1
 466 1121 l 1
 559 1121 l 1x8980
 559 1214 l 1
 559 1307 l 1
 652 1307 l 1
 745 1307 l 1x8540
745 1307 m 1
 745 1400 l 1
 745 1493 l 1
 838 1493 l 1
 931 1493 l 1
 931 1400 l 1
 931 1307 l 1
 838 1307 l 1x8320
 745 1307 l 1
EndSplineSet
EndChar

StartChar: LATIN
Encoding: 76 76 45
Width: 1117
VWidth: 40
Flags: HW
HStem: 4 186<186 931> 1473 20G<0 186>
VStem: 0 186<190 1493>
LayerCount: 2
Fore
SplineSet
0 748 m 1
 0 1493 l 1
 93 1493 l 1
 186 1493 l 1
 186 841 l 1
 186 190 l 1
 559 190 l 1
 931 190 l 1
 931 97 l 1
 931 4 l 1
 465 4 l 1
 0 4 l 1
 0 748 l 1
EndSplineSet
EndChar

StartChar: LATIN
Encoding: 77 77 46
Width: 1117
VWidth: 40
Flags: HW
HStem: 4 21G<0 186 745 931> 1121 186<186 372 559 745> 1473 20G<0 186 745 931>
VStem: 0 186<4 1121 1307 1493> 372 187<748 1121> 745 186<4 1121 1307 1493>
CounterMasks: 1 1c
LayerCount: 2
Fore
SplineSet
0 748 m 1
 0 1493 l 1
 93 1493 l 1
 186 1493 l 1
 186 1400 l 1
 186 1307 l 1
 279 1307 l 1
 372 1307 l 1
 372 1214 l 1
 372 1121 l 1
 279 1121 l 1
 186 1121 l 1
 186 562 l 1
 186 4 l 1
 93 4 l 1
 0 4 l 1
 0 748 l 1
559 1121 m 1
 559 934 l 1
 559 748 l 1
 466 748 l 1
 372 748 l 1
 372 934 l 1
 372 1121 l 1
 466 1121 l 1
 559 1121 l 1
559 1121 m 1
 559 1214 l 1
 559 1307 l 1
 652 1307 l 1
 745 1307 l 1
 745 1400 l 1
 745 1493 l 1
 838 1493 l 1
 931 1493 l 1
 931 748 l 1
 931 4 l 1
 838 4 l 1
 745 4 l 1
 745 562 l 1
 745 1121 l 1
 652 1121 l 1
 559 1121 l 1
EndSplineSet
EndChar

StartChar: LATIN
Encoding: 78 78 47
Width: 1117
VWidth: 40
Flags: HW
HStem: 4 21G<0 186 745 931> 914 20G<372 559> 1473 20G<0 186 745 931>
VStem: 0 372<934 1307> 0 186<4 934 1307 1493> 372 187<562 934> 559 372<190 562> 745 186<4 190 562 1493>
LayerCount: 2
Fore
SplineSet
0 748 m 1xe8
 0 1493 l 1
 93 1493 l 1
 186 1493 l 1
 186 1400 l 1
 186 1307 l 1xe8
 279 1307 l 1
 372 1307 l 1
 372 1121 l 1
 372 934 l 1xf0
 279 934 l 1
 186 934 l 1
 186 469 l 1
 186 4 l 1
 93 4 l 1
 0 4 l 1
 0 748 l 1xe8
559 562 m 1xe4
 466 562 l 1
 372 562 l 1
 372 748 l 1xe4
 372 934 l 1xf0
 466 934 l 1
 559 934 l 1
 559 748 l 1
 559 562 l 1xe4
559 562 m 1
 652 562 l 1
 745 562 l 1
 745 1028 l 1
 745 1493 l 1
 838 1493 l 1
 931 1493 l 1
 931 748 l 1
 931 4 l 1
 838 4 l 1
 745 4 l 1
 745 97 l 1
 745 190 l 1xe5
 652 190 l 1
 559 190 l 1
 559 376 l 1xe2
 559 562 l 1
EndSplineSet
EndChar

StartChar: LATIN
Encoding: 79 79 48
Width: 1117
VWidth: 40
Flags: HW
HStem: 4 186<186 745> 1287 20G<745 931> 1307 186<186 745>
VStem: 0 186<190 1307> 186 559<4 190 1307 1493> 745 186<190 1307>
LayerCount: 2
Fore
SplineSet
186 1400 m 1xa8
 186 1493 l 1
 466 1493 l 1
 745 1493 l 1xa8
 745 1400 l 1
 745 1307 l 1xc8
 466 1307 l 1
 186 1307 l 1
 186 748 l 1
 186 190 l 1xb0
 466 190 l 1
 745 190 l 1xa8
 745 748 l 1xa4
 745 1307 l 1xc8
 838 1307 l 1
 931 1307 l 1
 931 748 l 1
 931 190 l 1xc4
 838 190 l 1
 745 190 l 1
 745 97 l 1
 745 4 l 1
 466 4 l 1
 186 4 l 1
 186 97 l 1xc8
 186 190 l 1
 93 190 l 1
 0 190 l 1
 0 748 l 1
 0 1307 l 1
 93 1307 l 1
 186 1307 l 1xb0
 186 1400 l 1xa8
EndSplineSet
EndChar

StartChar: LATIN
Encoding: 80 80 49
Width: 1117
VWidth: 40
Flags: HW
HStem: 4 21G<0 186> 748 186<186 745> 1287 20G<745 931> 1307 186<186 745>
VStem: 0 186<4 748 934 1307> 745 186<934 1307>
LayerCount: 2
Fore
SplineSet
0 748 m 1xec
 0 1493 l 1
 373 1493 l 1
 745 1493 l 1xdc
 745 1400 l 1
 745 1307 l 1xec
 466 1307 l 1
 186 1307 l 1xdc
 186 1121 l 1
 186 934 l 1
 466 934 l 1
 745 934 l 1
 745 1121 l 1
 745 1307 l 1
 838 1307 l 1
 931 1307 l 1
 931 1121 l 1
 931 934 l 1
 838 934 l 1
 745 934 l 1
 745 841 l 1
 745 748 l 1
 466 748 l 1
 186 748 l 1
 186 376 l 1
 186 4 l 1
 93 4 l 1
 0 4 l 1
 0 748 l 1xec
EndSplineSet
EndChar

StartChar: LATIN
Encoding: 81 81 50
Width: 1117
VWidth: 40
Flags: HW
HStem: 3 187<186 559> 190 186<559 745> 376 186<372 559> 1287 20G<745 931> 1307 186<186 745>
VStem: 0 186<190 1307> 372 187<376 562> 559 186<190 376> 745 186<-182 190 376 1307>
LayerCount: 2
Fore
SplineSet
186 1400 m 1x4d
 186 1493 l 1
 466 1493 l 1
 745 1493 l 1x4c80
 745 1400 l 1
 745 1307 l 1x1480
 466 1307 l 1
 186 1307 l 1
 186 748 l 1
 186 190 l 1
 373 190 l 1
 559 190 l 1
 559 283 l 1x8d
 559 376 l 1x46
 652 376 l 1
 745 376 l 1x45
 745 841 l 1
 745 1307 l 1
 838 1307 l 1
 931 1307 l 1
 931 841 l 1
 931 376 l 1
 838 376 l 1x3480
 745 376 l 1
 745 283 l 1
 745 190 l 1
 652 190 l 1x45
 559 190 l 1
 559 96 l 1
 559 3 l 1
 373 3 l 1
 186 3 l 1
 186 96 l 1
 186 190 l 1x85
 93 190 l 1
 0 190 l 1
 0 748 l 1
 0 1307 l 1
 93 1307 l 1
 186 1307 l 1
 186 1400 l 1x4d
372 469 m 1x26
 372 562 l 1
 466 562 l 1
 559 562 l 1x26
 559 469 l 1
 559 376 l 1x46
 466 376 l 1
 372 376 l 1
 372 469 l 1x26
745 190 m 1x45
 838 190 l 1
 931 190 l 1
 931 4 l 1
 931 -182 l 1
 838 -182 l 1
 745 -182 l 1
 745 4 l 1x4480
 745 190 l 1x45
EndSplineSet
EndChar

StartChar: LATIN
Encoding: 82 82 51
Width: 1117
VWidth: 40
Flags: HW
HStem: 4 21G<0 186 745 931> 748 186<186 559> 1287 20G<745 931> 1307 186<186 745>
VStem: 0 186<4 748 934 1307> 559 186<562 748> 745 186<4 562 934 1307>
LayerCount: 2
Fore
SplineSet
0 748 m 1xec
 0 1493 l 1
 373 1493 l 1
 745 1493 l 1xda
 745 1400 l 1
 745 1307 l 1xea
 466 1307 l 1
 186 1307 l 1xda
 186 1121 l 1
 186 934 l 1
 466 934 l 1
 745 934 l 1
 745 1121 l 1
 745 1307 l 1
 838 1307 l 1
 931 1307 l 1
 931 1121 l 1
 931 934 l 1
 838 934 l 1
 745 934 l 1xea
 745 748 l 1
 745 562 l 1
 652 562 l 1
 559 562 l 1
 559 655 l 1
 559 748 l 1
 373 748 l 1
 186 748 l 1
 186 376 l 1
 186 4 l 1
 93 4 l 1
 0 4 l 1
 0 748 l 1xec
745 562 m 1xcc
 838 562 l 1
 931 562 l 1
 931 283 l 1
 931 4 l 1
 838 4 l 1
 745 4 l 1
 745 283 l 1xca
 745 562 l 1xcc
EndSplineSet
EndChar

StartChar: LATIN
Encoding: 83 83 52
Width: 1117
VWidth: 40
Flags: HW
HStem: 4 186<186 745> 190 186<0 186> 748 186<186 745> 1121 186<745 931> 1307 186<186 745>
VStem: 0 186<190 376 934 1307> 186 559<4 190 748 934 1307 1493> 745 186<190 748 1121 1307>
LayerCount: 2
Fore
SplineSet
186 1400 m 1x2a
 186 1493 l 1
 466 1493 l 1
 745 1493 l 1x2a
 745 1400 l 1
 745 1307 l 1x32
 466 1307 l 1
 186 1307 l 1x2c
 186 1400 l 1x2a
186 190 m 1xa4
 466 190 l 1
 745 190 l 1xa2
 745 469 l 1xa1
 745 748 l 1
 466 748 l 1
 186 748 l 1
 186 841 l 1xa2
 186 934 l 1
 93 934 l 1
 0 934 l 1
 0 1121 l 1xb4
 0 1307 l 1
 93 1307 l 1
 186 1307 l 1x2c
 186 1121 l 1
 186 934 l 1x34
 466 934 l 1
 745 934 l 1
 745 841 l 1
 745 748 l 1x32
 838 748 l 1
 931 748 l 1
 931 469 l 1
 931 190 l 1
 838 190 l 1x71
 745 190 l 1
 745 97 l 1
 745 4 l 1
 466 4 l 1
 186 4 l 1
 186 97 l 1xa2
 186 190 l 1xa4
186 190 m 1xa4
 93 190 l 1
 0 190 l 1
 0 283 l 1
 0 376 l 1
 93 376 l 1
 186 376 l 1x64
 186 283 l 1
 186 190 l 1xa4
745 1307 m 1x32
 838 1307 l 1
 931 1307 l 1
 931 1214 l 1
 931 1121 l 1
 838 1121 l 1
 745 1121 l 1
 745 1214 l 1x31
 745 1307 l 1x32
EndSplineSet
EndChar

StartChar: LATIN
Encoding: 84 84 53
Width: 1117
VWidth: 40
Flags: HW
HStem: 4 21G<372 559> 1307 186<0 372 559 931>
VStem: 372 187<4 1307>
LayerCount: 2
Fore
SplineSet
0 1400 m 1
 0 1493 l 1
 465 1493 l 1
 931 1493 l 1
 931 1400 l 1
 931 1307 l 1
 745 1307 l 1
 559 1307 l 1
 559 655 l 1
 559 4 l 1
 466 4 l 1
 372 4 l 1
 372 655 l 1
 372 1307 l 1
 186 1307 l 1
 0 1307 l 1
 0 1400 l 1
EndSplineSet
EndChar

StartChar: LATIN
Encoding: 85 85 54
Width: 1117
VWidth: 40
Flags: HW
HStem: 4 186<186 745> 1473 20G<0 186 745 931>
VStem: 0 186<190 1493> 745 186<190 1493>
LayerCount: 2
Fore
SplineSet
0 841 m 1
 0 1493 l 1
 93 1493 l 1
 186 1493 l 1
 186 841 l 1
 186 190 l 1
 93 190 l 1
 0 190 l 1
 0 841 l 1
745 190 m 1
 745 97 l 1
 745 4 l 1
 466 4 l 1
 186 4 l 1
 186 97 l 1
 186 190 l 1
 466 190 l 1
 745 190 l 1
745 190 m 1
 745 841 l 1
 745 1493 l 1
 838 1493 l 1
 931 1493 l 1
 931 841 l 1
 931 190 l 1
 838 190 l 1
 745 190 l 1
EndSplineSet
EndChar

StartChar: LATIN
Encoding: 86 86 55
Width: 1117
VWidth: 40
Flags: HW
HStem: 4 21G<372 559> 376 372<186 372 559 745> 1473 20G<0 186 745 931>
VStem: 0 186<748 1493> 186 186<376 748> 372 187<4 376> 559 186<376 748> 745 186<748 1493>
LayerCount: 2
Fore
SplineSet
0 1121 m 1xf0
 0 1493 l 1
 93 1493 l 1
 186 1493 l 1
 186 1121 l 1
 186 748 l 1
 93 748 l 1
 0 748 l 1
 0 1121 l 1xf0
745 748 m 1xe2
 745 562 l 1
 745 376 l 1xe2
 652 376 l 1
 559 376 l 1
 559 190 l 1
 559 4 l 1
 466 4 l 1
 372 4 l 1
 372 190 l 1xe4
 372 376 l 1
 279 376 l 1
 186 376 l 1
 186 562 l 1xe8
 186 748 l 1xf0
 279 748 l 1
 372 748 l 1
 372 562 l 1
 372 376 l 1xe8
 466 376 l 1
 559 376 l 1xe4
 559 562 l 1
 559 748 l 1
 652 748 l 1
 745 748 l 1xe2
745 748 m 1
 745 1121 l 1
 745 1493 l 1
 838 1493 l 1
 931 1493 l 1
 931 1121 l 1
 931 748 l 1xe1
 838 748 l 1
 745 748 l 1
EndSplineSet
EndChar

StartChar: LATIN
Encoding: 87 87 56
Width: 1117
VWidth: 40
Flags: HW
HStem: 4 372<186 372 559 745> 914 20G<372 559> 1473 20G<0 186 745 931>
VStem: 0 186<376 1493> 186 186<4 376> 372 187<376 934> 559 186<4 376> 745 186<376 1493>
LayerCount: 2
Fore
SplineSet
0 934 m 1xf0
 0 1493 l 1
 93 1493 l 1
 186 1493 l 1
 186 934 l 1
 186 376 l 1
 93 376 l 1
 0 376 l 1
 0 934 l 1xf0
745 376 m 1xe2
 745 190 l 1
 745 4 l 1
 652 4 l 1
 559 4 l 1
 559 190 l 1xe2
 559 376 l 1xe4
 466 376 l 1
 372 376 l 1
 372 190 l 1
 372 4 l 1
 279 4 l 1
 186 4 l 1
 186 190 l 1xe8
 186 376 l 1xf0
 279 376 l 1
 372 376 l 1xe8
 372 655 l 1
 372 934 l 1
 466 934 l 1
 559 934 l 1
 559 655 l 1
 559 376 l 1xe4
 652 376 l 1
 745 376 l 1xe2
745 376 m 1
 745 934 l 1
 745 1493 l 1
 838 1493 l 1
 931 1493 l 1
 931 934 l 1
 931 376 l 1xe1
 838 376 l 1
 745 376 l 1
EndSplineSet
EndChar

StartChar: LATIN
Encoding: 88 88 57
Width: 1117
VWidth: 40
Flags: HW
HStem: 4 558<0 186 745 931> 562 186<186 372 559 745> 748 186<372 559> 934 187<186 372 559 745> 1121 372<0 186 745 931>
VStem: 0 186<4 562 1121 1493> 186 186<562 748 934 1121> 372 187<748 934> 559 186<562 748 934 1121> 745 186<4 562 1121 1493>
LayerCount: 2
Fore
SplineSet
0 1307 m 1x0c
 0 1493 l 1
 93 1493 l 1
 186 1493 l 1x0c
 186 1307 l 1
 186 1121 l 1x14
 93 1121 l 1
 0 1121 l 1
 0 1307 l 1x0c
186 562 m 1x84
 186 655 l 1
 186 748 l 1
 279 748 l 1
 372 748 l 1x42
 372 841 l 1x41
 372 934 l 1x22
 279 934 l 1
 186 934 l 1
 186 1028 l 1x12
 186 1121 l 1x14
 279 1121 l 1
 372 1121 l 1x12
 372 1028 l 1
 372 934 l 1x22
 466 934 l 1
 559 934 l 1x21
 559 841 l 1
 559 748 l 1x41
 466 748 l 1x21
 372 748 l 1
 372 655 l 1
 372 562 l 1
 279 562 l 1x42
 186 562 l 1x84
186 562 m 1x84
 186 283 l 1
 186 4 l 1
 93 4 l 1
 0 4 l 1
 0 283 l 1
 0 562 l 1
 93 562 l 1
 186 562 l 1x84
745 562 m 1x8080
 652 562 l 1
 559 562 l 1
 559 655 l 1x4080
 559 748 l 1x41
 652 748 l 1
 745 748 l 1x4080
 745 655 l 1
 745 562 l 1x8080
745 562 m 1x8080
 838 562 l 1
 931 562 l 1
 931 283 l 1
 931 4 l 1
 838 4 l 1
 745 4 l 1
 745 283 l 1x8040
 745 562 l 1x8080
745 1121 m 1x1080
 745 1028 l 1
 745 934 l 1
 652 934 l 1x1080
 559 934 l 1x21
 559 1028 l 1
 559 1121 l 1
 652 1121 l 1
 745 1121 l 1x1080
745 1121 m 1
 745 1307 l 1
 745 1493 l 1
 838 1493 l 1
 931 1493 l 1
 931 1307 l 1
 931 1121 l 1
 838 1121 l 1x0840
 745 1121 l 1
EndSplineSet
EndChar

StartChar: LATIN
Encoding: 89 89 58
Width: 1117
VWidth: 40
Flags: HW
HStem: 4 21G<372 559> 934 187<186 372 559 745> 1121 372<0 186 745 931>
VStem: 0 186<1121 1493> 186 186<934 1121> 372 187<4 934> 559 186<934 1121> 745 186<1121 1493>
LayerCount: 2
Fore
SplineSet
0 1307 m 1xb0
 0 1493 l 1
 93 1493 l 1
 186 1493 l 1xb0
 186 1307 l 1
 186 1121 l 1xd0
 93 1121 l 1
 0 1121 l 1
 0 1307 l 1xb0
745 1121 m 1xc2
 745 1028 l 1
 745 934 l 1xc2
 652 934 l 1
 559 934 l 1
 559 469 l 1
 559 4 l 1
 466 4 l 1
 372 4 l 1
 372 469 l 1xc4
 372 934 l 1
 279 934 l 1
 186 934 l 1
 186 1028 l 1xc8
 186 1121 l 1xd0
 279 1121 l 1
 372 1121 l 1
 372 1028 l 1
 372 934 l 1xc8
 466 934 l 1
 559 934 l 1xc4
 559 1028 l 1
 559 1121 l 1
 652 1121 l 1
 745 1121 l 1xc2
745 1121 m 1
 745 1307 l 1
 745 1493 l 1
 838 1493 l 1
 931 1493 l 1
 931 1307 l 1
 931 1121 l 1
 838 1121 l 1xa1
 745 1121 l 1
EndSplineSet
EndChar

StartChar: LATIN
Encoding: 90 90 59
Width: 1117
VWidth: 40
Flags: HW
HStem: 4 186<186 931> 562 186<186 372> 748 186<372 559> 934 187<559 745> 1307 186<0 745>
VStem: 0 186<190 562> 186 186<562 748> 372 187<748 934> 559 186<934 1121> 745 186<1121 1307>
LayerCount: 2
Fore
SplineSet
0 1400 m 1x9c40
 0 1493 l 1
 465 1493 l 1
 931 1493 l 1
 931 1307 l 1
 931 1121 l 1x9c40
 838 1121 l 1
 745 1121 l 1x9880
 745 1214 l 1
 745 1307 l 1
 373 1307 l 1
 0 1307 l 1
 0 1400 l 1x9c40
186 562 m 1xcc
 186 655 l 1
 186 748 l 1
 279 748 l 1
 372 748 l 1xca
 372 841 l 1
 372 934 l 1
 466 934 l 1
 559 934 l 1xa9
 559 1028 l 1
 559 1121 l 1
 652 1121 l 1
 745 1121 l 1
 745 1028 l 1
 745 934 l 1
 652 934 l 1x9880
 559 934 l 1
 559 841 l 1
 559 748 l 1
 466 748 l 1xa9
 372 748 l 1
 372 655 l 1
 372 562 l 1xca
 279 562 l 1
 186 562 l 1xcc
186 562 m 1xcc40
 186 376 l 1
 186 190 l 1
 559 190 l 1xcc80
 931 190 l 1
 931 97 l 1
 931 4 l 1
 465 4 l 1
 0 4 l 1
 0 283 l 1
 0 562 l 1
 93 562 l 1
 186 562 l 1xcc40
EndSplineSet
EndChar

StartChar: LEFT
Encoding: 91 91 60
Width: 1117
VWidth: 40
Flags: HW
HStem: -182 185<559 931> 1307 186<559 931>
VStem: 372 559<-182 3 1307 1493> 372 187<3 1307>
LayerCount: 2
Fore
SplineSet
372 655 m 1xd0
 372 1493 l 1
 652 1493 l 1
 931 1493 l 1
 931 1400 l 1
 931 1307 l 1xe0
 745 1307 l 1
 559 1307 l 1
 559 655 l 1
 559 3 l 1xd0
 745 3 l 1
 931 3 l 1
 931 -90 l 1
 931 -182 l 1
 652 -182 l 1
 372 -182 l 1xe0
 372 655 l 1xd0
EndSplineSet
EndChar

StartChar: REVERSE
Encoding: 92 92 61
Width: 1117
VWidth: 40
Flags: HW
HStem: -369 21G<931 1117> -17 20G<931 1117> 3 21G<745 931> 1473 20G<186 372>
VStem: 186 186<1121 1493> 372 187<748 1121> 559 186<376 748> 745 186<3 376> 931 186<-369 3>
LayerCount: 2
Fore
SplineSet
186 1307 m 1x98
 186 1493 l 1
 279 1493 l 1
 372 1493 l 1
 372 1307 l 1
 372 1121 l 1
 279 1121 l 1
 186 1121 l 1
 186 1307 l 1x98
931 3 m 1xd1
 838 3 l 1
 745 3 l 1
 745 190 l 1xb1
 745 376 l 1
 652 376 l 1
 559 376 l 1
 559 562 l 1xb2
 559 748 l 1
 465 748 l 1
 372 748 l 1
 372 934 l 1xb4
 372 1121 l 1xb8
 465 1121 l 1
 559 1121 l 1
 559 934 l 1
 559 748 l 1xb4
 652 748 l 1
 745 748 l 1
 745 562 l 1
 745 376 l 1xb2
 838 376 l 1
 931 376 l 1
 931 190 l 1
 931 3 l 1xd1
931 3 m 1xd1
 1024 3 l 1
 1117 3 l 1
 1117 -183 l 1
 1117 -369 l 1
 1024 -369 l 1
 931 -369 l 1
 931 -183 l 1xd080
 931 3 l 1xd1
EndSplineSet
EndChar

StartChar: RIGHT
Encoding: 93 93 62
Width: 1117
VWidth: 40
Flags: HW
HStem: -182 185<0 372> 1307 186<0 372>
VStem: 0 559<-182 3 1307 1493> 372 187<3 1307>
LayerCount: 2
Fore
SplineSet
0 1400 m 1xe0
 0 1493 l 1
 279 1493 l 1
 559 1493 l 1xe0
 559 655 l 1xd0
 559 -182 l 1
 279 -182 l 1
 0 -182 l 1
 0 -90 l 1
 0 3 l 1xe0
 186 3 l 1
 372 3 l 1
 372 655 l 1
 372 1307 l 1xd0
 186 1307 l 1
 0 1307 l 1
 0 1400 l 1xe0
EndSplineSet
EndChar

StartChar: CIRCUMFLEX
Encoding: 94 94 63
Width: 1117
VWidth: 40
Flags: HW
HStem: 748 187<0 186 745 931> 935 186<186 372 559 745> 1121 186<372 559>
VStem: 0 186<748 935> 186 186<935 1121> 372 187<1121 1307> 559 186<935 1121> 745 186<748 935>
LayerCount: 2
Fore
SplineSet
372 1214 m 1x44
 372 1307 l 1
 466 1307 l 1
 559 1307 l 1x24
 559 1214 l 1
 559 1121 l 1x44
 466 1121 l 1x24
 372 1121 l 1x48
 372 1214 l 1x44
186 935 m 1x90
 186 1028 l 1
 186 1121 l 1
 279 1121 l 1
 372 1121 l 1
 372 1028 l 1
 372 935 l 1
 279 935 l 1x48
 186 935 l 1x90
186 935 m 1x90
 186 842 l 1
 186 748 l 1
 93 748 l 1
 0 748 l 1
 0 842 l 1
 0 935 l 1
 93 935 l 1
 186 935 l 1x90
745 935 m 1x82
 652 935 l 1
 559 935 l 1
 559 1028 l 1x42
 559 1121 l 1x44
 652 1121 l 1
 745 1121 l 1x42
 745 1028 l 1
 745 935 l 1x82
745 935 m 1x82
 838 935 l 1
 931 935 l 1
 931 842 l 1
 931 748 l 1
 838 748 l 1
 745 748 l 1
 745 842 l 1x81
 745 935 l 1x82
EndSplineSet
EndChar

StartChar: LOW
Encoding: 95 95 64
Width: 1117
VWidth: 80
Flags: HW
HStem: -184 186<0 1117.09>
LayerCount: 2
Fore
SplineSet
0 -91 m 1
 0 2 l 1
 559 2 l 1
 1117 2 l 1
 1117 -91 l 1
 1117 -184 l 1
 559 -184 l 1
 0 -184 l 1
 0 -91 l 1
EndSplineSet
EndChar

StartChar: GRAVE
Encoding: 96 96 65
Width: 1117
VWidth: 40
Flags: HW
HStem: 935 186<559 745> 1121 186<372 559> 1307 186<186 372>
VStem: 186 186<1307 1493> 372 187<1121 1307> 559 186<935 1121>
LayerCount: 2
Fore
SplineSet
186 1400 m 1x30
 186 1493 l 1
 279 1493 l 1
 372 1493 l 1x30
 372 1400 l 1
 372 1307 l 1x50
 279 1307 l 1
 186 1307 l 1
 186 1400 l 1x30
559 1121 m 1x88
 465 1121 l 1
 372 1121 l 1
 372 1214 l 1x48
 372 1307 l 1x50
 465 1307 l 1
 559 1307 l 1x48
 559 1214 l 1
 559 1121 l 1x88
559 1121 m 1x88
 652 1121 l 1
 745 1121 l 1
 745 1028 l 1
 745 935 l 1
 652 935 l 1
 559 935 l 1
 559 1028 l 1x84
 559 1121 l 1x88
EndSplineSet
EndChar

StartChar: LATIN
Encoding: 97 97 66
Width: 1117
VWidth: 40
Flags: HW
HStem: 4 186<186 745> 190 186<0 186> 376 186<186 745> 748 187<186 745>
VStem: 0 186<190 376> 745 186<190 376 562 748>
LayerCount: 2
Fore
SplineSet
745 283 m 1x9c
 745 376 l 1
 466 376 l 1xbc
 186 376 l 1x5c
 186 283 l 1
 186 190 l 1
 466 190 l 1
 745 190 l 1
 745 283 l 1x9c
186 842 m 1
 186 935 l 1
 466 935 l 1
 745 935 l 1
 745 842 l 1
 745 748 l 1
 466 748 l 1
 186 748 l 1
 186 842 l 1
186 376 m 1x5c
 186 469 l 1
 186 562 l 1
 466 562 l 1
 745 562 l 1
 745 655 l 1
 745 748 l 1
 838 748 l 1
 931 748 l 1
 931 376 l 1
 931 4 l 1
 559 4 l 1
 186 4 l 1
 186 97 l 1
 186 190 l 1xbc
 93 190 l 1
 0 190 l 1
 0 283 l 1
 0 376 l 1
 93 376 l 1
 186 376 l 1x5c
EndSplineSet
EndChar

StartChar: LATIN
Encoding: 98 98 67
Width: 1117
VWidth: 40
Flags: HW
HStem: 4 186<186 745> 562 186<186 372> 748 186<372 745> 1473 20G<0 186>
VStem: 0 186<190 562 748 1493> 745 186<190 748>
LayerCount: 2
Fore
SplineSet
0 748 m 1xbc
 0 1493 l 1
 93 1493 l 1
 186 1493 l 1
 186 1121 l 1
 186 748 l 1
 279 748 l 1
 372 748 l 1
 372 655 l 1
 372 562 l 1
 279 562 l 1
 186 562 l 1xdc
 186 376 l 1
 186 190 l 1
 466 190 l 1
 745 190 l 1
 745 469 l 1
 745 748 l 1
 559 748 l 1xbc
 372 748 l 1xdc
 372 841 l 1
 372 934 l 1
 559 934 l 1
 745 934 l 1
 745 841 l 1
 745 748 l 1
 838 748 l 1
 931 748 l 1
 931 469 l 1
 931 190 l 1
 838 190 l 1
 745 190 l 1
 745 97 l 1
 745 4 l 1
 373 4 l 1
 0 4 l 1
 0 748 l 1xbc
EndSplineSet
EndChar

StartChar: LATIN
Encoding: 99 99 68
Width: 1117
VWidth: 40
Flags: HW
HStem: 4 186<186 931> 748 187<186 931>
VStem: 0 186<190 748>
LayerCount: 2
Fore
SplineSet
186 842 m 1
 186 935 l 1
 559 935 l 1
 931 935 l 1
 931 842 l 1
 931 748 l 1
 559 748 l 1
 186 748 l 1
 186 842 l 1
186 190 m 1
 93 190 l 1
 0 190 l 1
 0 469 l 1
 0 748 l 1
 93 748 l 1
 186 748 l 1
 186 469 l 1
 186 190 l 1
186 190 m 1
 559 190 l 1
 931 190 l 1
 931 97 l 1
 931 4 l 1
 559 4 l 1
 186 4 l 1
 186 97 l 1
 186 190 l 1
EndSplineSet
EndChar

StartChar: LATIN
Encoding: 100 100 69
Width: 1117
VWidth: 40
Flags: HW
HStem: 4 186<186 559> 190 186<559 745> 748 186<186 745> 1473 20G<745 931>
VStem: 0 186<190 748> 745 186<4 190 376 748 934 1493>
LayerCount: 2
Fore
SplineSet
745 562 m 1x7c
 745 748 l 1
 466 748 l 1
 186 748 l 1
 186 469 l 1
 186 190 l 1
 373 190 l 1
 559 190 l 1xbc
 559 283 l 1
 559 376 l 1
 652 376 l 1
 745 376 l 1
 745 562 l 1x7c
745 1214 m 1
 745 1493 l 1
 838 1493 l 1
 931 1493 l 1
 931 748 l 1
 931 4 l 1
 838 4 l 1
 745 4 l 1xbc
 745 97 l 1
 745 190 l 1
 652 190 l 1x7c
 559 190 l 1
 559 97 l 1
 559 4 l 1
 373 4 l 1
 186 4 l 1
 186 97 l 1
 186 190 l 1xbc
 93 190 l 1
 0 190 l 1x7c
 0 469 l 1
 0 748 l 1
 93 748 l 1
 186 748 l 1
 186 841 l 1
 186 934 l 1
 466 934 l 1
 745 934 l 1
 745 1214 l 1
EndSplineSet
EndChar

StartChar: LATIN
Encoding: 101 101 70
Width: 1117
VWidth: 40
Flags: HW
HStem: 4 186<186 931> 376 186<186 745> 748 187<186 745>
VStem: 0 186<190 376 562 748> 745 186<562 748>
LayerCount: 2
Fore
SplineSet
186 842 m 1
 186 935 l 1
 466 935 l 1
 745 935 l 1
 745 842 l 1
 745 748 l 1
 466 748 l 1
 186 748 l 1
 186 655 l 1
 186 562 l 1
 466 562 l 1
 745 562 l 1
 745 655 l 1
 745 748 l 1
 838 748 l 1
 931 748 l 1
 931 562 l 1
 931 376 l 1
 559 376 l 1
 186 376 l 1
 186 283 l 1
 186 190 l 1
 93 190 l 1
 0 190 l 1
 0 469 l 1
 0 748 l 1
 93 748 l 1
 186 748 l 1
 186 842 l 1
186 190 m 1
 559 190 l 1
 931 190 l 1
 931 97 l 1
 931 4 l 1
 559 4 l 1
 186 4 l 1
 186 97 l 1
 186 190 l 1
EndSplineSet
EndChar

StartChar: LATIN
Encoding: 102 102 71
Width: 1117
VWidth: 40
Flags: HW
HStem: 4 21G<186 372> 748 186<372 745> 1287 20G<186 372> 1307 186<372 745>
VStem: 186 186<4 748 934 1307>
LayerCount: 2
Fore
SplineSet
372 1400 m 1xe8
 372 1493 l 1
 559 1493 l 1
 745 1493 l 1
 745 1400 l 1
 745 1307 l 1
 559 1307 l 1xd8
 372 1307 l 1
 372 1400 l 1xe8
372 1307 m 1xe8
 372 1121 l 1
 372 934 l 1
 559 934 l 1
 745 934 l 1
 745 841 l 1
 745 748 l 1
 559 748 l 1
 372 748 l 1
 372 376 l 1
 372 4 l 1
 279 4 l 1
 186 4 l 1
 186 655 l 1
 186 1307 l 1
 279 1307 l 1
 372 1307 l 1xe8
EndSplineSet
EndChar

StartChar: LATIN
Encoding: 103 103 72
Width: 1117
VWidth: 40
Flags: HW
HStem: -369 186<186 745> 3 187<186 559> 190 186<559 745> 748 187<186 745>
VStem: 0 186<190 748> 745 186<-183 190 376 748>
LayerCount: 2
Fore
SplineSet
745 562 m 1xbc
 745 748 l 1
 466 748 l 1
 186 748 l 1
 186 469 l 1
 186 190 l 1
 373 190 l 1
 559 190 l 1xdc
 559 283 l 1
 559 376 l 1
 652 376 l 1
 745 376 l 1
 745 562 l 1xbc
186 842 m 1
 186 935 l 1
 559 935 l 1
 931 935 l 1
 931 376 l 1xbc
 931 -183 l 1
 838 -183 l 1
 745 -183 l 1
 745 3 l 1xdc
 745 190 l 1
 652 190 l 1xbc
 559 190 l 1
 559 96 l 1
 559 3 l 1
 373 3 l 1
 186 3 l 1
 186 96 l 1
 186 190 l 1xdc
 93 190 l 1
 0 190 l 1xbc
 0 469 l 1
 0 748 l 1
 93 748 l 1
 186 748 l 1
 186 842 l 1
745 -183 m 1
 745 -276 l 1
 745 -369 l 1
 466 -369 l 1
 186 -369 l 1
 186 -276 l 1
 186 -183 l 1
 466 -183 l 1
 745 -183 l 1
EndSplineSet
EndChar

StartChar: LATIN
Encoding: 104 104 73
Width: 1117
VWidth: 40
Flags: HW
HStem: 4 21G<0 186 745 931> 562 186<186 372> 748 186<372 745> 1473 20G<0 186>
VStem: 0 186<4 562 748 1493> 745 186<4 748>
LayerCount: 2
Fore
SplineSet
0 748 m 1xbc
 0 1493 l 1
 93 1493 l 1
 186 1493 l 1
 186 1121 l 1
 186 748 l 1
 279 748 l 1
 372 748 l 1
 372 655 l 1
 372 562 l 1
 279 562 l 1
 186 562 l 1xdc
 186 283 l 1
 186 4 l 1
 93 4 l 1
 0 4 l 1
 0 748 l 1xbc
745 748 m 1xbc
 559 748 l 1xbc
 372 748 l 1xdc
 372 841 l 1
 372 934 l 1
 559 934 l 1
 745 934 l 1
 745 841 l 1
 745 748 l 1xbc
745 748 m 1
 838 748 l 1
 931 748 l 1
 931 376 l 1
 931 4 l 1
 838 4 l 1
 745 4 l 1
 745 376 l 1
 745 748 l 1
EndSplineSet
EndChar

StartChar: LATIN
Encoding: 105 105 74
Width: 1117
VWidth: 40
Flags: HW
HStem: 4 186<559 745> 748 187<186 372> 1121 186<372 559>
VStem: 372 187<190 748 1121 1307>
LayerCount: 2
Fore
SplineSet
372 1214 m 1
 372 1307 l 1
 465 1307 l 1
 559 1307 l 1
 559 1214 l 1
 559 1121 l 1
 465 1121 l 1
 372 1121 l 1
 372 1214 l 1
186 841 m 1
 186 935 l 1
 372 935 l 1
 559 935 l 1
 559 562 l 1
 559 190 l 1
 652 190 l 1
 745 190 l 1
 745 97 l 1
 745 4 l 1
 559 4 l 1
 372 4 l 1
 372 376 l 1
 372 748 l 1
 279 748 l 1
 186 748 l 1
 186 841 l 1
EndSplineSet
EndChar

StartChar: LATIN
Encoding: 106 106 75
Width: 1117
VWidth: 40
Flags: HW
HStem: -369 186<0 372> 748 187<186 372> 1121 186<372 559>
VStem: 372 187<-183 748 1121 1307>
LayerCount: 2
Fore
SplineSet
372 1214 m 1
 372 1307 l 1
 465 1307 l 1
 559 1307 l 1
 559 1214 l 1
 559 1121 l 1
 465 1121 l 1
 372 1121 l 1
 372 1214 l 1
186 841 m 1
 186 935 l 1
 372 935 l 1
 559 935 l 1
 559 376 l 1
 559 -183 l 1
 465 -183 l 1
 372 -183 l 1
 372 283 l 1
 372 748 l 1
 279 748 l 1
 186 748 l 1
 186 841 l 1
372 -183 m 1
 372 -276 l 1
 372 -369 l 1
 186 -369 l 1
 0 -369 l 1
 0 -276 l 1
 0 -183 l 1
 186 -183 l 1
 372 -183 l 1
EndSplineSet
EndChar

StartChar: LATIN
Encoding: 107 107 76
Width: 1117
VWidth: 40
Flags: HW
HStem: 4 186<745 931> 190 186<559 745> 376 186<186 372> 748 186<559 745> 1473 20G<0 186>
VStem: 0 186<4 376 562 1493> 372 187<562 748> 559 186<190 376 748 934> 745 186<4 190>
LayerCount: 2
Fore
SplineSet
0 748 m 1x9d
 0 1493 l 1
 93 1493 l 1
 186 1493 l 1
 186 1028 l 1
 186 562 l 1
 279 562 l 1
 372 562 l 1
 372 655 l 1
 372 748 l 1
 466 748 l 1
 559 748 l 1
 559 562 l 1xbe
 559 376 l 1x5d
 373 376 l 1
 186 376 l 1x3d
 186 190 l 1x5d
 186 4 l 1
 93 4 l 1
 0 4 l 1
 0 748 l 1x9d
745 190 m 1x9d
 652 190 l 1
 559 190 l 1
 559 283 l 1
 559 376 l 1
 652 376 l 1
 745 376 l 1x5d
 745 283 l 1
 745 190 l 1x9d
745 190 m 1x9d
 838 190 l 1
 931 190 l 1
 931 97 l 1
 931 4 l 1
 838 4 l 1
 745 4 l 1
 745 97 l 1x9c80
 745 190 l 1x9d
559 748 m 1x1e
 559 841 l 1
 559 934 l 1
 652 934 l 1
 745 934 l 1
 745 841 l 1
 745 748 l 1x1d
 652 748 l 1
 559 748 l 1x1e
EndSplineSet
EndChar

StartChar: LATIN
Encoding: 108 108 77
Width: 1117
VWidth: 40
Flags: HW
HStem: 4 186<559 931> 1307 186<186 372>
VStem: 372 187<190 1307>
LayerCount: 2
Fore
SplineSet
186 1400 m 1
 186 1493 l 1
 372 1493 l 1
 559 1493 l 1
 559 841 l 1
 559 190 l 1
 465 190 l 1
 372 190 l 1
 372 748 l 1
 372 1307 l 1
 279 1307 l 1
 186 1307 l 1
 186 1400 l 1
559 190 m 1
 745 190 l 1
 931 190 l 1
 931 97 l 1
 931 4 l 1
 745 4 l 1
 559 4 l 1
 559 97 l 1
 559 190 l 1
EndSplineSet
EndChar

StartChar: LATIN
Encoding: 109 109 78
Width: 1117
VWidth: 40
Flags: HW
HStem: 4 21G<0 186 372 559 745 931> 748 187<186 372 559 745>
VStem: 0 186<4 748> 372 187<4 748> 745 186<4 748>
CounterMasks: 1 38
LayerCount: 2
Fore
SplineSet
0 469 m 1
 0 935 l 1
 373 935 l 1
 745 935 l 1
 745 842 l 1
 745 748 l 1
 652 748 l 1
 559 748 l 1
 559 376 l 1
 559 4 l 1
 466 4 l 1
 372 4 l 1
 372 376 l 1
 372 748 l 1
 279 748 l 1
 186 748 l 1
 186 376 l 1
 186 4 l 1
 93 4 l 1
 0 4 l 1
 0 469 l 1
745 748 m 1
 838 748 l 1
 931 748 l 1
 931 376 l 1
 931 4 l 1
 838 4 l 1
 745 4 l 1
 745 376 l 1
 745 748 l 1
EndSplineSet
EndChar

StartChar: LATIN
Encoding: 110 110 79
Width: 1117
VWidth: 40
Flags: HW
HStem: 4 21G<0 186 745 931> 748 187<186 745>
VStem: 0 186<4 748> 745 186<4 748>
LayerCount: 2
Fore
SplineSet
0 469 m 1
 0 935 l 1
 373 935 l 1
 745 935 l 1
 745 842 l 1
 745 748 l 1
 466 748 l 1
 186 748 l 1
 186 376 l 1
 186 4 l 1
 93 4 l 1
 0 4 l 1
 0 469 l 1
745 748 m 1
 838 748 l 1
 931 748 l 1
 931 376 l 1
 931 4 l 1
 838 4 l 1
 745 4 l 1
 745 376 l 1
 745 748 l 1
EndSplineSet
EndChar

StartChar: LATIN
Encoding: 111 111 80
Width: 1117
VWidth: 40
Flags: HW
HStem: 4 186<186 745> 190 558<0 186 745 931> 748 187<186 745>
VStem: 0 186<190 748> 186 559<4 190 748 935> 745 186<190 748>
LayerCount: 2
Fore
SplineSet
186 842 m 1x48
 186 935 l 1
 466 935 l 1
 745 935 l 1x28
 745 842 l 1
 745 748 l 1x48
 466 748 l 1x28
 186 748 l 1x50
 186 469 l 1
 186 190 l 1x90
 466 190 l 1
 745 190 l 1x88
 745 469 l 1x84
 745 748 l 1x48
 838 748 l 1
 931 748 l 1
 931 469 l 1
 931 190 l 1
 838 190 l 1x44
 745 190 l 1
 745 97 l 1
 745 4 l 1
 466 4 l 1
 186 4 l 1
 186 97 l 1x88
 186 190 l 1x90
 93 190 l 1
 0 190 l 1
 0 469 l 1
 0 748 l 1
 93 748 l 1
 186 748 l 1x50
 186 842 l 1x48
EndSplineSet
EndChar

StartChar: LATIN
Encoding: 112 112 81
Width: 1117
VWidth: 40
Flags: HW
HStem: -369 21G<0 186> 3 187<186 745> 562 186<186 372> 748 187<372 745>
VStem: 0 186<-369 3 190 562 748 935> 745 186<190 748>
LayerCount: 2
Fore
SplineSet
0 283 m 1xdc
 0 935 l 1
 93 935 l 1
 186 935 l 1xdc
 186 842 l 1
 186 748 l 1
 279 748 l 1
 372 748 l 1
 372 655 l 1
 372 562 l 1
 279 562 l 1
 186 562 l 1xec
 186 376 l 1
 186 190 l 1
 466 190 l 1
 745 190 l 1
 745 469 l 1
 745 748 l 1
 559 748 l 1xdc
 372 748 l 1xec
 372 842 l 1
 372 935 l 1
 559 935 l 1
 745 935 l 1
 745 842 l 1
 745 748 l 1
 838 748 l 1
 931 748 l 1
 931 469 l 1
 931 190 l 1
 838 190 l 1
 745 190 l 1
 745 96 l 1
 745 3 l 1
 466 3 l 1
 186 3 l 1
 186 -183 l 1
 186 -369 l 1
 93 -369 l 1
 0 -369 l 1
 0 283 l 1xdc
EndSplineSet
EndChar

StartChar: LATIN
Encoding: 113 113 82
Width: 1117
VWidth: 40
Flags: HW
HStem: -369 21G<745 931> 3 187<186 559> 190 186<559 745> 748 187<186 745>
VStem: 0 186<190 748> 745 186<-369 190 376 748>
LayerCount: 2
Fore
SplineSet
745 562 m 1xbc
 745 748 l 1
 466 748 l 1
 186 748 l 1
 186 469 l 1
 186 190 l 1
 373 190 l 1
 559 190 l 1xdc
 559 283 l 1
 559 376 l 1
 652 376 l 1
 745 376 l 1
 745 562 l 1xbc
186 842 m 1
 186 935 l 1
 559 935 l 1
 931 935 l 1
 931 283 l 1
 931 -369 l 1
 838 -369 l 1
 745 -369 l 1
 745 -90 l 1
 745 190 l 1
 652 190 l 1xbc
 559 190 l 1
 559 96 l 1
 559 3 l 1
 373 3 l 1
 186 3 l 1
 186 96 l 1
 186 190 l 1xdc
 93 190 l 1
 0 190 l 1xbc
 0 469 l 1
 0 748 l 1
 93 748 l 1
 186 748 l 1
 186 842 l 1
EndSplineSet
EndChar

StartChar: LATIN
Encoding: 114 114 83
Width: 1117
VWidth: 40
Flags: HW
HStem: 4 21G<0 186> 562 186<186 372 745 931> 748 187<372 745>
VStem: 0 186<4 562 748 935> 745 186<562 748>
LayerCount: 2
Fore
SplineSet
0 469 m 1xd8
 0 935 l 1
 93 935 l 1
 186 935 l 1xb8
 186 842 l 1
 186 748 l 1
 279 748 l 1
 372 748 l 1
 372 655 l 1
 372 562 l 1
 279 562 l 1
 186 562 l 1
 186 283 l 1
 186 4 l 1
 93 4 l 1
 0 4 l 1
 0 469 l 1xd8
745 748 m 1xd8
 559 748 l 1xb8
 372 748 l 1xd8
 372 842 l 1
 372 935 l 1
 559 935 l 1
 745 935 l 1xb8
 745 842 l 1
 745 748 l 1xd8
745 748 m 1xd8
 838 748 l 1
 931 748 l 1
 931 655 l 1
 931 562 l 1
 838 562 l 1
 745 562 l 1
 745 655 l 1
 745 748 l 1xd8
EndSplineSet
EndChar

StartChar: LATIN
Encoding: 115 115 84
Width: 1117
VWidth: 40
Flags: HW
HStem: 4 186<0 745> 190 186<745 931> 376 186<186 745> 562 186<0 186> 748 187<186 745>
VStem: 0 186<562 748> 186 559<376 562 748 935> 745 186<190 376>
LayerCount: 2
Fore
SplineSet
186 842 m 1x12
 186 935 l 1
 466 935 l 1
 745 935 l 1
 745 842 l 1
 745 748 l 1
 466 748 l 1x0a
 186 748 l 1x14
 186 842 l 1x12
745 190 m 1x81
 745 283 l 1x81
 745 376 l 1x42
 466 376 l 1
 186 376 l 1
 186 469 l 1x22
 186 562 l 1x24
 93 562 l 1
 0 562 l 1
 0 655 l 1
 0 748 l 1
 93 748 l 1
 186 748 l 1x14
 186 655 l 1
 186 562 l 1x24
 466 562 l 1
 745 562 l 1x22
 745 469 l 1
 745 376 l 1x42
 838 376 l 1
 931 376 l 1
 931 283 l 1
 931 190 l 1
 838 190 l 1x41
 745 190 l 1x81
745 190 m 1
 745 97 l 1
 745 4 l 1
 373 4 l 1
 0 4 l 1
 0 97 l 1
 0 190 l 1x85
 373 190 l 1
 745 190 l 1
EndSplineSet
EndChar

StartChar: LATIN
Encoding: 116 116 85
Width: 1117
VWidth: 40
Flags: HW
HStem: 4 186<372 745> 748 186<0 186 372 745> 1473 20G<186 372>
VStem: 186 186<190 748 934 1493>
LayerCount: 2
Fore
SplineSet
186 1214 m 1
 186 1493 l 1
 279 1493 l 1
 372 1493 l 1
 372 1214 l 1
 372 934 l 1
 559 934 l 1
 745 934 l 1
 745 841 l 1
 745 748 l 1
 559 748 l 1
 372 748 l 1
 372 469 l 1
 372 190 l 1
 279 190 l 1
 186 190 l 1
 186 469 l 1
 186 748 l 1
 93 748 l 1
 0 748 l 1
 0 841 l 1
 0 934 l 1
 93 934 l 1
 186 934 l 1
 186 1214 l 1
372 190 m 1
 559 190 l 1
 745 190 l 1
 745 97 l 1
 745 4 l 1
 559 4 l 1
 372 4 l 1
 372 97 l 1
 372 190 l 1
EndSplineSet
EndChar

StartChar: LATIN
Encoding: 117 117 86
Width: 1117
VWidth: 40
Flags: HW
HStem: 4 186<186 559> 190 186<559 745> 915 20G<0 186 745 931>
VStem: 0 186<190 935> 745 186<4 190 376 935>
LayerCount: 2
Fore
SplineSet
0 562 m 1x78
 0 935 l 1
 93 935 l 1
 186 935 l 1
 186 562 l 1
 186 190 l 1xb8
 93 190 l 1
 0 190 l 1
 0 562 l 1x78
559 190 m 1
 559 97 l 1
 559 4 l 1
 373 4 l 1
 186 4 l 1
 186 97 l 1
 186 190 l 1
 373 190 l 1
 559 190 l 1
559 190 m 1
 559 283 l 1
 559 376 l 1
 652 376 l 1
 745 376 l 1x78
 745 655 l 1
 745 935 l 1
 838 935 l 1
 931 935 l 1
 931 469 l 1
 931 4 l 1
 838 4 l 1
 745 4 l 1xb8
 745 97 l 1
 745 190 l 1
 652 190 l 1x78
 559 190 l 1
EndSplineSet
EndChar

StartChar: LATIN
Encoding: 118 118 87
Width: 1117
VWidth: 40
Flags: HW
HStem: 4 186<372 559> 190 372<186 372 559 745> 562 373<0 186 745 931>
VStem: 0 186<562 935> 186 186<190 562> 372 187<4 190> 559 186<190 562> 745 186<562 935>
LayerCount: 2
Fore
SplineSet
0 748 m 1x30
 0 935 l 1
 93 935 l 1
 186 935 l 1x30
 186 748 l 1
 186 562 l 1x50
 93 562 l 1
 0 562 l 1
 0 748 l 1x30
745 562 m 1x42
 745 376 l 1
 745 190 l 1
 652 190 l 1x42
 559 190 l 1
 559 97 l 1
 559 4 l 1
 466 4 l 1
 372 4 l 1
 372 97 l 1x84
 372 190 l 1x88
 279 190 l 1
 186 190 l 1
 186 376 l 1x48
 186 562 l 1x50
 279 562 l 1
 372 562 l 1x48
 372 376 l 1
 372 190 l 1x88
 466 190 l 1
 559 190 l 1x84
 559 376 l 1
 559 562 l 1
 652 562 l 1
 745 562 l 1x42
745 562 m 1
 745 748 l 1
 745 935 l 1
 838 935 l 1
 931 935 l 1
 931 748 l 1
 931 562 l 1
 838 562 l 1x21
 745 562 l 1
EndSplineSet
EndChar

StartChar: LATIN
Encoding: 119 119 88
Width: 1117
VWidth: 40
Flags: HW
HStem: 4 186<186 372 559 745> 915 20G<0 186 745 931>
VStem: 0 186<190 935> 186 186<4 190> 372 187<190 748> 559 186<4 190> 745 186<190 935>
LayerCount: 2
Fore
SplineSet
0 562 m 1xe0
 0 935 l 1
 93 935 l 1
 186 935 l 1
 186 562 l 1
 186 190 l 1
 93 190 l 1
 0 190 l 1
 0 562 l 1xe0
745 190 m 1xc4
 745 97 l 1
 745 4 l 1
 652 4 l 1
 559 4 l 1
 559 97 l 1xc4
 559 190 l 1xc8
 466 190 l 1
 372 190 l 1
 372 97 l 1
 372 4 l 1
 279 4 l 1
 186 4 l 1
 186 97 l 1xd0
 186 190 l 1xe0
 279 190 l 1
 372 190 l 1xd0
 372 469 l 1
 372 748 l 1
 466 748 l 1
 559 748 l 1
 559 469 l 1
 559 190 l 1xc8
 652 190 l 1
 745 190 l 1xc4
745 190 m 1
 745 562 l 1
 745 935 l 1
 838 935 l 1
 931 935 l 1
 931 562 l 1
 931 190 l 1xc2
 838 190 l 1
 745 190 l 1
EndSplineSet
EndChar

StartChar: LATIN
Encoding: 120 120 89
Width: 1117
VWidth: 40
Flags: HW
HStem: 4 186<0 186 745 931> 190 186<186 372 559 745> 376 186<372 559> 562 186<186 372 559 745> 748 187<0 186 745 931>
VStem: 0 186<4 190 748 935> 186 186<190 376 562 748> 372 187<376 562> 559 186<190 376 562 748> 745 186<4 190 748 935>
LayerCount: 2
Fore
SplineSet
0 842 m 1x0c
 0 935 l 1
 93 935 l 1
 186 935 l 1x0c
 186 842 l 1
 186 748 l 1x14
 93 748 l 1
 0 748 l 1
 0 842 l 1x0c
186 190 m 1x84
 186 283 l 1
 186 376 l 1
 279 376 l 1
 372 376 l 1x42
 372 469 l 1x41
 372 562 l 1x22
 279 562 l 1
 186 562 l 1
 186 655 l 1x12
 186 748 l 1x14
 279 748 l 1
 372 748 l 1x12
 372 655 l 1
 372 562 l 1x22
 466 562 l 1
 559 562 l 1x21
 559 469 l 1
 559 376 l 1x41
 466 376 l 1x21
 372 376 l 1
 372 283 l 1
 372 190 l 1
 279 190 l 1x42
 186 190 l 1x84
186 190 m 1x84
 186 97 l 1
 186 4 l 1
 93 4 l 1
 0 4 l 1
 0 97 l 1
 0 190 l 1
 93 190 l 1
 186 190 l 1x84
745 190 m 1x8080
 652 190 l 1
 559 190 l 1
 559 283 l 1x4080
 559 376 l 1x41
 652 376 l 1
 745 376 l 1x4080
 745 283 l 1
 745 190 l 1x8080
745 190 m 1x8080
 838 190 l 1
 931 190 l 1
 931 97 l 1
 931 4 l 1
 838 4 l 1
 745 4 l 1
 745 97 l 1x8040
 745 190 l 1x8080
745 748 m 1x1080
 745 655 l 1
 745 562 l 1
 652 562 l 1x1080
 559 562 l 1x21
 559 655 l 1
 559 748 l 1
 652 748 l 1
 745 748 l 1x1080
745 748 m 1
 745 842 l 1
 745 935 l 1
 838 935 l 1
 931 935 l 1
 931 842 l 1
 931 748 l 1
 838 748 l 1x0840
 745 748 l 1
EndSplineSet
EndChar

StartChar: LATIN
Encoding: 121 121 90
Width: 1117
VWidth: 40
Flags: HW
HStem: -369 186<186 745> 3 187<186 559> 190 186<559 745> 915 20G<0 186 745 931>
VStem: 0 186<190 935> 745 186<-183 190 376 935>
LayerCount: 2
Fore
SplineSet
0 562 m 1xbc
 0 935 l 1
 93 935 l 1
 186 935 l 1
 186 562 l 1
 186 190 l 1xdc
 93 190 l 1
 0 190 l 1
 0 562 l 1xbc
745 -183 m 1
 745 3 l 1xdc
 745 190 l 1
 652 190 l 1xbc
 559 190 l 1
 559 96 l 1
 559 3 l 1
 373 3 l 1
 186 3 l 1
 186 96 l 1
 186 190 l 1
 373 190 l 1
 559 190 l 1xdc
 559 283 l 1
 559 376 l 1
 652 376 l 1
 745 376 l 1
 745 655 l 1
 745 935 l 1
 838 935 l 1
 931 935 l 1
 931 376 l 1xbc
 931 -183 l 1
 838 -183 l 1
 745 -183 l 1
745 -183 m 1
 745 -276 l 1
 745 -369 l 1
 466 -369 l 1
 186 -369 l 1
 186 -276 l 1
 186 -183 l 1
 466 -183 l 1
 745 -183 l 1
EndSplineSet
EndChar

StartChar: LATIN
Encoding: 122 122 91
Width: 1117
VWidth: 40
Flags: HW
HStem: 4 186<0 186 372 931> 376 186<372 559> 748 187<0 559 745 931>
VStem: 186 186<190 376> 372 187<376 562> 559 186<562 748>
LayerCount: 2
Fore
SplineSet
0 842 m 1xe4
 0 935 l 1
 465 935 l 1
 931 935 l 1
 931 842 l 1
 931 748 l 1
 838 748 l 1
 745 748 l 1
 745 655 l 1
 745 562 l 1xe4
 652 562 l 1
 559 562 l 1xe8
 559 655 l 1
 559 748 l 1
 279 748 l 1
 0 748 l 1
 0 842 l 1xe4
372 376 m 1xf0
 372 469 l 1
 372 562 l 1
 466 562 l 1
 559 562 l 1
 559 469 l 1
 559 376 l 1xe8
 466 376 l 1
 372 376 l 1xf0
372 376 m 1xf0
 372 283 l 1
 372 190 l 1
 652 190 l 1
 931 190 l 1
 931 97 l 1
 931 4 l 1
 465 4 l 1
 0 4 l 1
 0 97 l 1
 0 190 l 1
 93 190 l 1
 186 190 l 1
 186 283 l 1
 186 376 l 1
 279 376 l 1
 372 376 l 1xf0
EndSplineSet
EndChar

StartChar: LEFT
Encoding: 123 123 92
Width: 1117
VWidth: 40
Flags: HW
HStem: -369 187<559 931> 562 186<0 372> 1473 20G<372 559> 1493 186<559 931>
VStem: 372 187<-182 562 748 1493> 559 372<-369 -182 1493 1679>
LayerCount: 2
Fore
SplineSet
559 1586 m 1xe4
 559 1679 l 1
 745 1679 l 1
 931 1679 l 1
 931 1586 l 1
 931 1493 l 1
 745 1493 l 1xd4
 559 1493 l 1xe8
 559 1586 l 1xe4
559 -182 m 1xe8
 466 -182 l 1
 372 -182 l 1
 372 190 l 1
 372 562 l 1
 186 562 l 1
 0 562 l 1
 0 655 l 1
 0 748 l 1
 186 748 l 1
 372 748 l 1
 372 1121 l 1
 372 1493 l 1
 466 1493 l 1
 559 1493 l 1
 559 1121 l 1
 559 748 l 1
 466 748 l 1
 372 748 l 1
 372 655 l 1
 372 562 l 1
 466 562 l 1
 559 562 l 1
 559 190 l 1
 559 -182 l 1xe8
559 -182 m 1
 745 -182 l 1
 931 -182 l 1
 931 -276 l 1
 931 -369 l 1
 745 -369 l 1
 559 -369 l 1
 559 -276 l 1xc4
 559 -182 l 1
EndSplineSet
EndChar

StartChar: VERTICAL
Encoding: 124 124 93
Width: 1117
VWidth: 80
Flags: HW
HStem: 1472 20G<372.363 558.546>
VStem: 372 186<-183.818 1491.82>
LayerCount: 2
Fore
SplineSet
372 654 m 1
 372 1492 l 1
 465 1492 l 1
 558 1492 l 1
 558 654 l 1
 558 -184 l 1
 465 -184 l 1
 372 -184 l 1
 372 654 l 1
EndSplineSet
EndChar

StartChar: RIGHT
Encoding: 125 125 94
Width: 1117
VWidth: 40
Flags: HW
HStem: -369 187<0 372> 562 186<559 931> 1473 20G<372 559> 1493 186<0 372>
VStem: 0 372<-369 -182 1493 1679> 372 187<-182 562 748 1493>
LayerCount: 2
Fore
SplineSet
0 1586 m 1xd8
 0 1679 l 1
 186 1679 l 1
 372 1679 l 1xd8
 372 1586 l 1
 372 1493 l 1xe8
 186 1493 l 1
 0 1493 l 1
 0 1586 l 1xd8
372 -182 m 1
 372 190 l 1
 372 562 l 1
 466 562 l 1
 559 562 l 1
 559 655 l 1
 559 748 l 1
 466 748 l 1
 372 748 l 1
 372 1121 l 1xe4
 372 1493 l 1xe8
 466 1493 l 1
 559 1493 l 1
 559 1121 l 1
 559 748 l 1
 745 748 l 1
 931 748 l 1
 931 655 l 1
 931 562 l 1
 745 562 l 1
 559 562 l 1
 559 190 l 1
 559 -182 l 1xe4
 466 -182 l 1
 372 -182 l 1
372 -182 m 1xc8
 372 -276 l 1
 372 -369 l 1
 186 -369 l 1
 0 -369 l 1
 0 -276 l 1
 0 -182 l 1
 186 -182 l 1
 372 -182 l 1xc8
EndSplineSet
EndChar

StartChar: TILDE
Encoding: 126 126 95
Width: 1117
VWidth: 40
Flags: HW
HStem: 376 186<559 745> 562 186<0 186 372 559 745 931> 748 187<186 372>
VStem: 0 186<562 748> 186 186<748 935> 372 187<562 748> 559 186<376 562> 745 186<562 748>
LayerCount: 2
Fore
SplineSet
186 842 m 1x48
 186 935 l 1
 279 935 l 1
 372 935 l 1x28
 372 842 l 1
 372 748 l 1x48
 279 748 l 1x28
 186 748 l 1x50
 186 842 l 1x48
186 748 m 1x50
 186 655 l 1
 186 562 l 1
 93 562 l 1
 0 562 l 1
 0 655 l 1
 0 748 l 1
 93 748 l 1
 186 748 l 1x50
745 562 m 1x82
 745 469 l 1
 745 376 l 1
 652 376 l 1
 559 376 l 1
 559 469 l 1x82
 559 562 l 1x84
 466 562 l 1
 372 562 l 1
 372 655 l 1x44
 372 748 l 1x48
 466 748 l 1
 559 748 l 1x44
 559 655 l 1
 559 562 l 1x84
 652 562 l 1
 745 562 l 1x82
745 562 m 1
 745 655 l 1
 745 748 l 1
 838 748 l 1
 931 748 l 1
 931 655 l 1
 931 562 l 1
 838 562 l 1x41
 745 562 l 1
EndSplineSet
EndChar

StartChar: INVERTED
Encoding: 161 161 97
Width: 1117
VWidth: 40
Flags: HW
HStem: 4 21G<372 559> 1307 186<372 559>
VStem: 372 187<4 1121 1307 1493>
LayerCount: 2
Fore
SplineSet
372 1400 m 1
 372 1493 l 1
 465 1493 l 1
 559 1493 l 1
 559 1400 l 1
 559 1307 l 1
 465 1307 l 1
 372 1307 l 1
 372 1400 l 1
372 562 m 1
 372 1121 l 1
 465 1121 l 1
 559 1121 l 1
 559 562 l 1
 559 4 l 1
 465 4 l 1
 372 4 l 1
 372 562 l 1
EndSplineSet
EndChar

StartChar: CENT
Encoding: 162 162 98
Width: 1117
VWidth: 40
Flags: HW
HStem: 3 187<186 372 559 931> 748 187<186 372 559 931>
VStem: 0 186<190 748> 372 187<-182 3 190 748 935 1121>
LayerCount: 2
Fore
SplineSet
372 469 m 1
 372 748 l 1
 279 748 l 1
 186 748 l 1
 186 469 l 1
 186 190 l 1
 279 190 l 1
 372 190 l 1
 372 469 l 1
372 1028 m 1
 372 1121 l 1
 466 1121 l 1
 559 1121 l 1
 559 1028 l 1
 559 935 l 1
 745 935 l 1
 931 935 l 1
 931 842 l 1
 931 748 l 1
 745 748 l 1
 559 748 l 1
 559 469 l 1
 559 190 l 1
 745 190 l 1
 931 190 l 1
 931 96 l 1
 931 3 l 1
 745 3 l 1
 559 3 l 1
 559 -90 l 1
 559 -182 l 1
 466 -182 l 1
 372 -182 l 1
 372 -90 l 1
 372 3 l 1
 279 3 l 1
 186 3 l 1
 186 96 l 1
 186 190 l 1
 93 190 l 1
 0 190 l 1
 0 469 l 1
 0 748 l 1
 93 748 l 1
 186 748 l 1
 186 842 l 1
 186 935 l 1
 279 935 l 1
 372 935 l 1
 372 1028 l 1
EndSplineSet
EndChar

StartChar: POUND
Encoding: 163 163 99
Width: 1117
VWidth: 40
Flags: HW
HStem: 4 186<0 186 372 745> 190 186<745 931> 562 186<0 186 372 559> 1121 186<745 931> 1307 186<372 745>
VStem: 0 186<4 190> 186 186<190 562 748 1307> 372 373<4 190 1307 1493> 745 186<190 376 1121 1307>
LayerCount: 2
Fore
SplineSet
372 1400 m 1x29
 372 1493 l 1
 559 1493 l 1
 745 1493 l 1x29
 745 1400 l 1
 745 1307 l 1x31
 559 1307 l 1
 372 1307 l 1x2a
 372 1400 l 1x29
186 190 m 1xa4
 186 376 l 1
 186 562 l 1x62
 93 562 l 1
 0 562 l 1
 0 655 l 1
 0 748 l 1x64
 93 748 l 1
 186 748 l 1
 186 1028 l 1
 186 1307 l 1
 279 1307 l 1
 372 1307 l 1
 372 1028 l 1
 372 748 l 1
 466 748 l 1
 559 748 l 1
 559 655 l 1
 559 562 l 1
 466 562 l 1
 372 562 l 1
 372 376 l 1x6a
 372 190 l 1xa2
 279 190 l 1x62
 186 190 l 1xa4
186 190 m 1xa4
 186 97 l 1
 186 4 l 1
 93 4 l 1
 0 4 l 1
 0 97 l 1
 0 190 l 1
 93 190 l 1
 186 190 l 1xa4
745 190 m 1xa1
 745 97 l 1
 745 4 l 1
 559 4 l 1
 372 4 l 1
 372 97 l 1xa1
 372 190 l 1xa2
 559 190 l 1
 745 190 l 1xa1
745 190 m 1
 745 283 l 1
 745 376 l 1
 838 376 l 1
 931 376 l 1
 931 283 l 1
 931 190 l 1
 838 190 l 1x6080
 745 190 l 1
745 1307 m 1x31
 838 1307 l 1
 931 1307 l 1
 931 1214 l 1
 931 1121 l 1
 838 1121 l 1
 745 1121 l 1
 745 1214 l 1x3080
 745 1307 l 1x31
EndSplineSet
EndChar

StartChar: CURRENCY
Encoding: 164 164 100
Width: 1117
VWidth: 40
Flags: HW
HStem: 4 186<0 186 745 931> 190 186<372 559> 562 186<372 559> 748 187<0 186 745 931>
VStem: 0 186<4 190 748 935> 186 186<376 562> 559 186<376 562> 745 186<4 190 748 935>
LayerCount: 2
Fore
SplineSet
559 469 m 1x66
 559 562 l 1
 466 562 l 1
 372 562 l 1
 372 469 l 1
 372 376 l 1
 466 376 l 1
 559 376 l 1
 559 469 l 1x66
0 842 m 1x18
 0 935 l 1
 93 935 l 1
 186 935 l 1
 186 842 l 1
 186 748 l 1
 93 748 l 1
 0 748 l 1
 0 842 l 1x18
186 190 m 1x89
 186 469 l 1x84
 186 748 l 1x98
 466 748 l 1x28
 745 748 l 1x19
 745 469 l 1x12
 745 190 l 1x91
 466 190 l 1x41
 186 190 l 1x89
186 190 m 1x88
 186 97 l 1
 186 4 l 1
 93 4 l 1
 0 4 l 1
 0 97 l 1
 0 190 l 1
 93 190 l 1
 186 190 l 1x88
745 190 m 1x81
 838 190 l 1
 931 190 l 1
 931 97 l 1
 931 4 l 1
 838 4 l 1
 745 4 l 1
 745 97 l 1
 745 190 l 1x81
745 748 m 1x11
 745 842 l 1
 745 935 l 1
 838 935 l 1
 931 935 l 1
 931 842 l 1
 931 748 l 1
 838 748 l 1
 745 748 l 1x11
EndSplineSet
EndChar

StartChar: YEN
Encoding: 165 165 101
Width: 1117
VWidth: 40
Flags: HW
HStem: 190 186<0 372 559 931> 562 186<0 372 559 931> 934 187<186 372 559 745> 1121 372<0 186 745 931>
VStem: 0 186<1121 1493> 186 186<934 1121> 372 187<-182 190 376 562 748 934> 559 186<934 1121> 745 186<1121 1493>
LayerCount: 2
Fore
SplineSet
0 1307 m 1xd8
 0 1493 l 1
 93 1493 l 1
 186 1493 l 1xd8
 186 1307 l 1
 186 1121 l 1xe8
 93 1121 l 1
 0 1121 l 1
 0 1307 l 1xd8
745 1121 m 1xe1
 745 1028 l 1
 745 934 l 1xe1
 652 934 l 1
 559 934 l 1
 559 841 l 1
 559 748 l 1
 745 748 l 1
 931 748 l 1
 931 655 l 1
 931 562 l 1
 745 562 l 1
 559 562 l 1
 559 469 l 1
 559 376 l 1
 745 376 l 1
 931 376 l 1
 931 283 l 1
 931 190 l 1
 745 190 l 1
 559 190 l 1
 559 4 l 1
 559 -182 l 1
 466 -182 l 1
 372 -182 l 1
 372 4 l 1
 372 190 l 1xe280
 186 190 l 1xe4
 0 190 l 1
 0 283 l 1
 0 376 l 1xe8
 186 376 l 1xe4
 372 376 l 1
 372 469 l 1
 372 562 l 1xe2
 186 562 l 1xe4
 0 562 l 1
 0 655 l 1
 0 748 l 1xe8
 186 748 l 1xe4
 372 748 l 1
 372 841 l 1xe2
 372 934 l 1
 279 934 l 1
 186 934 l 1
 186 1028 l 1xe4
 186 1121 l 1xe8
 279 1121 l 1
 372 1121 l 1
 372 1028 l 1
 372 934 l 1xe4
 466 934 l 1
 559 934 l 1xe2
 559 1028 l 1
 559 1121 l 1
 652 1121 l 1
 745 1121 l 1xe1
745 1121 m 1
 745 1307 l 1
 745 1493 l 1
 838 1493 l 1
 931 1493 l 1
 931 1307 l 1
 931 1121 l 1
 838 1121 l 1xd080
 745 1121 l 1
EndSplineSet
EndChar

StartChar: BROKEN
Encoding: 166 166 102
Width: 1117
VWidth: 40
Flags: HW
HStem: 1473 20G<372 559>
VStem: 372 187<-182 562 748 1493>
LayerCount: 2
Fore
SplineSet
372 1121 m 1
 372 1493 l 1
 465 1493 l 1
 559 1493 l 1
 559 1121 l 1
 559 748 l 1
 465 748 l 1
 372 748 l 1
 372 1121 l 1
372 190 m 1
 372 562 l 1
 465 562 l 1
 559 562 l 1
 559 190 l 1
 559 -182 l 1
 465 -182 l 1
 372 -182 l 1
 372 190 l 1
EndSplineSet
EndChar

StartChar: SECTION
Encoding: 167 167 103
Width: 1117
VWidth: 40
Flags: HW
HStem: -182 185<186 745> 3 21G<745 931> 376 186<372 745> 748 186<372 745> 1287 20G<186 372> 1307 186<372 931>
VStem: 186 559<-182 3 748 934> 186 186<562 748 934 1307> 372 559<376 562 1307 1493> 745 186<3 376 562 748>
LayerCount: 2
Fore
SplineSet
372 1400 m 1x3880
 372 1493 l 1
 652 1493 l 1
 931 1493 l 1
 931 1400 l 1
 931 1307 l 1
 652 1307 l 1x3480
 372 1307 l 1x39
 372 1400 l 1x3880
372 562 m 1x31
 559 562 l 1
 745 562 l 1
 745 655 l 1x3140
 745 748 l 1x32
 559 748 l 1
 372 748 l 1
 372 655 l 1
 372 562 l 1x31
372 562 m 1
 279 562 l 1
 186 562 l 1xb1
 186 934 l 1xb2
 186 1307 l 1
 279 1307 l 1
 372 1307 l 1
 372 1121 l 1
 372 934 l 1xb9
 559 934 l 1
 745 934 l 1
 745 841 l 1
 745 748 l 1xba
 838 748 l 1
 931 748 l 1xb840
 931 376 l 1xb880
 931 3 l 1
 838 3 l 1x7840
 745 3 l 1xb2
 745 190 l 1
 745 376 l 1xb040
 559 376 l 1
 372 376 l 1
 372 469 l 1xb080
 372 562 l 1
745 3 m 1xb2
 745 -90 l 1
 745 -182 l 1
 466 -182 l 1
 186 -182 l 1
 186 -90 l 1
 186 3 l 1
 466 3 l 1
 745 3 l 1xb2
EndSplineSet
EndChar

StartChar: DIAERESIS
Encoding: 168 168 104
Width: 1117
VWidth: 40
Flags: HW
HStem: 1307 186<186 372 559 745>
VStem: 186 186<1307 1493> 559 186<1307 1493>
LayerCount: 2
Fore
SplineSet
186 1400 m 1
 186 1493 l 1
 279 1493 l 1
 372 1493 l 1
 372 1400 l 1
 372 1307 l 1
 279 1307 l 1
 186 1307 l 1
 186 1400 l 1
559 1400 m 1
 559 1493 l 1
 652 1493 l 1
 745 1493 l 1
 745 1400 l 1
 745 1307 l 1
 652 1307 l 1
 559 1307 l 1
 559 1400 l 1
EndSplineSet
EndChar

StartChar: COPYRIGHT
Encoding: 169 169 105
Width: 1117
VWidth: 40
Flags: HW
HStem: 4 186<186 745> 376 186<372 559> 562 186<186 372> 748 187<372 559> 1121 186<186 745>
VStem: 0 186<190 562 748 1121> 186 559<4 190 1121 1307> 372 187<376 562 748 935> 745 186<190 1121>
LayerCount: 2
Fore
SplineSet
186 1214 m 1xca
 186 1307 l 1
 466 1307 l 1
 745 1307 l 1
 745 1214 l 1
 745 1121 l 1xca
 466 1121 l 1
 186 1121 l 1
 186 934 l 1
 186 748 l 1
 279 748 l 1
 372 748 l 1xad
 372 655 l 1
 372 562 l 1xcd
 279 562 l 1
 186 562 l 1xad
 186 376 l 1
 186 190 l 1xcd
 466 190 l 1
 745 190 l 1xca
 745 655 l 1xc880
 745 1121 l 1xca
 838 1121 l 1
 931 1121 l 1
 931 655 l 1
 931 190 l 1xc880
 838 190 l 1
 745 190 l 1
 745 97 l 1
 745 4 l 1
 466 4 l 1
 186 4 l 1
 186 97 l 1xca
 186 190 l 1
 93 190 l 1
 0 190 l 1
 0 655 l 1
 0 1121 l 1
 93 1121 l 1
 186 1121 l 1xcc
 186 1214 l 1xca
372 841 m 1xa9
 372 935 l 1
 466 935 l 1
 559 935 l 1
 559 841 l 1
 559 748 l 1
 466 748 l 1x99
 372 748 l 1
 372 841 l 1xa9
372 562 m 1xc9
 466 562 l 1
 559 562 l 1
 559 469 l 1
 559 376 l 1
 466 376 l 1
 372 376 l 1
 372 469 l 1
 372 562 l 1xc9
EndSplineSet
EndChar

StartChar: FEMININE
Encoding: 170 170 106
Width: 1117
VWidth: 40
Flags: HW
HStem: 190 186<186 931> 562 186<372 559> 748 187<559 745> 1121 186<372 745>
VStem: 186 186<748 1121> 372 187<562 748> 745 186<562 748 935 1121>
LayerCount: 2
Fore
SplineSet
745 1028 m 1xb6
 745 1121 l 1
 559 1121 l 1xb6
 372 1121 l 1
 372 934 l 1
 372 748 l 1xda
 465 748 l 1
 559 748 l 1xd6
 559 841 l 1
 559 935 l 1
 652 935 l 1
 745 935 l 1
 745 1028 l 1xb6
372 1214 m 1
 372 1307 l 1
 652 1307 l 1
 931 1307 l 1
 931 934 l 1
 931 562 l 1
 838 562 l 1
 745 562 l 1xd6
 745 655 l 1
 745 748 l 1
 652 748 l 1xb6
 559 748 l 1
 559 655 l 1
 559 562 l 1
 465 562 l 1
 372 562 l 1
 372 655 l 1xd6
 372 748 l 1xda
 279 748 l 1
 186 748 l 1
 186 934 l 1
 186 1121 l 1
 279 1121 l 1
 372 1121 l 1xba
 372 1214 l 1
186 283 m 1x9a
 186 376 l 1x9a
 559 376 l 1
 931 376 l 1
 931 283 l 1
 931 190 l 1
 559 190 l 1x96
 186 190 l 1
 186 283 l 1x9a
EndSplineSet
EndChar

StartChar: LEFT-POINTING
Encoding: 171 171 107
Width: 1117
VWidth: 40
Flags: HW
HStem: 190 186<372 559 931 1117> 376 186<186 372 745 931> 562 186<0 186 559 745> 748 187<186 372 745 931> 935 186<372 559 931 1117>
VStem: 0 186<562 748> 186 186<376 562 748 935> 372 187<190 376 935 1121> 559 186<562 748> 745 186<376 562 748 935> 931 186<190 376 935 1121>
LayerCount: 2
Fore
SplineSet
372 1028 m 1x11
 372 1121 l 1
 466 1121 l 1
 559 1121 l 1
 559 1028 l 1
 559 935 l 1
 466 935 l 1x09
 372 935 l 1x12
 372 1028 l 1x11
931 1028 m 1x1020
 931 1121 l 1
 1024 1121 l 1
 1117 1121 l 1
 1117 1028 l 1
 1117 935 l 1
 1024 935 l 1x0820
 931 935 l 1x1040
 931 1028 l 1x1020
372 376 m 1x82
 279 376 l 1
 186 376 l 1
 186 469 l 1x42
 186 562 l 1x44
 93 562 l 1
 0 562 l 1
 0 655 l 1
 0 748 l 1
 93 748 l 1
 186 748 l 1x24
 186 842 l 1
 186 935 l 1
 279 935 l 1
 372 935 l 1
 372 842 l 1
 372 748 l 1
 279 748 l 1x12
 186 748 l 1x24
 186 655 l 1
 186 562 l 1x44
 279 562 l 1
 372 562 l 1x42
 372 469 l 1
 372 376 l 1x82
372 376 m 1x82
 466 376 l 1
 559 376 l 1
 559 283 l 1
 559 190 l 1
 466 190 l 1
 372 190 l 1
 372 283 l 1x81
 372 376 l 1x82
931 376 m 1x8040
 838 376 l 1
 745 376 l 1
 745 469 l 1x4040
 745 562 l 1x4080
 652 562 l 1
 559 562 l 1
 559 655 l 1
 559 748 l 1
 652 748 l 1
 745 748 l 1x2080
 745 842 l 1
 745 935 l 1
 838 935 l 1
 931 935 l 1
 931 842 l 1
 931 748 l 1
 838 748 l 1x1040
 745 748 l 1x2080
 745 655 l 1
 745 562 l 1x4080
 838 562 l 1
 931 562 l 1x4040
 931 469 l 1
 931 376 l 1x8040
931 376 m 1x8040
 1024 376 l 1
 1117 376 l 1
 1117 283 l 1
 1117 190 l 1
 1024 190 l 1
 931 190 l 1
 931 283 l 1x8020
 931 376 l 1x8040
EndSplineSet
EndChar

StartChar: NOT
Encoding: 172 172 108
Width: 1117
VWidth: 40
Flags: HW
HStem: 562 186<186 745>
VStem: 745 186<376 562>
LayerCount: 2
Fore
SplineSet
186 655 m 1
 186 748 l 1
 559 748 l 1
 931 748 l 1
 931 562 l 1
 931 376 l 1
 838 376 l 1
 745 376 l 1
 745 469 l 1
 745 562 l 1
 466 562 l 1
 186 562 l 1
 186 655 l 1
EndSplineSet
EndChar

StartChar: SOFT
Encoding: 173 173 109
Width: 1117
VWidth: 80
Flags: HW
HStem: 561 186<186.182 930.909>
LayerCount: 2
Fore
SplineSet
186 654 m 1
 186 747 l 1
 559 747 l 1
 931 747 l 1
 931 654 l 1
 931 561 l 1
 559 561 l 1
 186 561 l 1
 186 654 l 1
EndSplineSet
EndChar

StartChar: REGISTERED
Encoding: 174 174 110
Width: 1117
VWidth: 40
Flags: HW
HStem: 4 186<186 745> 748 187<372 559> 1121 186<186 745>
VStem: 0 372<376 748> 0 186<190 376 935 1121> 186 559<4 190 1121 1307> 745 186<190 1121>
LayerCount: 2
Fore
SplineSet
186 1214 m 1xe4
 186 1307 l 1
 466 1307 l 1
 745 1307 l 1
 745 1214 l 1
 745 1121 l 1xe4
 466 1121 l 1
 186 1121 l 1
 186 1028 l 1
 186 935 l 1xe8
 373 935 l 1
 559 935 l 1
 559 841 l 1
 559 748 l 1
 466 748 l 1
 372 748 l 1
 372 562 l 1
 372 376 l 1xf0
 279 376 l 1
 186 376 l 1
 186 283 l 1
 186 190 l 1xe8
 466 190 l 1
 745 190 l 1xe4
 745 655 l 1xe2
 745 1121 l 1xe4
 838 1121 l 1
 931 1121 l 1
 931 655 l 1
 931 190 l 1xe2
 838 190 l 1
 745 190 l 1
 745 97 l 1
 745 4 l 1
 466 4 l 1
 186 4 l 1
 186 97 l 1xe4
 186 190 l 1
 93 190 l 1
 0 190 l 1xe8
 0 655 l 1xf0
 0 1121 l 1
 93 1121 l 1
 186 1121 l 1xe8
 186 1214 l 1xe4
EndSplineSet
EndChar

StartChar: MACRON
Encoding: 175 175 111
Width: 1117
VWidth: 80
Flags: HW
HStem: 1306 186<0 930.909>
LayerCount: 2
Fore
SplineSet
0 1399 m 1
 0 1492 l 1
 465 1492 l 1
 931 1492 l 1
 931 1399 l 1
 931 1306 l 1
 465 1306 l 1
 0 1306 l 1
 0 1399 l 1
EndSplineSet
EndChar

StartChar: DEGREE
Encoding: 176 176 112
Width: 1117
VWidth: 40
Flags: HW
HStem: 748 187<372 559> 935 186<186 372 559 745> 1121 186<372 559>
VStem: 186 186<935 1121> 372 187<748 935 1121 1307> 559 186<935 1121>
LayerCount: 2
Fore
SplineSet
372 1214 m 1x48
 372 1307 l 1
 465 1307 l 1
 559 1307 l 1x28
 559 1214 l 1
 559 1121 l 1x48
 465 1121 l 1x28
 372 1121 l 1x50
 372 1028 l 1
 372 935 l 1x90
 465 935 l 1
 559 935 l 1x88
 559 1028 l 1x84
 559 1121 l 1x48
 652 1121 l 1
 745 1121 l 1
 745 1028 l 1
 745 935 l 1
 652 935 l 1x44
 559 935 l 1
 559 842 l 1
 559 748 l 1
 465 748 l 1
 372 748 l 1
 372 842 l 1x88
 372 935 l 1x90
 279 935 l 1
 186 935 l 1
 186 1028 l 1
 186 1121 l 1
 279 1121 l 1
 372 1121 l 1x50
 372 1214 l 1x48
EndSplineSet
EndChar

StartChar: PLUS-MINUS
Encoding: 177 177 113
Width: 1117
VWidth: 40
Flags: HW
HStem: 4 186<0 372 559 931> 562 186<0 372 559 931>
VStem: 372 187<190 562 748 1121>
LayerCount: 2
Fore
SplineSet
372 935 m 1
 372 1121 l 1
 466 1121 l 1
 559 1121 l 1
 559 935 l 1
 559 748 l 1
 745 748 l 1
 931 748 l 1
 931 655 l 1
 931 562 l 1
 745 562 l 1
 559 562 l 1
 559 376 l 1
 559 190 l 1
 745 190 l 1
 931 190 l 1
 931 97 l 1
 931 4 l 1
 465 4 l 1
 0 4 l 1
 0 97 l 1
 0 190 l 1
 186 190 l 1
 372 190 l 1
 372 376 l 1
 372 562 l 1
 186 562 l 1
 0 562 l 1
 0 655 l 1
 0 748 l 1
 186 748 l 1
 372 748 l 1
 372 935 l 1
EndSplineSet
EndChar

StartChar: SUPERSCRIPT
Encoding: 178 178 114
Width: 1117
VWidth: 40
Flags: HW
HStem: 562 186<186 372 559 931> 914 20G<372 559> 934 187<559 745> 1121 186<186 372 745 931> 1307 186<372 745>
VStem: 186 186<1121 1307> 372 187<748 934> 559 186<934 1121> 745 186<1121 1307>
LayerCount: 2
Fore
SplineSet
372 1400 m 1x92
 372 1493 l 1x8a
 559 1493 l 1x89
 745 1493 l 1x8880
 745 1400 l 1
 745 1307 l 1x9080
 559 1307 l 1x89
 372 1307 l 1x95
 372 1400 l 1x92
372 1307 m 1x94
 372 1214 l 1
 372 1121 l 1
 279 1121 l 1
 186 1121 l 1
 186 1214 l 1
 186 1307 l 1
 279 1307 l 1
 372 1307 l 1x94
559 934 m 1xc2
 559 1028 l 1
 559 1121 l 1
 652 1121 l 1
 745 1121 l 1xa1
 745 1214 l 1
 745 1307 l 1
 838 1307 l 1
 931 1307 l 1
 931 1214 l 1
 931 1121 l 1
 838 1121 l 1x9080
 745 1121 l 1
 745 1028 l 1
 745 934 l 1
 652 934 l 1xa1
 559 934 l 1xc2
559 934 m 1xc2
 559 841 l 1
 559 748 l 1
 745 748 l 1
 931 748 l 1
 931 655 l 1
 931 562 l 1xc280
 559 562 l 1
 186 562 l 1
 186 655 l 1
 186 748 l 1xc5
 279 748 l 1
 372 748 l 1
 372 841 l 1
 372 934 l 1
 465 934 l 1
 559 934 l 1xc2
EndSplineSet
EndChar

StartChar: SUPERSCRIPT
Encoding: 179 179 115
Width: 1117
VWidth: 40
Flags: HW
HStem: 562 186<186 745> 748 186<745 931> 934 187<372 745> 1121 186<745 931> 1307 186<186 745>
VStem: 186 559<562 748 1307 1493> 745 186<748 934 1121 1307>
LayerCount: 2
Fore
SplineSet
186 1400 m 1x0c
 186 1493 l 1
 466 1493 l 1
 745 1493 l 1x0c
 745 1400 l 1
 745 1307 l 1x14
 466 1307 l 1
 186 1307 l 1
 186 1400 l 1x0c
745 748 m 1x84
 745 841 l 1
 745 934 l 1x42
 559 934 l 1
 372 934 l 1
 372 1028 l 1
 372 1121 l 1
 559 1121 l 1
 745 1121 l 1
 745 1214 l 1x22
 745 1307 l 1x14
 838 1307 l 1
 931 1307 l 1
 931 1214 l 1
 931 1121 l 1
 838 1121 l 1x12
 745 1121 l 1x22
 745 1028 l 1
 745 934 l 1
 838 934 l 1
 931 934 l 1
 931 841 l 1
 931 748 l 1
 838 748 l 1x42
 745 748 l 1x84
745 748 m 1x84
 745 655 l 1
 745 562 l 1
 466 562 l 1
 186 562 l 1
 186 655 l 1
 186 748 l 1
 466 748 l 1
 745 748 l 1x84
EndSplineSet
EndChar

StartChar: ACUTE
Encoding: 180 180 116
Width: 1117
VWidth: 40
Flags: HW
HStem: 1121 186<372 559> 1307 186<559 745>
VStem: 372 187<1121 1307> 559 186<1307 1493>
LayerCount: 2
Fore
SplineSet
559 1400 m 1x90
 559 1493 l 1
 652 1493 l 1
 745 1493 l 1
 745 1400 l 1
 745 1307 l 1
 652 1307 l 1x50
 559 1307 l 1xa0
 559 1400 l 1x90
559 1307 m 1xa0
 559 1214 l 1
 559 1121 l 1
 465 1121 l 1
 372 1121 l 1
 372 1214 l 1
 372 1307 l 1
 465 1307 l 1
 559 1307 l 1xa0
EndSplineSet
EndChar

StartChar: MICRO
Encoding: 181 181 117
Width: 1117
VWidth: 40
Flags: HW
HStem: 3 187<372 745> 190 186<186 372> 915 20G<0 186 745 931>
VStem: 0 186<-182 190 376 935> 745 186<190 935>
LayerCount: 2
Fore
SplineSet
0 376 m 1x78
 0 935 l 1
 93 935 l 1
 186 935 l 1
 186 655 l 1
 186 376 l 1
 279 376 l 1
 372 376 l 1x78
 372 283 l 1
 372 190 l 1xb8
 279 190 l 1
 186 190 l 1
 186 4 l 1
 186 -182 l 1
 93 -182 l 1
 0 -182 l 1
 0 376 l 1x78
745 190 m 1xb8
 745 96 l 1
 745 3 l 1
 559 3 l 1
 372 3 l 1
 372 96 l 1
 372 190 l 1
 559 190 l 1
 745 190 l 1xb8
745 190 m 1
 745 562 l 1
 745 935 l 1
 838 935 l 1
 931 935 l 1
 931 562 l 1
 931 190 l 1
 838 190 l 1x78
 745 190 l 1
EndSplineSet
EndChar

StartChar: PILCROW
Encoding: 182 182 118
Width: 1117
VWidth: 40
Flags: HW
HStem: 4 21G<372 559 745 931> 1121 186<559 745>
VStem: 0 559<748 1121> 372 187<4 562> 745 186<4 1121>
LayerCount: 2
Fore
SplineSet
186 1214 m 1xe8
 186 1307 l 1
 559 1307 l 1xd8
 931 1307 l 1
 931 655 l 1
 931 4 l 1
 838 4 l 1
 745 4 l 1
 745 562 l 1
 745 1121 l 1
 652 1121 l 1
 559 1121 l 1xe8
 559 562 l 1
 559 4 l 1
 466 4 l 1
 372 4 l 1
 372 283 l 1
 372 562 l 1xd8
 279 562 l 1
 186 562 l 1
 186 655 l 1
 186 748 l 1
 93 748 l 1
 0 748 l 1
 0 934 l 1
 0 1121 l 1
 93 1121 l 1
 186 1121 l 1
 186 1214 l 1xe8
EndSplineSet
EndChar

StartChar: MIDDLE
Encoding: 183 183 119
Width: 1117
VWidth: 80
Flags: HW
HStem: 561 186<372.363 558.546>
VStem: 372 186<560.909 747.091>
LayerCount: 2
Fore
SplineSet
372 654 m 1
 372 747 l 1
 465 747 l 1
 558 747 l 1
 558 654 l 1
 558 561 l 1
 465 561 l 1
 372 561 l 1
 372 654 l 1
EndSplineSet
EndChar

StartChar: CEDILLA
Encoding: 184 184 120
Width: 1117
VWidth: 40
Flags: HW
HStem: -369 187<372 559> -182 186<559 745>
VStem: 372 187<-369 -182> 559 186<-182 4>
LayerCount: 2
Fore
SplineSet
559 -89 m 1x90
 559 4 l 1
 652 4 l 1
 745 4 l 1
 745 -89 l 1
 745 -182 l 1
 652 -182 l 1x50
 559 -182 l 1xa0
 559 -89 l 1x90
559 -182 m 1xa0
 559 -276 l 1
 559 -369 l 1
 465 -369 l 1
 372 -369 l 1
 372 -276 l 1
 372 -182 l 1
 465 -182 l 1
 559 -182 l 1xa0
EndSplineSet
EndChar

StartChar: SUPERSCRIPT
Encoding: 185 185 121
Width: 1117
VWidth: 40
Flags: HW
HStem: 562 186<186 372 559 745> 1121 186<186 372> 1473 20G<372 559>
VStem: 372 187<748 1121 1307 1493>
LayerCount: 2
Fore
SplineSet
372 1400 m 1
 372 1493 l 1
 465 1493 l 1
 559 1493 l 1
 559 1121 l 1
 559 748 l 1
 652 748 l 1
 745 748 l 1
 745 655 l 1
 745 562 l 1
 465 562 l 1
 186 562 l 1
 186 655 l 1
 186 748 l 1
 279 748 l 1
 372 748 l 1
 372 934 l 1
 372 1121 l 1
 279 1121 l 1
 186 1121 l 1
 186 1214 l 1
 186 1307 l 1
 279 1307 l 1
 372 1307 l 1
 372 1400 l 1
EndSplineSet
EndChar

StartChar: MASCULINE
Encoding: 186 186 122
Width: 1117
VWidth: 40
Flags: HW
HStem: 190 186<186 931> 562 186<372 745> 748 373<186 372 745 931> 1121 186<372 745>
VStem: 186 186<748 1121> 372 373<562 748 1121 1307> 745 186<748 1121>
LayerCount: 2
Fore
SplineSet
372 1214 m 1xa4
 372 1307 l 1
 559 1307 l 1
 745 1307 l 1x94
 745 1214 l 1
 745 1121 l 1xa4
 559 1121 l 1x94
 372 1121 l 1xa8
 372 934 l 1
 372 748 l 1xc8
 559 748 l 1
 745 748 l 1xc4
 745 934 l 1xc2
 745 1121 l 1xa4
 838 1121 l 1
 931 1121 l 1
 931 934 l 1
 931 748 l 1
 838 748 l 1xa2
 745 748 l 1
 745 655 l 1
 745 562 l 1
 559 562 l 1
 372 562 l 1
 372 655 l 1xc4
 372 748 l 1xc8
 279 748 l 1
 186 748 l 1
 186 934 l 1
 186 1121 l 1
 279 1121 l 1
 372 1121 l 1xa8
 372 1214 l 1xa4
186 283 m 1x8a
 186 376 l 1
 559 376 l 1
 931 376 l 1
 931 283 l 1
 931 190 l 1
 559 190 l 1
 186 190 l 1
 186 283 l 1x8a
EndSplineSet
EndChar

StartChar: RIGHT-POINTING
Encoding: 187 187 123
Width: 1117
VWidth: 40
Flags: HW
HStem: 190 186<0 186 559 745> 376 186<186 372 745 931> 562 186<372 559 931 1117> 748 187<186 372 745 931> 935 186<0 186 559 745>
VStem: 0 186<190 376 935 1121> 186 186<376 562 748 935> 372 187<562 748> 559 186<190 376 935 1121> 745 186<376 562 748 935> 931 186<562 748>
LayerCount: 2
Fore
SplineSet
0 1028 m 1x0c
 0 1121 l 1
 93 1121 l 1
 186 1121 l 1x0c
 186 1028 l 1
 186 935 l 1x14
 93 935 l 1
 0 935 l 1
 0 1028 l 1x0c
559 1028 m 1x0880
 559 1121 l 1
 652 1121 l 1
 745 1121 l 1x0880
 745 1028 l 1
 745 935 l 1x1080
 652 935 l 1
 559 935 l 1
 559 1028 l 1x0880
186 376 m 1x84
 186 469 l 1
 186 562 l 1
 279 562 l 1
 372 562 l 1x42
 372 655 l 1x41
 372 748 l 1x22
 279 748 l 1
 186 748 l 1
 186 842 l 1x12
 186 935 l 1x14
 279 935 l 1
 372 935 l 1x12
 372 842 l 1
 372 748 l 1x22
 466 748 l 1
 559 748 l 1
 559 655 l 1
 559 562 l 1
 466 562 l 1x21
 372 562 l 1
 372 469 l 1
 372 376 l 1
 279 376 l 1x42
 186 376 l 1x84
186 376 m 1x84
 186 283 l 1
 186 190 l 1
 93 190 l 1
 0 190 l 1
 0 283 l 1
 0 376 l 1
 93 376 l 1
 186 376 l 1x84
745 376 m 1x8080
 745 469 l 1
 745 562 l 1
 838 562 l 1
 931 562 l 1x4040
 931 655 l 1x4020
 931 748 l 1x2040
 838 748 l 1
 745 748 l 1
 745 842 l 1x1040
 745 935 l 1x1080
 838 935 l 1
 931 935 l 1x1040
 931 842 l 1
 931 748 l 1x2040
 1024 748 l 1
 1117 748 l 1
 1117 655 l 1
 1117 562 l 1
 1024 562 l 1x2020
 931 562 l 1
 931 469 l 1
 931 376 l 1
 838 376 l 1x4040
 745 376 l 1x8080
745 376 m 1x8080
 745 283 l 1
 745 190 l 1
 652 190 l 1
 559 190 l 1
 559 283 l 1
 559 376 l 1
 652 376 l 1
 745 376 l 1x8080
EndSplineSet
EndChar

StartChar: VULGAR
Encoding: 188 188 124
Width: 1117
VWidth: 40
Flags: HW
HStem: 3 187<372 559 745 931> 376 186<745 931> 562 186<0 186 372 559> 1121 186<0 186> 1473 20G<186 372>
VStem: 186 186<748 1121 1307 1493> 559 186<190 376> 931 186<-182 3 190 376 562 748>
LayerCount: 2
Fore
SplineSet
186 1400 m 1xbf
 186 1493 l 1
 279 1493 l 1
 372 1493 l 1
 372 1121 l 1
 372 748 l 1
 466 748 l 1
 559 748 l 1
 559 655 l 1
 559 562 l 1
 279 562 l 1
 0 562 l 1
 0 655 l 1
 0 748 l 1
 93 748 l 1
 186 748 l 1
 186 934 l 1
 186 1121 l 1
 93 1121 l 1
 0 1121 l 1
 0 1214 l 1
 0 1307 l 1
 93 1307 l 1
 186 1307 l 1
 186 1400 l 1xbf
931 283 m 1
 931 376 l 1
 838 376 l 1
 745 376 l 1xdf
 745 283 l 1
 745 190 l 1
 838 190 l 1
 931 190 l 1
 931 283 l 1
931 655 m 1
 931 748 l 1
 1024 748 l 1
 1117 748 l 1xbf
 1117 283 l 1
 1117 -182 l 1
 1024 -182 l 1
 931 -182 l 1
 931 -90 l 1
 931 3 l 1
 652 3 l 1
 372 3 l 1
 372 96 l 1
 372 190 l 1
 466 190 l 1
 559 190 l 1
 559 283 l 1
 559 376 l 1
 652 376 l 1
 745 376 l 1
 745 469 l 1
 745 562 l 1
 838 562 l 1
 931 562 l 1
 931 655 l 1
EndSplineSet
EndChar

StartChar: VULGAR
Encoding: 189 189 125
Width: 1117
VWidth: 40
Flags: HW
HStem: -182 185<559 745 931 1117> 376 186<559 745> 562 186<0 186 372 559 745 931> 1121 186<0 186> 1473 20G<186 372>
VStem: 186 186<748 1121 1307 1493> 559 186<376 562> 745 186<3 190 562 748> 931 186<190 562>
LayerCount: 2
Fore
SplineSet
186 1400 m 1xbe
 186 1493 l 1
 279 1493 l 1
 372 1493 l 1
 372 1121 l 1
 372 748 l 1
 466 748 l 1
 559 748 l 1xbe
 559 655 l 1
 559 562 l 1xde
 279 562 l 1
 0 562 l 1
 0 655 l 1
 0 748 l 1
 93 748 l 1
 186 748 l 1
 186 934 l 1
 186 1121 l 1
 93 1121 l 1
 0 1121 l 1
 0 1214 l 1
 0 1307 l 1
 93 1307 l 1
 186 1307 l 1
 186 1400 l 1xbe
931 190 m 1xdd
 931 376 l 1xdc80
 931 562 l 1
 838 562 l 1xbd
 745 562 l 1
 745 469 l 1
 745 376 l 1
 652 376 l 1
 559 376 l 1
 559 469 l 1
 559 562 l 1
 652 562 l 1
 745 562 l 1xde
 745 655 l 1
 745 748 l 1
 838 748 l 1
 931 748 l 1
 931 655 l 1
 931 562 l 1xbd
 1024 562 l 1
 1117 562 l 1xbc80
 1117 376 l 1
 1117 190 l 1xdc80
 1024 190 l 1
 931 190 l 1xdd
931 190 m 1x9d
 931 96 l 1
 931 3 l 1x9d
 1024 3 l 1
 1117 3 l 1
 1117 -90 l 1
 1117 -182 l 1
 838 -182 l 1
 559 -182 l 1
 559 -90 l 1
 559 3 l 1x9e80
 652 3 l 1
 745 3 l 1
 745 96 l 1
 745 190 l 1
 838 190 l 1
 931 190 l 1x9d
EndSplineSet
EndChar

StartChar: VULGAR
Encoding: 190 190 126
Width: 1117
VWidth: 40
Flags: HW
HStem: 3 187<186 372 559 745> 376 186<559 745> 562 186<0 372> 748 186<372 559> 934 187<186 372> 1121 186<372 559> 1307 186<0 372>
VStem: 0 372<562 748 1307 1493> 186 186<934 1121> 372 187<190 376 748 934 1121 1307> 745 186<-182 3 190 376 562 748>
LayerCount: 2
Fore
SplineSet
0 1400 m 1x8320
 0 1493 l 1x8320
 186 1493 l 1x82a0
 372 1493 l 1x8320
 372 1400 l 1
 372 1307 l 1x8520
 186 1307 l 1x82a0
 0 1307 l 1
 0 1400 l 1x8320
745 283 m 1
 745 376 l 1
 652 376 l 1
 559 376 l 1
 559 283 l 1
 559 190 l 1xc060
 652 190 l 1
 745 190 l 1
 745 283 l 1
745 655 m 1
 745 748 l 1
 838 748 l 1
 931 748 l 1
 931 283 l 1
 931 -182 l 1
 838 -182 l 1
 745 -182 l 1
 745 -90 l 1
 745 3 l 1
 466 3 l 1
 186 3 l 1
 186 96 l 1
 186 190 l 1xd0a0
 279 190 l 1
 372 190 l 1
 372 283 l 1
 372 376 l 1
 466 376 l 1
 559 376 l 1
 559 469 l 1
 559 562 l 1
 652 562 l 1
 745 562 l 1
 745 655 l 1
372 748 m 1xa120
 372 841 l 1xa060
 372 934 l 1x90a0
 279 934 l 1
 186 934 l 1
 186 1028 l 1
 186 1121 l 1
 279 1121 l 1
 372 1121 l 1x88a0
 372 1214 l 1x8860
 372 1307 l 1x8520
 466 1307 l 1
 559 1307 l 1
 559 1214 l 1
 559 1121 l 1
 466 1121 l 1x8460
 372 1121 l 1x88a0
 372 1028 l 1
 372 934 l 1x90a0
 466 934 l 1
 559 934 l 1
 559 841 l 1
 559 748 l 1
 466 748 l 1x9060
 372 748 l 1xa120
372 748 m 1xa120
 372 655 l 1
 372 562 l 1xa120
 186 562 l 1xa0a0
 0 562 l 1
 0 655 l 1
 0 748 l 1xa120
 186 748 l 1xa0a0
 372 748 l 1xa120
EndSplineSet
EndChar

StartChar: INVERTED
Encoding: 191 191 127
Width: 1117
VWidth: 40
Flags: HW
HStem: 4 186<186 745> 190 186<745 931> 562 186<186 372> 748 187<372 559> 1121 186<372 559>
VStem: 0 186<190 562> 186 186<562 748> 372 187<748 935 1121 1307> 745 186<190 376>
LayerCount: 2
Fore
SplineSet
372 1214 m 1x0980
 372 1307 l 1
 466 1307 l 1
 559 1307 l 1
 559 1214 l 1
 559 1121 l 1
 466 1121 l 1
 372 1121 l 1
 372 1214 l 1x0980
372 841 m 1
 372 935 l 1
 466 935 l 1
 559 935 l 1
 559 841 l 1
 559 748 l 1
 466 748 l 1x1980
 372 748 l 1x2a80
 372 841 l 1
745 190 m 1x8c80
 745 97 l 1
 745 4 l 1
 466 4 l 1
 186 4 l 1
 186 97 l 1x8a80
 186 190 l 1x8c80
 93 190 l 1
 0 190 l 1
 0 376 l 1
 0 562 l 1
 93 562 l 1
 186 562 l 1x6c80
 186 655 l 1
 186 748 l 1
 279 748 l 1
 372 748 l 1
 372 655 l 1
 372 562 l 1x6a80
 279 562 l 1
 186 562 l 1
 186 376 l 1x6c80
 186 190 l 1
 466 190 l 1
 745 190 l 1x8c80
745 190 m 1
 745 283 l 1
 745 376 l 1
 838 376 l 1
 931 376 l 1
 931 283 l 1
 931 190 l 1
 838 190 l 1x4880
 745 190 l 1
EndSplineSet
EndChar

StartChar: LATIN
Encoding: 192 192 128
Width: 1117
VWidth: 40
Flags: HW
HStem: 4 21G<0 186 745 931> 562 186<186 745> 1120 187<186 372 559 745> 1473 20G<372 559> 1493 186<186 372>
VStem: 0 186<4 562 748 1120> 186 186<1493 1679> 372 187<1307 1493> 745 186<4 562 748 1120>
LayerCount: 2
Fore
SplineSet
186 1586 m 1xea80
 186 1679 l 1
 279 1679 l 1
 372 1679 l 1xea80
 372 1586 l 1
 372 1493 l 1xf280
 279 1493 l 1
 186 1493 l 1
 186 1586 l 1xea80
186 1120 m 1xe480
 186 934 l 1
 186 748 l 1
 466 748 l 1
 745 748 l 1
 745 934 l 1
 745 1120 l 1
 466 1120 l 1
 186 1120 l 1xe480
186 1120 m 1
 186 1214 l 1
 186 1307 l 1xf280
 279 1307 l 1
 372 1307 l 1
 372 1400 l 1xf180
 372 1493 l 1xf280
 466 1493 l 1
 559 1493 l 1
 559 1400 l 1
 559 1307 l 1xf180
 652 1307 l 1
 745 1307 l 1
 745 1214 l 1
 745 1120 l 1
 838 1120 l 1
 931 1120 l 1
 931 562 l 1
 931 4 l 1
 838 4 l 1
 745 4 l 1
 745 283 l 1
 745 562 l 1
 466 562 l 1
 186 562 l 1
 186 283 l 1
 186 4 l 1
 93 4 l 1
 0 4 l 1
 0 562 l 1
 0 1120 l 1
 93 1120 l 1
 186 1120 l 1
EndSplineSet
EndChar

StartChar: LATIN
Encoding: 193 193 129
Width: 1117
VWidth: 40
Flags: HW
HStem: 4 21G<0 186 745 931> 562 186<186 745> 1120 187<186 372 559 745> 1473 20G<372 559> 1493 186<559 745>
VStem: 0 186<4 562 748 1120> 372 187<1307 1493> 559 186<1493 1679> 745 186<4 562 748 1120>
LayerCount: 2
Fore
SplineSet
559 1586 m 1xf5
 559 1679 l 1
 652 1679 l 1
 745 1679 l 1
 745 1586 l 1
 745 1493 l 1
 652 1493 l 1xed
 559 1493 l 1xf6
 559 1586 l 1xf5
186 1120 m 1
 186 934 l 1
 186 748 l 1
 466 748 l 1
 745 748 l 1
 745 934 l 1
 745 1120 l 1xe480
 466 1120 l 1
 186 1120 l 1
186 1120 m 1
 186 1214 l 1
 186 1307 l 1
 279 1307 l 1
 372 1307 l 1
 372 1400 l 1
 372 1493 l 1
 466 1493 l 1
 559 1493 l 1
 559 1400 l 1
 559 1307 l 1xf680
 652 1307 l 1
 745 1307 l 1
 745 1214 l 1
 745 1120 l 1
 838 1120 l 1
 931 1120 l 1
 931 562 l 1
 931 4 l 1
 838 4 l 1
 745 4 l 1
 745 283 l 1
 745 562 l 1
 466 562 l 1
 186 562 l 1
 186 283 l 1
 186 4 l 1
 93 4 l 1
 0 4 l 1
 0 562 l 1
 0 1120 l 1
 93 1120 l 1
 186 1120 l 1
EndSplineSet
EndChar

StartChar: LATIN
Encoding: 194 194 130
Width: 1117
VWidth: 40
Flags: HW
HStem: 4 21G<0 186 745 931> 376 186<186 745> 914 20G<745 931> 934 186<186 745> 1307 186<186 372 559 745> 1493 186<372 559>
VStem: 0 186<4 376 562 934> 186 186<1307 1493> 372 187<1493 1679> 559 186<1307 1493> 745 186<4 376 562 934>
LayerCount: 2
Fore
SplineSet
372 1586 m 1xc880
 372 1679 l 1
 466 1679 l 1
 559 1679 l 1xc480
 559 1586 l 1
 559 1493 l 1xc880
 466 1493 l 1xc480
 372 1493 l 1xc9
 372 1586 l 1xc880
186 1027 m 1xd1
 186 1120 l 1
 466 1120 l 1
 745 1120 l 1xd120
 745 1027 l 1
 745 934 l 1xe120
 466 934 l 1
 186 934 l 1xd220
 186 748 l 1
 186 562 l 1
 466 562 l 1
 745 562 l 1
 745 748 l 1
 745 934 l 1
 838 934 l 1
 931 934 l 1xe220
 931 469 l 1
 931 4 l 1
 838 4 l 1
 745 4 l 1
 745 190 l 1
 745 376 l 1
 466 376 l 1
 186 376 l 1
 186 190 l 1
 186 4 l 1
 93 4 l 1
 0 4 l 1
 0 469 l 1
 0 934 l 1
 93 934 l 1
 186 934 l 1xd220
 186 1027 l 1xd1
372 1493 m 1xc9
 372 1400 l 1
 372 1307 l 1
 279 1307 l 1
 186 1307 l 1
 186 1400 l 1
 186 1493 l 1
 279 1493 l 1
 372 1493 l 1xc9
559 1493 m 1xc880
 652 1493 l 1
 745 1493 l 1
 745 1400 l 1
 745 1307 l 1
 652 1307 l 1
 559 1307 l 1
 559 1400 l 1xc840
 559 1493 l 1xc880
EndSplineSet
EndChar

StartChar: LATIN
Encoding: 195 195 131
Width: 1117
VWidth: 40
Flags: HW
HStem: 4 21G<0 186 745 931> 376 186<186 745> 914 20G<745 931> 934 186<186 745> 1307 186<0 186 559 745> 1493 186<186 372 745 931>
VStem: 0 186<4 376 562 934 1307 1493> 745 186<4 376 562 934 1493 1679>
LayerCount: 2
Fore
SplineSet
186 1586 m 1xcb
 186 1679 l 1
 373 1679 l 1
 559 1679 l 1xc7
 559 1586 l 1
 559 1493 l 1
 652 1493 l 1
 745 1493 l 1
 745 1400 l 1
 745 1307 l 1
 559 1307 l 1
 372 1307 l 1xcb
 372 1400 l 1
 372 1493 l 1
 279 1493 l 1xc7
 186 1493 l 1
 186 1586 l 1xcb
186 1027 m 1
 186 1120 l 1
 466 1120 l 1
 745 1120 l 1xd3
 745 1027 l 1
 745 934 l 1xe3
 466 934 l 1
 186 934 l 1xd3
 186 748 l 1
 186 562 l 1
 466 562 l 1
 745 562 l 1
 745 748 l 1
 745 934 l 1
 838 934 l 1
 931 934 l 1xe3
 931 469 l 1
 931 4 l 1
 838 4 l 1
 745 4 l 1
 745 190 l 1
 745 376 l 1
 466 376 l 1
 186 376 l 1
 186 190 l 1
 186 4 l 1
 93 4 l 1
 0 4 l 1
 0 469 l 1
 0 934 l 1
 93 934 l 1
 186 934 l 1xd3
 186 1027 l 1
186 1493 m 1xcb
 186 1400 l 1
 186 1307 l 1
 93 1307 l 1
 0 1307 l 1
 0 1400 l 1
 0 1493 l 1
 93 1493 l 1
 186 1493 l 1xcb
745 1493 m 1
 745 1586 l 1
 745 1679 l 1
 838 1679 l 1
 931 1679 l 1
 931 1586 l 1
 931 1493 l 1
 838 1493 l 1xc7
 745 1493 l 1
EndSplineSet
EndChar

StartChar: LATIN
Encoding: 196 196 132
Width: 1117
VWidth: 40
Flags: HW
HStem: 4 21G<0 186 745 931> 562 186<186 745> 1120 187<186 745> 1493 186<186 372 559 745>
VStem: 0 186<4 562 748 1120> 186 186<1493 1679> 559 186<1493 1679> 745 186<4 562 748 1120>
LayerCount: 2
Fore
SplineSet
186 1586 m 1xf4
 186 1679 l 1
 279 1679 l 1
 372 1679 l 1
 372 1586 l 1
 372 1493 l 1
 279 1493 l 1
 186 1493 l 1
 186 1586 l 1xf4
559 1586 m 1xf2
 559 1679 l 1
 652 1679 l 1
 745 1679 l 1
 745 1586 l 1
 745 1493 l 1
 652 1493 l 1
 559 1493 l 1
 559 1586 l 1xf2
186 1214 m 1xf4
 186 1307 l 1xf4
 466 1307 l 1
 745 1307 l 1
 745 1214 l 1
 745 1120 l 1
 466 1120 l 1
 186 1120 l 1
 186 934 l 1
 186 748 l 1
 466 748 l 1
 745 748 l 1
 745 934 l 1
 745 1120 l 1
 838 1120 l 1
 931 1120 l 1
 931 562 l 1
 931 4 l 1
 838 4 l 1
 745 4 l 1
 745 283 l 1
 745 562 l 1
 466 562 l 1
 186 562 l 1
 186 283 l 1
 186 4 l 1
 93 4 l 1
 0 4 l 1
 0 562 l 1
 0 1120 l 1
 93 1120 l 1
 186 1120 l 1xf9
 186 1214 l 1xf4
EndSplineSet
EndChar

StartChar: LATIN
Encoding: 197 197 133
Width: 1117
VWidth: 40
Flags: HW
HStem: 4 21G<0 186 745 931> 376 186<186 745> 914 20G<745 931> 934 186<186 372 559 745> 1307 186<186 372 559 745> 1493 186<372 559>
VStem: 0 186<4 376 562 934> 186 186<1307 1493> 372 187<1120 1307 1493 1679> 559 186<1307 1493> 745 186<4 376 562 934>
LayerCount: 2
Fore
SplineSet
372 1586 m 1xd880
 372 1679 l 1
 466 1679 l 1
 559 1679 l 1xc480
 559 1586 l 1
 559 1493 l 1xc880
 466 1493 l 1xc480
 372 1493 l 1
 372 1400 l 1
 372 1307 l 1xc9
 466 1307 l 1
 559 1307 l 1xc880
 559 1400 l 1xc840
 559 1493 l 1xc880
 652 1493 l 1
 745 1493 l 1
 745 1400 l 1
 745 1307 l 1xc840
 652 1307 l 1
 559 1307 l 1
 559 1214 l 1
 559 1120 l 1
 652 1120 l 1
 745 1120 l 1xd8a0
 745 1027 l 1
 745 934 l 1xe0a0
 466 934 l 1
 186 934 l 1xd2a0
 186 748 l 1
 186 562 l 1
 466 562 l 1
 745 562 l 1
 745 748 l 1
 745 934 l 1
 838 934 l 1
 931 934 l 1xe2a0
 931 469 l 1
 931 4 l 1
 838 4 l 1
 745 4 l 1
 745 190 l 1
 745 376 l 1
 466 376 l 1
 186 376 l 1
 186 190 l 1
 186 4 l 1
 93 4 l 1
 0 4 l 1
 0 469 l 1
 0 934 l 1
 93 934 l 1
 186 934 l 1xd2a0
 186 1027 l 1
 186 1120 l 1xd1
 279 1120 l 1
 372 1120 l 1
 372 1214 l 1xd080
 372 1307 l 1
 279 1307 l 1
 186 1307 l 1
 186 1400 l 1
 186 1493 l 1
 279 1493 l 1
 372 1493 l 1xd9
 372 1586 l 1xd880
EndSplineSet
EndChar

StartChar: LATIN
Encoding: 198 198 134
Width: 1117
VWidth: 40
Flags: HW
HStem: 4 186<559 931> 562 186<186 372 559 745> 1121 186<186 372 559 931>
VStem: 0 186<4 562 748 1121> 372 187<190 562 748 1121>
LayerCount: 2
Fore
SplineSet
372 934 m 1
 372 1121 l 1
 279 1121 l 1
 186 1121 l 1
 186 934 l 1
 186 748 l 1
 279 748 l 1
 372 748 l 1
 372 934 l 1
186 1214 m 1
 186 1307 l 1
 559 1307 l 1
 931 1307 l 1
 931 1214 l 1
 931 1121 l 1
 745 1121 l 1
 559 1121 l 1
 559 934 l 1
 559 748 l 1
 652 748 l 1
 745 748 l 1
 745 655 l 1
 745 562 l 1
 652 562 l 1
 559 562 l 1
 559 376 l 1
 559 190 l 1
 745 190 l 1
 931 190 l 1
 931 97 l 1
 931 4 l 1
 652 4 l 1
 372 4 l 1
 372 283 l 1
 372 562 l 1
 279 562 l 1
 186 562 l 1
 186 283 l 1
 186 4 l 1
 93 4 l 1
 0 4 l 1
 0 562 l 1
 0 1121 l 1
 93 1121 l 1
 186 1121 l 1
 186 1214 l 1
EndSplineSet
EndChar

StartChar: LATIN
Encoding: 199 199 135
Width: 1117
VWidth: 40
Flags: HW
HStem: -369 186<186 372> 3 187<186 372 559 745> 190 186<745 931> 935 186<745 931> 1121 186<186 745>
VStem: 0 186<190 1121> 186 559<3 190 1121 1307> 186 186<-369 -183> 372 187<-183 3> 745 186<190 376 935 1121>
LayerCount: 2
Fore
SplineSet
186 1214 m 1x8a
 186 1307 l 1
 466 1307 l 1
 745 1307 l 1x8a
 745 1214 l 1
 745 1121 l 1x92
 466 1121 l 1
 186 1121 l 1x8c
 186 1214 l 1x8a
372 -183 m 1xc1
 372 -90 l 1
 372 3 l 1xc080
 279 3 l 1
 186 3 l 1
 186 96 l 1xc2
 186 190 l 1xc4
 93 190 l 1
 0 190 l 1xa4
 0 655 l 1
 0 1121 l 1
 93 1121 l 1
 186 1121 l 1
 186 655 l 1
 186 190 l 1xcc
 466 190 l 1xa4
 745 190 l 1
 745 96 l 1
 745 3 l 1xc2
 652 3 l 1
 559 3 l 1
 559 -90 l 1
 559 -183 l 1xc080
 466 -183 l 1
 372 -183 l 1xc1
372 -183 m 1x81
 372 -276 l 1
 372 -369 l 1
 279 -369 l 1
 186 -369 l 1
 186 -276 l 1
 186 -183 l 1
 279 -183 l 1
 372 -183 l 1x81
745 190 m 1xc2
 745 283 l 1
 745 376 l 1
 838 376 l 1
 931 376 l 1
 931 283 l 1
 931 190 l 1
 838 190 l 1xa040
 745 190 l 1xc2
745 1121 m 1x92
 838 1121 l 1
 931 1121 l 1
 931 1028 l 1
 931 935 l 1
 838 935 l 1
 745 935 l 1
 745 1028 l 1x9040
 745 1121 l 1x92
EndSplineSet
EndChar

StartChar: LATIN
Encoding: 200 200 136
Width: 1117
VWidth: 40
Flags: HW
HStem: 4 186<186 931> 562 186<186 745> 1120 187<186 372 559 931> 1473 20G<372 559> 1493 186<186 372>
VStem: 0 186<190 562 748 1120> 186 186<1493 1679> 372 187<1307 1493>
LayerCount: 2
Fore
SplineSet
186 1586 m 1xea
 186 1679 l 1
 279 1679 l 1
 372 1679 l 1xea
 372 1586 l 1
 372 1493 l 1xf2
 279 1493 l 1
 186 1493 l 1
 186 1586 l 1xea
372 1493 m 1xf2
 466 1493 l 1
 559 1493 l 1
 559 1400 l 1
 559 1307 l 1
 745 1307 l 1
 931 1307 l 1
 931 1214 l 1
 931 1120 l 1
 559 1120 l 1
 186 1120 l 1
 186 934 l 1
 186 748 l 1
 466 748 l 1
 745 748 l 1
 745 655 l 1
 745 562 l 1
 466 562 l 1
 186 562 l 1
 186 376 l 1
 186 190 l 1
 559 190 l 1
 931 190 l 1
 931 97 l 1
 931 4 l 1
 465 4 l 1
 0 4 l 1
 0 655 l 1
 0 1307 l 1xf5
 186 1307 l 1xf2
 372 1307 l 1
 372 1400 l 1xf1
 372 1493 l 1xf2
EndSplineSet
EndChar

StartChar: LATIN
Encoding: 201 201 137
Width: 1117
VWidth: 40
Flags: HW
HStem: 4 186<186 931> 562 186<186 745> 1120 187<186 372 559 931> 1473 20G<372 559> 1493 186<559 745>
VStem: 0 186<190 562 748 1120> 372 187<1307 1493> 559 186<1493 1679>
LayerCount: 2
Fore
SplineSet
559 1586 m 1xf5
 559 1679 l 1
 652 1679 l 1
 745 1679 l 1
 745 1586 l 1
 745 1493 l 1
 652 1493 l 1xed
 559 1493 l 1xf6
 559 1586 l 1xf5
559 1493 m 1xf6
 559 1400 l 1
 559 1307 l 1xf6
 745 1307 l 1
 931 1307 l 1
 931 1214 l 1
 931 1120 l 1
 559 1120 l 1
 186 1120 l 1
 186 934 l 1
 186 748 l 1
 466 748 l 1
 745 748 l 1
 745 655 l 1
 745 562 l 1
 466 562 l 1
 186 562 l 1
 186 376 l 1
 186 190 l 1
 559 190 l 1xf5
 931 190 l 1
 931 97 l 1
 931 4 l 1
 465 4 l 1
 0 4 l 1
 0 655 l 1
 0 1307 l 1
 186 1307 l 1
 372 1307 l 1
 372 1400 l 1
 372 1493 l 1
 466 1493 l 1
 559 1493 l 1xf6
EndSplineSet
EndChar

StartChar: LATIN
Encoding: 202 202 138
Width: 1117
VWidth: 40
Flags: HW
HStem: 4 186<186 931> 562 186<186 745> 1120 373<186 372 559 745> 1120 187<372 559 745 931> 1493 186<372 559>
VStem: 0 186<190 562 748 1120> 186 186<1307 1493> 372 187<1493 1679> 559 186<1307 1493>
LayerCount: 2
Fore
SplineSet
372 1586 m 1xe1
 372 1679 l 1
 466 1679 l 1
 559 1679 l 1xc9
 559 1586 l 1
 559 1493 l 1xe1
 466 1493 l 1xc9
 372 1493 l 1xe2
 372 1400 l 1
 372 1307 l 1
 466 1307 l 1
 559 1307 l 1
 559 1400 l 1xd280
 559 1493 l 1xe1
 652 1493 l 1
 745 1493 l 1xe080
 745 1400 l 1
 745 1307 l 1
 838 1307 l 1
 931 1307 l 1
 931 1214 l 1
 931 1120 l 1xd080
 559 1120 l 1
 186 1120 l 1xe480
 186 934 l 1
 186 748 l 1
 466 748 l 1
 745 748 l 1
 745 655 l 1
 745 562 l 1
 466 562 l 1
 186 562 l 1
 186 376 l 1
 186 190 l 1
 559 190 l 1
 931 190 l 1
 931 97 l 1
 931 4 l 1
 465 4 l 1
 0 4 l 1
 0 655 l 1
 0 1307 l 1xd480
 93 1307 l 1
 186 1307 l 1xd2
 186 1400 l 1
 186 1493 l 1
 279 1493 l 1
 372 1493 l 1xe2
 372 1586 l 1xe1
EndSplineSet
EndChar

StartChar: LATIN
Encoding: 203 203 139
Width: 1117
VWidth: 40
Flags: HW
HStem: 4 186<186 931> 562 186<186 745> 1120 187<186 931> 1493 186<186 372 559 745>
VStem: 0 186<190 562 748 1120> 186 186<1493 1679> 559 186<1493 1679>
LayerCount: 2
Fore
SplineSet
186 1586 m 1xf6
 186 1679 l 1
 279 1679 l 1
 372 1679 l 1
 372 1586 l 1
 372 1493 l 1
 279 1493 l 1
 186 1493 l 1
 186 1586 l 1xf6
559 1586 m 1
 559 1679 l 1
 652 1679 l 1
 745 1679 l 1
 745 1586 l 1
 745 1493 l 1
 652 1493 l 1
 559 1493 l 1
 559 1586 l 1
0 655 m 1xfa
 0 1307 l 1
 465 1307 l 1
 931 1307 l 1
 931 1214 l 1
 931 1120 l 1
 559 1120 l 1
 186 1120 l 1
 186 934 l 1
 186 748 l 1
 466 748 l 1
 745 748 l 1
 745 655 l 1
 745 562 l 1
 466 562 l 1
 186 562 l 1
 186 376 l 1
 186 190 l 1
 559 190 l 1
 931 190 l 1
 931 97 l 1
 931 4 l 1
 465 4 l 1
 0 4 l 1
 0 655 l 1xfa
EndSplineSet
EndChar

StartChar: LATIN
Encoding: 204 204 140
Width: 1117
VWidth: 40
Flags: HW
HStem: 4 186<186 372 559 745> 934 186<186 372 559 745> 1307 186<559 745> 1493 186<372 559>
VStem: 186 559<4 190 934 1120> 372 187<190 934 1493 1679> 559 186<1307 1493>
LayerCount: 2
Fore
SplineSet
372 1586 m 1xd4
 372 1679 l 1
 465 1679 l 1
 559 1679 l 1xd4
 559 1586 l 1
 559 1493 l 1xe4
 465 1493 l 1
 372 1493 l 1
 372 1586 l 1xd4
186 1027 m 1xc8
 186 1120 l 1
 465 1120 l 1
 745 1120 l 1
 745 1027 l 1
 745 934 l 1xc8
 652 934 l 1
 559 934 l 1
 559 562 l 1
 559 190 l 1xc4
 652 190 l 1
 745 190 l 1
 745 97 l 1
 745 4 l 1
 465 4 l 1
 186 4 l 1
 186 97 l 1
 186 190 l 1xc8
 279 190 l 1
 372 190 l 1
 372 562 l 1
 372 934 l 1xc4
 279 934 l 1
 186 934 l 1
 186 1027 l 1xc8
559 1493 m 1xe4
 652 1493 l 1
 745 1493 l 1
 745 1400 l 1
 745 1307 l 1
 652 1307 l 1
 559 1307 l 1
 559 1400 l 1xe2
 559 1493 l 1xe4
EndSplineSet
EndChar

StartChar: LATIN
Encoding: 205 205 141
Width: 1117
VWidth: 40
Flags: HW
HStem: 4 186<186 372 559 745> 934 186<186 372 559 745> 1307 186<186 372> 1493 186<372 559>
VStem: 186 559<4 190 934 1120> 186 186<1307 1493> 372 187<190 934 1493 1679>
LayerCount: 2
Fore
SplineSet
372 1586 m 1xe2
 372 1679 l 1
 465 1679 l 1
 559 1679 l 1
 559 1586 l 1
 559 1493 l 1
 465 1493 l 1xd2
 372 1493 l 1xe4
 372 1586 l 1xe2
186 1027 m 1xc8
 186 1120 l 1
 465 1120 l 1
 745 1120 l 1
 745 1027 l 1
 745 934 l 1xc8
 652 934 l 1
 559 934 l 1
 559 562 l 1
 559 190 l 1xc2
 652 190 l 1
 745 190 l 1
 745 97 l 1
 745 4 l 1
 465 4 l 1
 186 4 l 1
 186 97 l 1
 186 190 l 1xc8
 279 190 l 1
 372 190 l 1
 372 562 l 1
 372 934 l 1xc2
 279 934 l 1
 186 934 l 1
 186 1027 l 1xc8
372 1493 m 1xe4
 372 1400 l 1
 372 1307 l 1
 279 1307 l 1
 186 1307 l 1
 186 1400 l 1
 186 1493 l 1
 279 1493 l 1
 372 1493 l 1xe4
EndSplineSet
EndChar

StartChar: LATIN
Encoding: 206 206 142
Width: 1117
VWidth: 40
Flags: HW
HStem: 4 186<186 372 559 745> 934 186<186 372 559 745> 1307 186<186 372 559 745> 1493 186<372 559>
VStem: 186 186<1307 1493> 372 187<190 934 1493 1679> 559 186<1307 1493>
LayerCount: 2
Fore
SplineSet
372 1586 m 1xe4
 372 1679 l 1
 465 1679 l 1
 559 1679 l 1xd4
 559 1586 l 1
 559 1493 l 1xe4
 465 1493 l 1xd4
 372 1493 l 1xe8
 372 1586 l 1xe4
186 1027 m 1xc8
 186 1120 l 1
 465 1120 l 1
 745 1120 l 1
 745 1027 l 1
 745 934 l 1xca
 652 934 l 1
 559 934 l 1
 559 562 l 1
 559 190 l 1xc4
 652 190 l 1
 745 190 l 1
 745 97 l 1
 745 4 l 1
 465 4 l 1
 186 4 l 1
 186 97 l 1
 186 190 l 1xca
 279 190 l 1
 372 190 l 1
 372 562 l 1
 372 934 l 1xc4
 279 934 l 1
 186 934 l 1
 186 1027 l 1xc8
372 1493 m 1xe8
 372 1400 l 1
 372 1307 l 1
 279 1307 l 1
 186 1307 l 1
 186 1400 l 1
 186 1493 l 1
 279 1493 l 1
 372 1493 l 1xe8
559 1493 m 1xe4
 652 1493 l 1
 745 1493 l 1
 745 1400 l 1
 745 1307 l 1
 652 1307 l 1
 559 1307 l 1
 559 1400 l 1xe2
 559 1493 l 1xe4
EndSplineSet
EndChar

StartChar: LATIN
Encoding: 207 207 143
Width: 1117
VWidth: 40
Flags: HW
HStem: 4 186<186 372 559 745> 1120 187<186 372 559 745> 1493 186<186 372 559 745>
VStem: 186 186<1493 1679> 372 187<190 1120> 559 186<1493 1679>
LayerCount: 2
Fore
SplineSet
186 1586 m 1xf0
 186 1679 l 1
 279 1679 l 1
 372 1679 l 1
 372 1586 l 1
 372 1493 l 1
 279 1493 l 1
 186 1493 l 1
 186 1586 l 1xf0
559 1586 m 1xe4
 559 1679 l 1
 652 1679 l 1
 745 1679 l 1
 745 1586 l 1
 745 1493 l 1
 652 1493 l 1
 559 1493 l 1
 559 1586 l 1xe4
186 1214 m 1xf0
 186 1307 l 1
 465 1307 l 1
 745 1307 l 1
 745 1214 l 1
 745 1120 l 1xf4
 652 1120 l 1
 559 1120 l 1
 559 655 l 1
 559 190 l 1xe8
 652 190 l 1
 745 190 l 1
 745 97 l 1
 745 4 l 1
 465 4 l 1
 186 4 l 1
 186 97 l 1
 186 190 l 1xf4
 279 190 l 1
 372 190 l 1
 372 655 l 1
 372 1120 l 1xe8
 279 1120 l 1
 186 1120 l 1
 186 1214 l 1xf0
EndSplineSet
EndChar

StartChar: LATIN
Encoding: 208 208 144
Width: 1117
VWidth: 40
Flags: HW
HStem: 4 186<372 745> 562 186<0 186 372 559> 1121 186<372 745>
VStem: 186 559<4 190 1121 1307> 186 186<190 562 748 1121> 745 186<190 1121>
LayerCount: 2
Fore
SplineSet
186 1028 m 1xe8
 186 1307 l 1
 466 1307 l 1
 745 1307 l 1
 745 1214 l 1
 745 1121 l 1xf0
 559 1121 l 1
 372 1121 l 1
 372 934 l 1
 372 748 l 1
 466 748 l 1
 559 748 l 1
 559 655 l 1
 559 562 l 1
 466 562 l 1
 372 562 l 1
 372 376 l 1
 372 190 l 1xe8
 559 190 l 1
 745 190 l 1xf0
 745 655 l 1xe4
 745 1121 l 1xf0
 838 1121 l 1
 931 1121 l 1
 931 655 l 1
 931 190 l 1xe4
 838 190 l 1
 745 190 l 1
 745 97 l 1
 745 4 l 1
 466 4 l 1
 186 4 l 1xf0
 186 283 l 1
 186 562 l 1
 93 562 l 1
 0 562 l 1
 0 655 l 1
 0 748 l 1
 93 748 l 1
 186 748 l 1
 186 1028 l 1xe8
EndSplineSet
EndChar

StartChar: LATIN
Encoding: 209 209 145
Width: 1117
VWidth: 40
Flags: HW
HStem: 4 21G<0 186 745 931> 562 186<559 745> 748 186<372 559> 934 186<186 372> 1307 186<559 745> 1493 186<186 372 745 931>
VStem: 0 186<4 934 1120 1493> 372 187<748 934> 745 186<4 562 748 1307 1493 1679>
CounterMasks: 1 0380
LayerCount: 2
Fore
SplineSet
372 1400 m 1xcb80
 372 1493 l 1
 279 1493 l 1
 186 1493 l 1x8780
 186 1307 l 1
 186 1120 l 1
 279 1120 l 1
 372 1120 l 1x9b80
 372 1027 l 1
 372 934 l 1
 466 934 l 1
 559 934 l 1xa380
 559 841 l 1
 559 748 l 1
 652 748 l 1
 745 748 l 1
 745 1028 l 1
 745 1307 l 1
 559 1307 l 1
 372 1307 l 1
 372 1400 l 1xcb80
186 1586 m 1
 186 1679 l 1
 373 1679 l 1
 559 1679 l 1xa780
 559 1586 l 1
 559 1493 l 1
 652 1493 l 1
 745 1493 l 1
 745 1400 l 1
 745 1307 l 1
 838 1307 l 1
 931 1307 l 1
 931 655 l 1
 931 4 l 1
 838 4 l 1
 745 4 l 1
 745 283 l 1
 745 562 l 1
 652 562 l 1
 559 562 l 1
 559 655 l 1
 559 748 l 1xcb80
 466 748 l 1
 372 748 l 1
 372 841 l 1
 372 934 l 1xa380
 279 934 l 1
 186 934 l 1x9380
 186 469 l 1
 186 4 l 1
 93 4 l 1
 0 4 l 1
 0 748 l 1xa380
 0 1493 l 1
 93 1493 l 1
 186 1493 l 1
 186 1586 l 1
745 1493 m 1x8b80
 745 1586 l 1
 745 1679 l 1
 838 1679 l 1
 931 1679 l 1
 931 1586 l 1
 931 1493 l 1
 838 1493 l 1x8780
 745 1493 l 1x8b80
EndSplineSet
EndChar

StartChar: LATIN
Encoding: 210 210 146
Width: 1117
VWidth: 40
Flags: HW
HStem: 4 186<186 745> 1120 187<186 372 559 745> 1473 20G<372 559> 1493 186<186 372>
VStem: 0 186<190 1120> 186 559<4 190 1120 1307> 186 186<1493 1679> 372 187<1307 1493> 745 186<190 1120>
LayerCount: 2
Fore
SplineSet
186 1586 m 1xd2
 186 1679 l 1
 279 1679 l 1
 372 1679 l 1xd2
 372 1586 l 1
 372 1493 l 1xe2
 279 1493 l 1
 186 1493 l 1
 186 1586 l 1xd2
186 1120 m 1xc8
 186 655 l 1
 186 190 l 1xc8
 466 190 l 1
 745 190 l 1xc4
 745 655 l 1xc080
 745 1120 l 1xc4
 466 1120 l 1
 186 1120 l 1xc8
186 1120 m 1
 186 1214 l 1
 186 1307 l 1xe4
 279 1307 l 1
 372 1307 l 1
 372 1400 l 1xe1
 372 1493 l 1xe2
 466 1493 l 1
 559 1493 l 1
 559 1400 l 1
 559 1307 l 1xe1
 652 1307 l 1
 745 1307 l 1
 745 1214 l 1
 745 1120 l 1xe4
 838 1120 l 1
 931 1120 l 1
 931 655 l 1
 931 190 l 1xe080
 838 190 l 1
 745 190 l 1
 745 97 l 1
 745 4 l 1
 466 4 l 1
 186 4 l 1
 186 97 l 1xe4
 186 190 l 1
 93 190 l 1
 0 190 l 1
 0 655 l 1
 0 1120 l 1
 93 1120 l 1
 186 1120 l 1
EndSplineSet
EndChar

StartChar: LATIN
Encoding: 211 211 147
Width: 1117
VWidth: 40
Flags: HW
HStem: 4 186<186 745> 1120 187<186 372 559 745> 1473 20G<372 559> 1493 186<559 745>
VStem: 0 186<190 1120> 186 559<4 190 1120 1307> 372 187<1307 1493> 559 186<1493 1679> 745 186<190 1120>
LayerCount: 2
Fore
SplineSet
559 1586 m 1xe1
 559 1679 l 1
 652 1679 l 1
 745 1679 l 1
 745 1586 l 1
 745 1493 l 1
 652 1493 l 1xd1
 559 1493 l 1xe2
 559 1586 l 1xe1
186 1120 m 1xc8
 186 655 l 1
 186 190 l 1xc8
 466 190 l 1
 745 190 l 1xc4
 745 655 l 1xc080
 745 1120 l 1xc4
 466 1120 l 1
 186 1120 l 1xc8
186 1120 m 1
 186 1214 l 1
 186 1307 l 1xe4
 279 1307 l 1
 372 1307 l 1
 372 1400 l 1
 372 1493 l 1
 466 1493 l 1
 559 1493 l 1
 559 1400 l 1
 559 1307 l 1xe2
 652 1307 l 1
 745 1307 l 1
 745 1214 l 1
 745 1120 l 1xe4
 838 1120 l 1
 931 1120 l 1
 931 655 l 1
 931 190 l 1xe080
 838 190 l 1
 745 190 l 1
 745 97 l 1
 745 4 l 1
 466 4 l 1
 186 4 l 1
 186 97 l 1xe4
 186 190 l 1
 93 190 l 1
 0 190 l 1
 0 655 l 1
 0 1120 l 1
 93 1120 l 1
 186 1120 l 1
EndSplineSet
EndChar

StartChar: LATIN
Encoding: 212 212 148
Width: 1117
VWidth: 40
Flags: HW
HStem: 4 186<186 745> 914 20G<745 931> 934 186<186 745> 1307 186<186 372 559 745> 1493 186<372 559>
VStem: 0 186<190 934> 186 186<1307 1493> 372 187<1493 1679> 559 186<1307 1493> 745 186<190 934>
LayerCount: 2
Fore
SplineSet
372 1586 m 1x91
 372 1679 l 1
 466 1679 l 1
 559 1679 l 1x89
 559 1586 l 1
 559 1493 l 1x91
 466 1493 l 1x89
 372 1493 l 1x92
 372 1586 l 1x91
186 1027 m 1xa2
 186 1120 l 1
 466 1120 l 1
 745 1120 l 1xa240
 745 1027 l 1
 745 934 l 1xc240
 466 934 l 1
 186 934 l 1
 186 562 l 1
 186 190 l 1xa440
 466 190 l 1
 745 190 l 1
 745 562 l 1
 745 934 l 1
 838 934 l 1
 931 934 l 1
 931 562 l 1
 931 190 l 1
 838 190 l 1
 745 190 l 1
 745 97 l 1
 745 4 l 1
 466 4 l 1
 186 4 l 1
 186 97 l 1xc240
 186 190 l 1
 93 190 l 1
 0 190 l 1
 0 562 l 1
 0 934 l 1
 93 934 l 1
 186 934 l 1xa4
 186 1027 l 1xa2
372 1493 m 1x92
 372 1400 l 1
 372 1307 l 1
 279 1307 l 1
 186 1307 l 1
 186 1400 l 1
 186 1493 l 1
 279 1493 l 1
 372 1493 l 1x92
559 1493 m 1x91
 652 1493 l 1
 745 1493 l 1
 745 1400 l 1
 745 1307 l 1
 652 1307 l 1
 559 1307 l 1
 559 1400 l 1x9080
 559 1493 l 1x91
EndSplineSet
EndChar

StartChar: LATIN
Encoding: 213 213 149
Width: 1117
VWidth: 40
Flags: HW
HStem: 4 186<186 745> 1120 187<186 372> 1307 186<0 186> 1493 186<186 372 745 931>
VStem: 0 186<190 1120 1307 1493> 186 559<4 190 1120 1307> 745 186<190 1120 1493 1679>
LayerCount: 2
Fore
SplineSet
372 1400 m 1xc8
 372 1493 l 1
 279 1493 l 1xd8
 186 1493 l 1xa8
 186 1400 l 1
 186 1307 l 1
 279 1307 l 1
 372 1307 l 1
 372 1400 l 1xc8
186 1586 m 1xa4
 186 1679 l 1x94
 373 1679 l 1
 559 1679 l 1
 559 1586 l 1
 559 1493 l 1
 652 1493 l 1
 745 1493 l 1x92
 745 1307 l 1xa4
 745 1120 l 1xc4
 466 1120 l 1
 186 1120 l 1
 186 655 l 1
 186 190 l 1xc8
 466 190 l 1
 745 190 l 1xc4
 745 655 l 1xc2
 745 1120 l 1xc4
 838 1120 l 1
 931 1120 l 1
 931 655 l 1
 931 190 l 1xc2
 838 190 l 1
 745 190 l 1
 745 97 l 1
 745 4 l 1
 466 4 l 1
 186 4 l 1
 186 97 l 1xc4
 186 190 l 1
 93 190 l 1
 0 190 l 1
 0 655 l 1
 0 1120 l 1
 93 1120 l 1
 186 1120 l 1xc8
 186 1214 l 1xc4
 186 1307 l 1xc8
 93 1307 l 1
 0 1307 l 1
 0 1400 l 1
 0 1493 l 1
 93 1493 l 1
 186 1493 l 1xa8
 186 1586 l 1xa4
745 1493 m 1x92
 745 1586 l 1
 745 1679 l 1
 838 1679 l 1
 931 1679 l 1
 931 1586 l 1
 931 1493 l 1
 838 1493 l 1
 745 1493 l 1x92
EndSplineSet
EndChar

StartChar: LATIN
Encoding: 214 214 150
Width: 1117
VWidth: 40
Flags: HW
HStem: 4 186<186 745> 1120 187<186 745> 1493 186<186 372 559 745>
VStem: 0 186<190 1120> 186 186<1493 1679> 559 186<1493 1679> 745 186<190 1120>
LayerCount: 2
Fore
SplineSet
186 1586 m 1xe8
 186 1679 l 1
 279 1679 l 1
 372 1679 l 1
 372 1586 l 1
 372 1493 l 1
 279 1493 l 1
 186 1493 l 1
 186 1586 l 1xe8
559 1586 m 1xe4
 559 1679 l 1
 652 1679 l 1
 745 1679 l 1
 745 1586 l 1
 745 1493 l 1
 652 1493 l 1
 559 1493 l 1
 559 1586 l 1xe4
186 1214 m 1xe8
 186 1307 l 1xe8
 466 1307 l 1
 745 1307 l 1
 745 1214 l 1
 745 1120 l 1
 466 1120 l 1
 186 1120 l 1
 186 655 l 1
 186 190 l 1xf2
 466 190 l 1
 745 190 l 1
 745 655 l 1
 745 1120 l 1
 838 1120 l 1
 931 1120 l 1
 931 655 l 1
 931 190 l 1
 838 190 l 1
 745 190 l 1
 745 97 l 1
 745 4 l 1
 466 4 l 1
 186 4 l 1
 186 97 l 1xea
 186 190 l 1
 93 190 l 1
 0 190 l 1
 0 655 l 1
 0 1120 l 1
 93 1120 l 1
 186 1120 l 1xf0
 186 1214 l 1xe8
EndSplineSet
EndChar

StartChar: MULTIPLICATION
Encoding: 215 215 151
Width: 1117
VWidth: 40
Flags: HW
HStem: 190 186<0 186 745 931> 376 186<186 372 559 745> 562 186<372 559> 748 187<186 372 559 745> 935 186<0 186 745 931>
VStem: 0 186<190 376 935 1121> 186 186<376 562 748 935> 372 187<562 748> 559 186<376 562 748 935> 745 186<190 376 935 1121>
LayerCount: 2
Fore
SplineSet
0 1028 m 1x0c
 0 1121 l 1
 93 1121 l 1
 186 1121 l 1x0c
 186 1028 l 1
 186 935 l 1x14
 93 935 l 1
 0 935 l 1
 0 1028 l 1x0c
186 376 m 1x84
 186 469 l 1
 186 562 l 1
 279 562 l 1
 372 562 l 1x42
 372 655 l 1x41
 372 748 l 1x22
 279 748 l 1
 186 748 l 1
 186 842 l 1x12
 186 935 l 1x14
 279 935 l 1
 372 935 l 1x12
 372 842 l 1
 372 748 l 1x22
 466 748 l 1
 559 748 l 1x21
 559 655 l 1
 559 562 l 1x41
 466 562 l 1x21
 372 562 l 1
 372 469 l 1
 372 376 l 1
 279 376 l 1x42
 186 376 l 1x84
186 376 m 1x84
 186 283 l 1
 186 190 l 1
 93 190 l 1
 0 190 l 1
 0 283 l 1
 0 376 l 1
 93 376 l 1
 186 376 l 1x84
745 376 m 1x8080
 652 376 l 1
 559 376 l 1
 559 469 l 1x4080
 559 562 l 1x41
 652 562 l 1
 745 562 l 1x4080
 745 469 l 1
 745 376 l 1x8080
745 376 m 1x8080
 838 376 l 1
 931 376 l 1
 931 283 l 1
 931 190 l 1
 838 190 l 1
 745 190 l 1
 745 283 l 1x8040
 745 376 l 1x8080
745 935 m 1x1080
 745 842 l 1
 745 748 l 1
 652 748 l 1x1080
 559 748 l 1x21
 559 842 l 1
 559 935 l 1
 652 935 l 1
 745 935 l 1x1080
745 935 m 1
 745 1028 l 1
 745 1121 l 1
 838 1121 l 1
 931 1121 l 1
 931 1028 l 1
 931 935 l 1
 838 935 l 1x0840
 745 935 l 1
EndSplineSet
EndChar

StartChar: LATIN
Encoding: 216 216 152
Width: 1117
VWidth: 40
Flags: HW
HStem: 190 186<372 745> 562 186<372 559> 748 187<559 745> 1121 186<186 745 931 1117>
VStem: 0 186<562 1121> 372 187<562 748> 745 186<376 748 935 1121> 931 186<1121 1307>
LayerCount: 2
Fore
SplineSet
186 1214 m 1xbe
 186 1307 l 1
 466 1307 l 1
 745 1307 l 1
 745 1214 l 1
 745 1121 l 1
 466 1121 l 1
 186 1121 l 1
 186 841 l 1
 186 562 l 1
 279 562 l 1
 372 562 l 1
 372 469 l 1
 372 376 l 1
 559 376 l 1
 745 376 l 1
 745 562 l 1xde
 745 748 l 1
 652 748 l 1xbe
 559 748 l 1xde
 559 841 l 1
 559 935 l 1
 652 935 l 1
 745 935 l 1
 745 1028 l 1
 745 1121 l 1
 838 1121 l 1
 931 1121 l 1
 931 748 l 1
 931 376 l 1
 838 376 l 1
 745 376 l 1
 745 283 l 1
 745 190 l 1
 373 190 l 1
 0 190 l 1
 0 655 l 1
 0 1121 l 1
 93 1121 l 1
 186 1121 l 1
 186 1214 l 1xbe
372 655 m 1
 372 748 l 1
 466 748 l 1
 559 748 l 1
 559 655 l 1
 559 562 l 1
 466 562 l 1
 372 562 l 1
 372 655 l 1
931 1121 m 1
 931 1214 l 1
 931 1307 l 1
 1024 1307 l 1
 1117 1307 l 1
 1117 1214 l 1
 1117 1121 l 1x9d
 1024 1121 l 1
 931 1121 l 1
EndSplineSet
EndChar

StartChar: LATIN
Encoding: 217 217 153
Width: 1117
VWidth: 40
Flags: HW
HStem: 4 186<186 745> 1287 20G<0 186 745 931> 1307 186<372 559> 1493 186<186 372>
VStem: 0 186<190 1307> 186 186<1493 1679> 372 187<1307 1493> 745 186<190 1307>
LayerCount: 2
Fore
SplineSet
186 1586 m 1x95
 186 1679 l 1
 279 1679 l 1
 372 1679 l 1x95
 372 1586 l 1
 372 1493 l 1xa5
 279 1493 l 1
 186 1493 l 1
 186 1586 l 1x95
0 748 m 1xc9
 0 1307 l 1
 93 1307 l 1
 186 1307 l 1
 186 748 l 1
 186 190 l 1
 93 190 l 1
 0 190 l 1
 0 748 l 1xc9
372 1493 m 1xa5
 466 1493 l 1
 559 1493 l 1
 559 1400 l 1
 559 1307 l 1
 466 1307 l 1
 372 1307 l 1
 372 1400 l 1xa3
 372 1493 l 1xa5
745 190 m 1
 745 97 l 1
 745 4 l 1
 466 4 l 1
 186 4 l 1
 186 97 l 1x85
 186 190 l 1x89
 466 190 l 1
 745 190 l 1
745 190 m 1
 745 748 l 1
 745 1307 l 1
 838 1307 l 1
 931 1307 l 1xc1
 931 748 l 1
 931 190 l 1
 838 190 l 1
 745 190 l 1
EndSplineSet
EndChar

StartChar: LATIN
Encoding: 218 218 154
Width: 1117
VWidth: 40
Flags: HW
HStem: 4 186<186 745> 1287 20G<0 186 745 931> 1307 186<372 559> 1493 186<559 745>
VStem: 0 186<190 1307> 372 187<1307 1493> 559 186<1493 1679> 745 186<190 1307>
LayerCount: 2
Fore
SplineSet
559 1586 m 1xaa
 559 1679 l 1
 652 1679 l 1
 745 1679 l 1
 745 1586 l 1
 745 1493 l 1
 652 1493 l 1x9a
 559 1493 l 1xac
 559 1586 l 1xaa
0 748 m 1
 0 1307 l 1
 93 1307 l 1
 186 1307 l 1xc8
 186 748 l 1
 186 190 l 1
 93 190 l 1
 0 190 l 1
 0 748 l 1
559 1493 m 1xac
 559 1400 l 1
 559 1307 l 1
 466 1307 l 1
 372 1307 l 1
 372 1400 l 1
 372 1493 l 1
 466 1493 l 1
 559 1493 l 1xac
745 190 m 1x89
 745 97 l 1
 745 4 l 1
 466 4 l 1
 186 4 l 1
 186 97 l 1
 186 190 l 1
 466 190 l 1
 745 190 l 1x89
745 190 m 1
 745 748 l 1
 745 1307 l 1
 838 1307 l 1
 931 1307 l 1xc9
 931 748 l 1
 931 190 l 1
 838 190 l 1
 745 190 l 1
EndSplineSet
EndChar

StartChar: LATIN
Encoding: 219 219 155
Width: 1117
VWidth: 40
Flags: HW
HStem: 4 186<186 745> 1287 20G<0 186 745 931> 1307 186<372 559> 1493 186<559 745>
VStem: 0 186<190 1307> 372 187<1307 1493> 559 186<1493 1679> 745 186<190 1307>
LayerCount: 2
Fore
SplineSet
559 1586 m 1xaa
 559 1679 l 1
 652 1679 l 1
 745 1679 l 1
 745 1586 l 1
 745 1493 l 1
 652 1493 l 1x9a
 559 1493 l 1xac
 559 1586 l 1xaa
0 748 m 1
 0 1307 l 1
 93 1307 l 1
 186 1307 l 1xc8
 186 748 l 1
 186 190 l 1
 93 190 l 1
 0 190 l 1
 0 748 l 1
559 1493 m 1xac
 559 1400 l 1
 559 1307 l 1
 466 1307 l 1
 372 1307 l 1
 372 1400 l 1
 372 1493 l 1
 466 1493 l 1
 559 1493 l 1xac
745 190 m 1x89
 745 97 l 1
 745 4 l 1
 466 4 l 1
 186 4 l 1
 186 97 l 1
 186 190 l 1
 466 190 l 1
 745 190 l 1x89
745 190 m 1
 745 748 l 1
 745 1307 l 1
 838 1307 l 1
 931 1307 l 1xc9
 931 748 l 1
 931 190 l 1
 838 190 l 1
 745 190 l 1
EndSplineSet
EndChar

StartChar: LATIN
Encoding: 220 220 156
Width: 1117
VWidth: 40
Flags: HW
HStem: 4 186<186 745> 1287 20G<0 186 745 931> 1493 186<186 372 559 745>
VStem: 0 186<190 1307> 186 186<1493 1679> 559 186<1493 1679> 745 186<190 1307>
LayerCount: 2
Fore
SplineSet
186 1586 m 1xe8
 186 1679 l 1
 279 1679 l 1
 372 1679 l 1
 372 1586 l 1
 372 1493 l 1
 279 1493 l 1
 186 1493 l 1
 186 1586 l 1xe8
559 1586 m 1xe4
 559 1679 l 1
 652 1679 l 1
 745 1679 l 1
 745 1586 l 1
 745 1493 l 1
 652 1493 l 1
 559 1493 l 1
 559 1586 l 1xe4
0 748 m 1xf0
 0 1307 l 1
 93 1307 l 1
 186 1307 l 1
 186 748 l 1
 186 190 l 1
 93 190 l 1
 0 190 l 1
 0 748 l 1xf0
745 190 m 1xf2
 745 97 l 1
 745 4 l 1
 466 4 l 1
 186 4 l 1
 186 97 l 1xea
 186 190 l 1
 466 190 l 1
 745 190 l 1xf2
745 190 m 1
 745 748 l 1
 745 1307 l 1
 838 1307 l 1
 931 1307 l 1
 931 748 l 1
 931 190 l 1
 838 190 l 1
 745 190 l 1
EndSplineSet
EndChar

StartChar: LATIN
Encoding: 221 221 157
Width: 1117
VWidth: 40
Flags: HW
HStem: 4 21G<372 559> 562 186<186 372 559 745> 748 559<0 186 745 931> 1307 186<372 559> 1493 186<559 745>
VStem: 0 186<748 1307> 186 186<562 748> 372 187<4 562 1307 1493> 559 186<562 748 1493 1679> 745 186<748 1307>
LayerCount: 2
Fore
SplineSet
559 1586 m 1x9080
 559 1679 l 1
 652 1679 l 1
 745 1679 l 1
 745 1586 l 1
 745 1493 l 1
 652 1493 l 1x8880
 559 1493 l 1x91
 559 1586 l 1x9080
0 1028 m 1xa4
 0 1307 l 1
 93 1307 l 1
 186 1307 l 1xa4
 186 1028 l 1
 186 748 l 1xc4
 93 748 l 1
 0 748 l 1
 0 1028 l 1xa4
559 1493 m 1x91
 559 1400 l 1
 559 1307 l 1
 466 1307 l 1
 372 1307 l 1
 372 1400 l 1
 372 1493 l 1
 466 1493 l 1
 559 1493 l 1x91
745 748 m 1xc080
 745 655 l 1
 745 562 l 1xc080
 652 562 l 1
 559 562 l 1
 559 283 l 1
 559 4 l 1
 466 4 l 1
 372 4 l 1
 372 283 l 1xc1
 372 562 l 1
 279 562 l 1
 186 562 l 1
 186 655 l 1xc2
 186 748 l 1xc4
 279 748 l 1
 372 748 l 1
 372 655 l 1
 372 562 l 1xc2
 466 562 l 1
 559 562 l 1xc1
 559 655 l 1
 559 748 l 1
 652 748 l 1
 745 748 l 1xc080
745 748 m 1
 745 1028 l 1
 745 1307 l 1
 838 1307 l 1
 931 1307 l 1
 931 1028 l 1
 931 748 l 1
 838 748 l 1xa040
 745 748 l 1
EndSplineSet
EndChar

StartChar: LATIN
Encoding: 222 222 158
Width: 1117
VWidth: 40
Flags: HW
HStem: 4 21G<0 186> 376 186<186 745> 915 20G<745 931> 935 186<186 745> 1287 20G<0 186>
VStem: 0 186<4 376 562 935 1121 1307> 745 186<562 935>
LayerCount: 2
Fore
SplineSet
0 655 m 1xee
 0 1307 l 1
 93 1307 l 1
 186 1307 l 1
 186 1214 l 1
 186 1121 l 1
 466 1121 l 1
 745 1121 l 1xde
 745 1028 l 1
 745 935 l 1xee
 466 935 l 1
 186 935 l 1xde
 186 748 l 1
 186 562 l 1
 466 562 l 1
 745 562 l 1
 745 748 l 1
 745 935 l 1
 838 935 l 1
 931 935 l 1
 931 748 l 1
 931 562 l 1
 838 562 l 1
 745 562 l 1
 745 469 l 1
 745 376 l 1
 466 376 l 1
 186 376 l 1
 186 190 l 1
 186 4 l 1
 93 4 l 1
 0 4 l 1
 0 655 l 1xee
EndSplineSet
EndChar

StartChar: LATIN
Encoding: 223 223 159
Width: 1117
VWidth: 40
Flags: HW
HStem: 3 187<372 745> 1121 186<186 372> 1307 186<372 745>
VStem: 0 186<-182 1121> 186 186<1121 1307> 372 373<3 190 1307 1493> 559 186<562 934> 745 186<190 562 934 1307>
LayerCount: 2
Fore
SplineSet
372 1400 m 1xc4
 372 1493 l 1xa4
 559 1493 l 1xa2
 745 1493 l 1
 745 1400 l 1
 745 1307 l 1xa4
 559 1307 l 1xa2
 372 1307 l 1xca
 372 1400 l 1xc4
186 1121 m 1xd0
 186 1214 l 1
 186 1307 l 1
 279 1307 l 1
 372 1307 l 1
 372 1214 l 1
 372 1121 l 1xc8
 279 1121 l 1
 186 1121 l 1xd0
186 1121 m 1xd0
 186 469 l 1
 186 -182 l 1
 93 -182 l 1
 0 -182 l 1
 0 469 l 1
 0 1121 l 1
 93 1121 l 1
 186 1121 l 1xd0
745 190 m 1xc4
 745 376 l 1xc1
 745 562 l 1
 652 562 l 1
 559 562 l 1
 559 748 l 1
 559 934 l 1
 652 934 l 1
 745 934 l 1xc2
 745 1121 l 1xc1
 745 1307 l 1xa4
 838 1307 l 1
 931 1307 l 1xa1
 931 1121 l 1
 931 934 l 1xc1
 838 934 l 1
 745 934 l 1
 745 748 l 1
 745 562 l 1xc2
 838 562 l 1
 931 562 l 1
 931 376 l 1
 931 190 l 1xc1
 838 190 l 1
 745 190 l 1xc4
745 190 m 1x84
 745 96 l 1
 745 3 l 1x84
 559 3 l 1x82
 372 3 l 1
 372 96 l 1
 372 190 l 1x84
 559 190 l 1x82
 745 190 l 1x84
EndSplineSet
EndChar

StartChar: LATIN
Encoding: 224 224 160
Width: 1117
VWidth: 40
Flags: HW
HStem: 4 186<186 745> 190 186<0 186> 376 186<186 745> 748 186<186 745> 1121 186<559 745> 1307 186<372 559>
VStem: 0 186<190 376> 372 187<1307 1493> 559 186<1121 1307> 745 186<190 376 562 748>
LayerCount: 2
Fore
SplineSet
372 1400 m 1x17
 372 1493 l 1
 466 1493 l 1
 559 1493 l 1x17
 559 1400 l 1
 559 1307 l 1x1b
 466 1307 l 1
 372 1307 l 1
 372 1400 l 1x17
745 283 m 1x9240
 745 376 l 1
 466 376 l 1xb240
 186 376 l 1x5240
 186 283 l 1
 186 190 l 1
 466 190 l 1
 745 190 l 1
 745 283 l 1x9240
186 841 m 1
 186 934 l 1
 466 934 l 1
 745 934 l 1
 745 841 l 1
 745 748 l 1
 466 748 l 1
 186 748 l 1
 186 841 l 1
559 1307 m 1x1b
 652 1307 l 1
 745 1307 l 1
 745 1214 l 1
 745 1121 l 1
 652 1121 l 1
 559 1121 l 1
 559 1214 l 1x1a80
 559 1307 l 1x1b
186 376 m 1x5280
 186 469 l 1
 186 562 l 1
 466 562 l 1
 745 562 l 1
 745 655 l 1
 745 748 l 1
 838 748 l 1
 931 748 l 1
 931 376 l 1
 931 4 l 1xb240
 559 4 l 1
 186 4 l 1
 186 97 l 1
 186 190 l 1xb280
 93 190 l 1
 0 190 l 1
 0 283 l 1
 0 376 l 1
 93 376 l 1
 186 376 l 1x5280
EndSplineSet
EndChar

StartChar: LATIN
Encoding: 225 225 161
Width: 1117
VWidth: 40
Flags: HW
HStem: 4 186<186 745> 190 186<0 186> 376 186<186 745> 748 186<186 745> 1121 186<372 559> 1307 186<559 745>
VStem: 0 186<190 376> 372 187<1121 1307> 559 186<1307 1493> 745 186<190 376 562 748>
LayerCount: 2
Fore
SplineSet
559 1400 m 1x1a80
 559 1493 l 1
 652 1493 l 1
 745 1493 l 1
 745 1400 l 1
 745 1307 l 1
 652 1307 l 1x1680
 559 1307 l 1x1b
 559 1400 l 1x1a80
745 283 m 1x9240
 745 376 l 1
 466 376 l 1xb240
 186 376 l 1x5240
 186 283 l 1
 186 190 l 1
 466 190 l 1
 745 190 l 1
 745 283 l 1x9240
186 841 m 1
 186 934 l 1
 466 934 l 1
 745 934 l 1
 745 841 l 1
 745 748 l 1
 466 748 l 1
 186 748 l 1
 186 841 l 1
559 1307 m 1x1b
 559 1214 l 1
 559 1121 l 1
 466 1121 l 1
 372 1121 l 1
 372 1214 l 1
 372 1307 l 1
 466 1307 l 1
 559 1307 l 1x1b
186 376 m 1x5280
 186 469 l 1
 186 562 l 1
 466 562 l 1
 745 562 l 1
 745 655 l 1
 745 748 l 1
 838 748 l 1
 931 748 l 1
 931 376 l 1
 931 4 l 1xb240
 559 4 l 1
 186 4 l 1
 186 97 l 1
 186 190 l 1xb280
 93 190 l 1
 0 190 l 1
 0 283 l 1
 0 376 l 1
 93 376 l 1
 186 376 l 1x5280
EndSplineSet
EndChar

StartChar: LATIN
Encoding: 226 226 162
Width: 1117
VWidth: 40
Flags: HW
HStem: 4 186<186 745> 190 186<0 186> 376 186<186 745> 748 186<186 745> 1121 186<186 372 559 745> 1307 186<372 559>
VStem: 0 186<190 376> 186 186<1121 1307> 372 187<1307 1493> 559 186<1121 1307> 745 186<190 376 562 748>
LayerCount: 2
Fore
SplineSet
372 1400 m 1x1880
 372 1493 l 1
 466 1493 l 1
 559 1493 l 1x1480
 559 1400 l 1
 559 1307 l 1x1880
 466 1307 l 1x1480
 372 1307 l 1x19
 372 1400 l 1x1880
745 283 m 1x9220
 745 376 l 1
 466 376 l 1xb220
 186 376 l 1x5220
 186 283 l 1
 186 190 l 1
 466 190 l 1
 745 190 l 1
 745 283 l 1x9220
186 841 m 1x1120
 186 934 l 1
 466 934 l 1
 745 934 l 1
 745 841 l 1
 745 748 l 1
 466 748 l 1
 186 748 l 1
 186 841 l 1x1120
372 1307 m 1x19
 372 1214 l 1
 372 1121 l 1
 279 1121 l 1
 186 1121 l 1
 186 1214 l 1
 186 1307 l 1
 279 1307 l 1
 372 1307 l 1x19
559 1307 m 1x1880
 652 1307 l 1
 745 1307 l 1
 745 1214 l 1
 745 1121 l 1
 652 1121 l 1
 559 1121 l 1
 559 1214 l 1x1840
 559 1307 l 1x1880
186 376 m 1x52
 186 469 l 1
 186 562 l 1
 466 562 l 1
 745 562 l 1
 745 655 l 1
 745 748 l 1
 838 748 l 1
 931 748 l 1
 931 376 l 1
 931 4 l 1xb120
 559 4 l 1
 186 4 l 1
 186 97 l 1xb140
 186 190 l 1xb2
 93 190 l 1
 0 190 l 1
 0 283 l 1
 0 376 l 1
 93 376 l 1
 186 376 l 1x52
EndSplineSet
EndChar

StartChar: LATIN
Encoding: 227 227 163
Width: 1117
VWidth: 40
Flags: HW
HStem: 4 186<186 745> 190 186<0 186> 376 186<186 745> 748 186<186 745> 1121 186<0 186 559 745> 1307 186<186 372 745 931>
VStem: 0 186<190 376 1121 1307> 745 186<190 376 562 748 1307 1493>
LayerCount: 2
Fore
SplineSet
186 1400 m 1x1b
 186 1493 l 1
 373 1493 l 1
 559 1493 l 1x17
 559 1400 l 1
 559 1307 l 1
 652 1307 l 1
 745 1307 l 1
 745 1214 l 1
 745 1121 l 1
 559 1121 l 1
 372 1121 l 1x1b
 372 1214 l 1
 372 1307 l 1
 279 1307 l 1x17
 186 1307 l 1
 186 1400 l 1x1b
745 283 m 1
 745 376 l 1
 466 376 l 1xb3
 186 376 l 1x53
 186 283 l 1
 186 190 l 1
 466 190 l 1
 745 190 l 1x93
 745 283 l 1
186 841 m 1
 186 934 l 1
 466 934 l 1
 745 934 l 1
 745 841 l 1
 745 748 l 1
 466 748 l 1
 186 748 l 1
 186 841 l 1
186 1307 m 1x1b
 186 1214 l 1
 186 1121 l 1
 93 1121 l 1
 0 1121 l 1
 0 1214 l 1
 0 1307 l 1
 93 1307 l 1
 186 1307 l 1x1b
745 1307 m 1
 745 1400 l 1
 745 1493 l 1
 838 1493 l 1
 931 1493 l 1
 931 1400 l 1
 931 1307 l 1
 838 1307 l 1x17
 745 1307 l 1
186 376 m 1x53
 186 469 l 1
 186 562 l 1
 466 562 l 1
 745 562 l 1
 745 655 l 1
 745 748 l 1
 838 748 l 1
 931 748 l 1
 931 376 l 1
 931 4 l 1
 559 4 l 1
 186 4 l 1
 186 97 l 1
 186 190 l 1xb3
 93 190 l 1
 0 190 l 1
 0 283 l 1
 0 376 l 1
 93 376 l 1
 186 376 l 1x53
EndSplineSet
EndChar

StartChar: LATIN
Encoding: 228 228 164
Width: 1117
VWidth: 40
Flags: HW
HStem: 4 186<186 745> 190 186<0 186> 376 186<186 745> 748 187<186 745> 1121 186<186 372 559 745>
VStem: 0 186<190 376> 186 186<1121 1307> 559 186<1121 1307> 745 186<190 376 562 748>
LayerCount: 2
Fore
SplineSet
186 1214 m 1x1a
 186 1307 l 1
 279 1307 l 1
 372 1307 l 1
 372 1214 l 1
 372 1121 l 1
 279 1121 l 1
 186 1121 l 1
 186 1214 l 1x1a
559 1214 m 1x19
 559 1307 l 1
 652 1307 l 1
 745 1307 l 1
 745 1214 l 1
 745 1121 l 1
 652 1121 l 1
 559 1121 l 1
 559 1214 l 1x19
745 283 m 1x9c80
 745 376 l 1
 466 376 l 1xbc80
 186 376 l 1x5c80
 186 283 l 1
 186 190 l 1
 466 190 l 1
 745 190 l 1
 745 283 l 1x9c80
186 841 m 1x1a80
 186 935 l 1
 466 935 l 1
 745 935 l 1
 745 841 l 1
 745 748 l 1
 466 748 l 1
 186 748 l 1
 186 841 l 1x1a80
186 376 m 1x5c
 186 469 l 1
 186 562 l 1
 466 562 l 1
 745 562 l 1
 745 655 l 1
 745 748 l 1
 838 748 l 1
 931 748 l 1
 931 376 l 1
 931 4 l 1xba80
 559 4 l 1
 186 4 l 1
 186 97 l 1xbb
 186 190 l 1xbc
 93 190 l 1
 0 190 l 1
 0 283 l 1
 0 376 l 1
 93 376 l 1
 186 376 l 1x5c
EndSplineSet
EndChar

StartChar: LATIN
Encoding: 229 229 165
Width: 1117
VWidth: 40
Flags: HW
HStem: 4 186<186 745> 190 186<0 186> 376 186<186 745> 748 186<186 372 559 745> 1121 186<186 372 559 745> 1307 186<372 559>
VStem: 0 186<190 376> 186 186<1121 1307> 372 187<934 1121 1307 1493> 559 186<1121 1307> 745 186<190 376 562 748>
LayerCount: 2
Fore
SplineSet
745 283 m 1x9220
 745 376 l 1
 466 376 l 1xb220
 186 376 l 1x5220
 186 283 l 1
 186 190 l 1
 466 190 l 1
 745 190 l 1
 745 283 l 1x9220
372 1400 m 1x1880
 372 1493 l 1
 466 1493 l 1
 559 1493 l 1x1480
 559 1400 l 1
 559 1307 l 1x1880
 466 1307 l 1x1480
 372 1307 l 1
 372 1214 l 1
 372 1121 l 1x19
 466 1121 l 1
 559 1121 l 1x1880
 559 1214 l 1x1840
 559 1307 l 1x1880
 652 1307 l 1
 745 1307 l 1
 745 1214 l 1
 745 1121 l 1x1840
 652 1121 l 1
 559 1121 l 1
 559 1028 l 1
 559 934 l 1x1880
 652 934 l 1
 745 934 l 1
 745 841 l 1
 745 748 l 1
 466 748 l 1
 186 748 l 1
 186 841 l 1
 186 934 l 1x1920
 279 934 l 1
 372 934 l 1
 372 1028 l 1x1880
 372 1121 l 1
 279 1121 l 1
 186 1121 l 1
 186 1214 l 1
 186 1307 l 1
 279 1307 l 1
 372 1307 l 1x19
 372 1400 l 1x1880
186 376 m 1x52
 186 469 l 1
 186 562 l 1
 466 562 l 1
 745 562 l 1
 745 655 l 1
 745 748 l 1
 838 748 l 1
 931 748 l 1
 931 376 l 1
 931 4 l 1xb120
 559 4 l 1
 186 4 l 1
 186 97 l 1xb140
 186 190 l 1xb2
 93 190 l 1
 0 190 l 1
 0 283 l 1
 0 376 l 1
 93 376 l 1
 186 376 l 1x52
EndSplineSet
EndChar

StartChar: LATIN
Encoding: 230 230 166
Width: 1117
VWidth: 40
Flags: HW
HStem: 4 186<186 372 559 931> 376 186<559 745> 748 187<186 372 559 745>
VStem: 0 186<190 748> 372 187<190 376 562 748> 745 186<562 748>
CounterMasks: 1 1c
LayerCount: 2
Fore
SplineSet
372 469 m 1
 372 748 l 1
 279 748 l 1
 186 748 l 1
 186 469 l 1
 186 190 l 1
 279 190 l 1
 372 190 l 1
 372 469 l 1
186 842 m 1
 186 935 l 1
 466 935 l 1
 745 935 l 1
 745 842 l 1
 745 748 l 1
 652 748 l 1
 559 748 l 1
 559 655 l 1
 559 562 l 1
 652 562 l 1
 745 562 l 1
 745 655 l 1
 745 748 l 1
 838 748 l 1
 931 748 l 1
 931 562 l 1
 931 376 l 1
 745 376 l 1
 559 376 l 1
 559 283 l 1
 559 190 l 1
 745 190 l 1
 931 190 l 1
 931 97 l 1
 931 4 l 1
 559 4 l 1
 186 4 l 1
 186 97 l 1
 186 190 l 1
 93 190 l 1
 0 190 l 1
 0 469 l 1
 0 748 l 1
 93 748 l 1
 186 748 l 1
 186 842 l 1
EndSplineSet
EndChar

StartChar: LATIN
Encoding: 231 231 167
Width: 1117
VWidth: 40
Flags: HW
HStem: -369 186<186 372> 3 187<186 372 559 931> 748 187<186 931>
VStem: 0 186<190 748> 186 186<-369 -183> 372 187<-183 3>
LayerCount: 2
Fore
SplineSet
186 842 m 1xe8
 186 935 l 1xe8
 559 935 l 1
 931 935 l 1
 931 842 l 1
 931 748 l 1
 559 748 l 1
 186 748 l 1xf4
 186 842 l 1xe8
372 -183 m 1
 372 -90 l 1
 372 3 l 1xe4
 279 3 l 1
 186 3 l 1
 186 96 l 1xe8
 186 190 l 1
 93 190 l 1
 0 190 l 1
 0 469 l 1
 0 748 l 1
 93 748 l 1
 186 748 l 1
 186 469 l 1
 186 190 l 1
 559 190 l 1
 931 190 l 1
 931 96 l 1
 931 3 l 1
 745 3 l 1
 559 3 l 1
 559 -90 l 1
 559 -183 l 1xf4
 466 -183 l 1
 372 -183 l 1
372 -183 m 1xe8
 372 -276 l 1
 372 -369 l 1
 279 -369 l 1
 186 -369 l 1
 186 -276 l 1
 186 -183 l 1
 279 -183 l 1
 372 -183 l 1xe8
EndSplineSet
EndChar

StartChar: LATIN
Encoding: 232 232 168
Width: 1117
VWidth: 40
Flags: HW
HStem: 4 186<186 931> 376 186<186 745> 748 186<186 745> 1121 186<372 559> 1307 186<186 372>
VStem: 0 186<190 376 562 748> 186 186<1307 1493> 372 187<1121 1307> 745 186<562 748>
LayerCount: 2
Fore
SplineSet
186 1400 m 1xea80
 186 1493 l 1
 279 1493 l 1
 372 1493 l 1xea80
 372 1400 l 1
 372 1307 l 1xf280
 279 1307 l 1
 186 1307 l 1
 186 1400 l 1xea80
186 841 m 1
 186 934 l 1xe280
 466 934 l 1
 745 934 l 1
 745 841 l 1
 745 748 l 1
 466 748 l 1
 186 748 l 1
 186 655 l 1
 186 562 l 1
 466 562 l 1
 745 562 l 1
 745 655 l 1
 745 748 l 1
 838 748 l 1
 931 748 l 1
 931 562 l 1
 931 376 l 1
 559 376 l 1
 186 376 l 1
 186 283 l 1
 186 190 l 1
 93 190 l 1
 0 190 l 1
 0 469 l 1
 0 748 l 1
 93 748 l 1
 186 748 l 1xe580
 186 841 l 1
372 1307 m 1xf280
 466 1307 l 1
 559 1307 l 1
 559 1214 l 1
 559 1121 l 1
 466 1121 l 1
 372 1121 l 1
 372 1214 l 1xf180
 372 1307 l 1xf280
186 190 m 1xe480
 559 190 l 1
 931 190 l 1
 931 97 l 1
 931 4 l 1
 559 4 l 1xe580
 186 4 l 1
 186 97 l 1xe280
 186 190 l 1xe480
EndSplineSet
EndChar

StartChar: LATIN
Encoding: 233 233 169
Width: 1117
VWidth: 40
Flags: HW
HStem: 4 186<186 931> 376 186<186 745> 748 186<186 745> 1121 186<372 559> 1307 186<559 745>
VStem: 0 186<190 376 562 748> 372 187<1121 1307> 559 186<1307 1493> 745 186<562 748>
LayerCount: 2
Fore
SplineSet
559 1400 m 1xf5
 559 1493 l 1
 652 1493 l 1
 745 1493 l 1
 745 1400 l 1
 745 1307 l 1
 652 1307 l 1xed
 559 1307 l 1xf6
 559 1400 l 1xf5
186 841 m 1
 186 934 l 1
 466 934 l 1
 745 934 l 1
 745 841 l 1
 745 748 l 1
 466 748 l 1
 186 748 l 1
 186 655 l 1
 186 562 l 1
 466 562 l 1
 745 562 l 1
 745 655 l 1
 745 748 l 1
 838 748 l 1
 931 748 l 1
 931 562 l 1
 931 376 l 1xe480
 559 376 l 1
 186 376 l 1
 186 283 l 1
 186 190 l 1
 93 190 l 1
 0 190 l 1
 0 469 l 1
 0 748 l 1
 93 748 l 1
 186 748 l 1
 186 841 l 1
559 1307 m 1xf6
 559 1214 l 1
 559 1121 l 1
 466 1121 l 1
 372 1121 l 1
 372 1214 l 1
 372 1307 l 1
 466 1307 l 1
 559 1307 l 1xf6
186 190 m 1
 559 190 l 1xe5
 931 190 l 1
 931 97 l 1
 931 4 l 1xe480
 559 4 l 1xe5
 186 4 l 1
 186 97 l 1
 186 190 l 1
EndSplineSet
EndChar

StartChar: LATIN
Encoding: 234 234 170
Width: 1117
VWidth: 40
Flags: HW
HStem: 4 186<186 931> 376 186<186 745> 748 186<186 745> 1121 186<186 372 559 745> 1307 186<372 559>
VStem: 0 186<190 376 562 748> 186 186<1121 1307> 372 187<1307 1493> 559 186<1121 1307> 745 186<562 748>
LayerCount: 2
Fore
SplineSet
372 1400 m 1xf1
 372 1493 l 1
 466 1493 l 1
 559 1493 l 1xe9
 559 1400 l 1
 559 1307 l 1xf1
 466 1307 l 1xe9
 372 1307 l 1xf2
 372 1400 l 1xf1
186 841 m 1xe2
 186 934 l 1xe2
 466 934 l 1
 745 934 l 1
 745 841 l 1
 745 748 l 1
 466 748 l 1
 186 748 l 1
 186 655 l 1
 186 562 l 1
 466 562 l 1
 745 562 l 1
 745 655 l 1
 745 748 l 1
 838 748 l 1
 931 748 l 1
 931 562 l 1
 931 376 l 1xe440
 559 376 l 1
 186 376 l 1
 186 283 l 1
 186 190 l 1
 93 190 l 1
 0 190 l 1
 0 469 l 1
 0 748 l 1
 93 748 l 1
 186 748 l 1xe480
 186 841 l 1xe2
372 1307 m 1xf2
 372 1214 l 1
 372 1121 l 1
 279 1121 l 1
 186 1121 l 1
 186 1214 l 1
 186 1307 l 1
 279 1307 l 1
 372 1307 l 1xf2
559 1307 m 1xf1
 652 1307 l 1
 745 1307 l 1
 745 1214 l 1
 745 1121 l 1
 652 1121 l 1
 559 1121 l 1
 559 1214 l 1xf080
 559 1307 l 1xf1
186 190 m 1xe4
 559 190 l 1xe480
 931 190 l 1
 931 97 l 1
 931 4 l 1xe040
 559 4 l 1
 186 4 l 1
 186 97 l 1xe280
 186 190 l 1xe4
EndSplineSet
EndChar

StartChar: LATIN
Encoding: 235 235 171
Width: 1117
VWidth: 40
Flags: HW
HStem: 4 186<186 931> 376 186<186 745> 748 187<186 745> 1121 186<186 372 559 745>
VStem: 0 186<190 376 562 748> 186 186<1121 1307> 559 186<1121 1307> 745 186<562 748>
LayerCount: 2
Fore
SplineSet
186 1214 m 1xf4
 186 1307 l 1
 279 1307 l 1
 372 1307 l 1
 372 1214 l 1
 372 1121 l 1
 279 1121 l 1
 186 1121 l 1
 186 1214 l 1xf4
559 1214 m 1xf2
 559 1307 l 1
 652 1307 l 1
 745 1307 l 1
 745 1214 l 1
 745 1121 l 1
 652 1121 l 1
 559 1121 l 1
 559 1214 l 1xf2
186 841 m 1xf4
 186 935 l 1xf4
 466 935 l 1
 745 935 l 1
 745 841 l 1
 745 748 l 1
 466 748 l 1
 186 748 l 1
 186 655 l 1
 186 562 l 1
 466 562 l 1
 745 562 l 1
 745 655 l 1
 745 748 l 1
 838 748 l 1
 931 748 l 1
 931 562 l 1
 931 376 l 1xf9
 559 376 l 1
 186 376 l 1
 186 283 l 1
 186 190 l 1
 93 190 l 1
 0 190 l 1
 0 469 l 1
 0 748 l 1
 93 748 l 1
 186 748 l 1xfa
 186 841 l 1xf4
186 190 m 1xf8
 559 190 l 1xfa
 931 190 l 1
 931 97 l 1
 931 4 l 1xf1
 559 4 l 1
 186 4 l 1
 186 97 l 1xf6
 186 190 l 1xf8
EndSplineSet
EndChar

StartChar: LATIN
Encoding: 236 236 172
Width: 1117
VWidth: 40
Flags: HW
HStem: 4 21G<372 559> 914 20G<372 559> 1121 186<559 745> 1307 186<372 559>
VStem: 372 187<4 934 1307 1493> 559 186<1121 1307>
LayerCount: 2
Fore
SplineSet
372 1400 m 1xd8
 372 1493 l 1
 465 1493 l 1
 559 1493 l 1xd8
 559 1400 l 1
 559 1307 l 1xe8
 465 1307 l 1
 372 1307 l 1
 372 1400 l 1xd8
372 469 m 1
 372 934 l 1
 465 934 l 1
 559 934 l 1
 559 469 l 1
 559 4 l 1
 465 4 l 1
 372 4 l 1
 372 469 l 1
559 1307 m 1xe8
 652 1307 l 1
 745 1307 l 1
 745 1214 l 1
 745 1121 l 1
 652 1121 l 1
 559 1121 l 1
 559 1214 l 1xe4
 559 1307 l 1xe8
EndSplineSet
EndChar

StartChar: LATIN
Encoding: 237 237 173
Width: 1117
VWidth: 40
Flags: HW
HStem: 4 21G<372 559> 914 20G<372 559> 1121 186<186 372> 1307 186<372 559>
VStem: 186 186<1121 1307> 372 187<4 934 1307 1493>
LayerCount: 2
Fore
SplineSet
372 1400 m 1xe4
 372 1493 l 1
 465 1493 l 1
 559 1493 l 1
 559 1400 l 1
 559 1307 l 1
 465 1307 l 1xd4
 372 1307 l 1xe8
 372 1400 l 1xe4
372 469 m 1
 372 934 l 1
 465 934 l 1
 559 934 l 1
 559 469 l 1
 559 4 l 1
 465 4 l 1
 372 4 l 1
 372 469 l 1
372 1307 m 1xe8
 372 1214 l 1
 372 1121 l 1
 279 1121 l 1
 186 1121 l 1
 186 1214 l 1
 186 1307 l 1
 279 1307 l 1
 372 1307 l 1xe8
EndSplineSet
EndChar

StartChar: LATIN
Encoding: 238 238 174
Width: 1117
VWidth: 40
Flags: HW
HStem: 4 21G<372 559> 914 20G<372 559> 1121 186<186 372 559 745> 1307 186<372 559>
VStem: 186 186<1121 1307> 372 187<4 934 1307 1493> 559 186<1121 1307>
LayerCount: 2
Fore
SplineSet
372 1400 m 1xe4
 372 1493 l 1
 465 1493 l 1
 559 1493 l 1xd4
 559 1400 l 1
 559 1307 l 1xe4
 465 1307 l 1xd4
 372 1307 l 1xe8
 372 1400 l 1xe4
372 469 m 1
 372 934 l 1
 465 934 l 1
 559 934 l 1
 559 469 l 1
 559 4 l 1
 465 4 l 1
 372 4 l 1
 372 469 l 1
372 1307 m 1xe8
 372 1214 l 1
 372 1121 l 1
 279 1121 l 1
 186 1121 l 1
 186 1214 l 1
 186 1307 l 1
 279 1307 l 1
 372 1307 l 1xe8
559 1307 m 1xe4
 652 1307 l 1
 745 1307 l 1
 745 1214 l 1
 745 1121 l 1
 652 1121 l 1
 559 1121 l 1
 559 1214 l 1xe2
 559 1307 l 1xe4
EndSplineSet
EndChar

StartChar: LATIN
Encoding: 239 239 175
Width: 1117
VWidth: 40
Flags: HW
HStem: 4 21G<372 559> 915 20G<372 559> 1121 186<186 372 559 745>
VStem: 186 186<1121 1307> 372 187<4 935> 559 186<1121 1307>
LayerCount: 2
Fore
SplineSet
186 1214 m 1xf0
 186 1307 l 1
 279 1307 l 1
 372 1307 l 1
 372 1214 l 1
 372 1121 l 1
 279 1121 l 1
 186 1121 l 1
 186 1214 l 1xf0
559 1214 m 1xe4
 559 1307 l 1
 652 1307 l 1
 745 1307 l 1
 745 1214 l 1
 745 1121 l 1
 652 1121 l 1
 559 1121 l 1
 559 1214 l 1xe4
372 469 m 1xe8
 372 935 l 1
 465 935 l 1
 559 935 l 1
 559 469 l 1
 559 4 l 1
 465 4 l 1
 372 4 l 1
 372 469 l 1xe8
EndSplineSet
EndChar

StartChar: LATIN
Encoding: 240 240 176
Width: 1117
VWidth: 40
Flags: HW
HStem: 4 186<186 745> 748 186<186 559> 1121 372<186 559>
VStem: 0 186<190 748> 186 373<1121 1493> 559 186<934 1121> 745 186<190 748>
LayerCount: 2
Fore
SplineSet
745 469 m 1xf2
 745 748 l 1
 466 748 l 1
 186 748 l 1
 186 469 l 1
 186 190 l 1
 466 190 l 1
 745 190 l 1
 745 469 l 1xf2
186 1307 m 1xe8
 186 1493 l 1
 373 1493 l 1
 559 1493 l 1
 559 1307 l 1
 559 1121 l 1
 373 1121 l 1
 186 1121 l 1
 186 1307 l 1xe8
186 748 m 1xf0
 186 841 l 1
 186 934 l 1xe8
 373 934 l 1
 559 934 l 1
 559 1028 l 1xe4
 559 1121 l 1xe8
 652 1121 l 1
 745 1121 l 1
 745 1028 l 1
 745 934 l 1xe4
 838 934 l 1
 931 934 l 1
 931 562 l 1
 931 190 l 1
 838 190 l 1
 745 190 l 1
 745 97 l 1
 745 4 l 1
 466 4 l 1
 186 4 l 1
 186 97 l 1xea
 186 190 l 1
 93 190 l 1
 0 190 l 1
 0 469 l 1
 0 748 l 1
 93 748 l 1
 186 748 l 1xf0
EndSplineSet
EndChar

StartChar: LATIN
Encoding: 241 241 177
Width: 1117
VWidth: 40
Flags: HW
HStem: 4 21G<0 186 745 931> 748 186<186 745> 1121 186<0 186 372 559> 1307 186<186 372 559 745>
VStem: 0 186<4 748 1121 1307> 186 186<1307 1493> 372 187<1121 1307> 559 186<1307 1493> 745 186<4 748>
LayerCount: 2
Fore
SplineSet
186 1400 m 1xe4
 186 1493 l 1
 279 1493 l 1
 372 1493 l 1xd4
 372 1400 l 1
 372 1307 l 1xe4
 279 1307 l 1xd4
 186 1307 l 1xe8
 186 1400 l 1xe4
0 469 m 1xc880
 0 934 l 1
 373 934 l 1
 745 934 l 1
 745 841 l 1
 745 748 l 1
 466 748 l 1
 186 748 l 1
 186 376 l 1
 186 4 l 1
 93 4 l 1
 0 4 l 1
 0 469 l 1xc880
186 1307 m 1xe8
 186 1214 l 1
 186 1121 l 1
 93 1121 l 1
 0 1121 l 1
 0 1214 l 1
 0 1307 l 1
 93 1307 l 1
 186 1307 l 1xe8
559 1307 m 1xe2
 559 1214 l 1
 559 1121 l 1
 466 1121 l 1
 372 1121 l 1
 372 1214 l 1xe2
 372 1307 l 1xe4
 466 1307 l 1
 559 1307 l 1xe2
559 1307 m 1
 559 1400 l 1
 559 1493 l 1
 652 1493 l 1
 745 1493 l 1
 745 1400 l 1
 745 1307 l 1
 652 1307 l 1xd1
 559 1307 l 1
745 748 m 1xc080
 838 748 l 1
 931 748 l 1
 931 376 l 1
 931 4 l 1
 838 4 l 1
 745 4 l 1
 745 376 l 1
 745 748 l 1xc080
EndSplineSet
EndChar

StartChar: LATIN
Encoding: 242 242 178
Width: 1117
VWidth: 40
Flags: HW
HStem: 4 186<186 745> 190 558<0 186 745 931> 748 186<186 745> 1121 186<372 559> 1307 186<186 372>
VStem: 0 186<190 748> 186 559<4 190 748 934> 186 186<1307 1493> 372 187<1121 1307> 745 186<190 748>
LayerCount: 2
Fore
SplineSet
186 1400 m 1x09
 186 1493 l 1
 279 1493 l 1
 372 1493 l 1x09
 372 1400 l 1
 372 1307 l 1x11
 279 1307 l 1
 186 1307 l 1
 186 1400 l 1x09
186 841 m 1x42
 186 934 l 1
 466 934 l 1
 745 934 l 1x22
 745 841 l 1
 745 748 l 1x42
 466 748 l 1x22
 186 748 l 1x44
 186 469 l 1
 186 190 l 1x84
 466 190 l 1
 745 190 l 1x82
 745 469 l 1x8040
 745 748 l 1x42
 838 748 l 1
 931 748 l 1
 931 469 l 1
 931 190 l 1
 838 190 l 1x4040
 745 190 l 1
 745 97 l 1
 745 4 l 1
 466 4 l 1
 186 4 l 1
 186 97 l 1x82
 186 190 l 1x84
 93 190 l 1
 0 190 l 1
 0 469 l 1
 0 748 l 1
 93 748 l 1
 186 748 l 1x44
 186 841 l 1x42
372 1307 m 1x11
 466 1307 l 1
 559 1307 l 1
 559 1214 l 1
 559 1121 l 1
 466 1121 l 1
 372 1121 l 1
 372 1214 l 1x1080
 372 1307 l 1x11
EndSplineSet
EndChar

StartChar: LATIN
Encoding: 243 243 179
Width: 1117
VWidth: 40
Flags: HW
HStem: 4 186<186 745> 190 558<0 186 745 931> 748 186<186 745> 1121 186<372 559> 1307 186<559 745>
VStem: 0 186<190 748> 186 559<4 190 748 934> 372 187<1121 1307> 559 186<1307 1493> 745 186<190 748>
LayerCount: 2
Fore
SplineSet
559 1400 m 1x1080
 559 1493 l 1
 652 1493 l 1
 745 1493 l 1
 745 1400 l 1
 745 1307 l 1
 652 1307 l 1x0880
 559 1307 l 1x11
 559 1400 l 1x1080
186 841 m 1x42
 186 934 l 1
 466 934 l 1
 745 934 l 1x22
 745 841 l 1
 745 748 l 1x42
 466 748 l 1x22
 186 748 l 1x44
 186 469 l 1
 186 190 l 1x84
 466 190 l 1
 745 190 l 1x82
 745 469 l 1x8040
 745 748 l 1x42
 838 748 l 1
 931 748 l 1
 931 469 l 1
 931 190 l 1
 838 190 l 1x4040
 745 190 l 1
 745 97 l 1
 745 4 l 1
 466 4 l 1
 186 4 l 1
 186 97 l 1x82
 186 190 l 1x84
 93 190 l 1
 0 190 l 1
 0 469 l 1
 0 748 l 1
 93 748 l 1
 186 748 l 1x44
 186 841 l 1x42
559 1307 m 1x11
 559 1214 l 1
 559 1121 l 1
 466 1121 l 1
 372 1121 l 1
 372 1214 l 1
 372 1307 l 1
 466 1307 l 1
 559 1307 l 1x11
EndSplineSet
EndChar

StartChar: LATIN
Encoding: 244 244 180
Width: 1117
VWidth: 40
Flags: HW
HStem: 4 186<186 745> 190 558<0 186 745 931> 748 186<186 745> 1121 186<186 372 559 745> 1307 186<372 559>
VStem: 0 186<190 748> 186 186<1121 1307> 372 187<1307 1493> 559 186<1121 1307> 745 186<190 748>
LayerCount: 2
Fore
SplineSet
372 1400 m 1x11
 372 1493 l 1
 466 1493 l 1
 559 1493 l 1x09
 559 1400 l 1
 559 1307 l 1x11
 466 1307 l 1x09
 372 1307 l 1x12
 372 1400 l 1x11
186 841 m 1x42
 186 934 l 1
 466 934 l 1
 745 934 l 1x2240
 745 841 l 1
 745 748 l 1x4240
 466 748 l 1x2240
 186 748 l 1x4440
 186 469 l 1
 186 190 l 1
 466 190 l 1
 745 190 l 1x8440
 745 469 l 1
 745 748 l 1
 838 748 l 1
 931 748 l 1
 931 469 l 1
 931 190 l 1
 838 190 l 1x4440
 745 190 l 1
 745 97 l 1
 745 4 l 1
 466 4 l 1
 186 4 l 1
 186 97 l 1x8240
 186 190 l 1x84
 93 190 l 1
 0 190 l 1
 0 469 l 1
 0 748 l 1
 93 748 l 1
 186 748 l 1x44
 186 841 l 1x42
372 1307 m 1x12
 372 1214 l 1
 372 1121 l 1
 279 1121 l 1
 186 1121 l 1
 186 1214 l 1
 186 1307 l 1
 279 1307 l 1
 372 1307 l 1x12
559 1307 m 1x11
 652 1307 l 1
 745 1307 l 1
 745 1214 l 1
 745 1121 l 1
 652 1121 l 1
 559 1121 l 1
 559 1214 l 1x1080
 559 1307 l 1x11
EndSplineSet
EndChar

StartChar: LATIN
Encoding: 245 245 181
Width: 1117
VWidth: 40
Flags: HW
HStem: 4 186<186 745> 190 558<0 186 745 931> 748 186<186 745> 1121 186<0 186 372 559> 1307 186<186 372 559 745>
VStem: 0 186<190 748 1121 1307> 186 186<1307 1493> 372 187<1121 1307> 559 186<1307 1493> 745 186<190 748>
LayerCount: 2
Fore
SplineSet
186 1400 m 1x12
 186 1493 l 1
 279 1493 l 1
 372 1493 l 1x0a
 372 1400 l 1
 372 1307 l 1x12
 279 1307 l 1x0a
 186 1307 l 1x14
 186 1400 l 1x12
186 841 m 1
 186 934 l 1
 466 934 l 1
 745 934 l 1x2240
 745 841 l 1
 745 748 l 1x4240
 466 748 l 1x2240
 186 748 l 1x4440
 186 469 l 1
 186 190 l 1
 466 190 l 1
 745 190 l 1x8440
 745 469 l 1
 745 748 l 1
 838 748 l 1
 931 748 l 1
 931 469 l 1
 931 190 l 1
 838 190 l 1x4440
 745 190 l 1
 745 97 l 1
 745 4 l 1
 466 4 l 1
 186 4 l 1
 186 97 l 1x8240
 186 190 l 1x84
 93 190 l 1
 0 190 l 1
 0 469 l 1
 0 748 l 1
 93 748 l 1
 186 748 l 1x44
 186 841 l 1
186 1307 m 1x14
 186 1214 l 1
 186 1121 l 1
 93 1121 l 1
 0 1121 l 1
 0 1214 l 1
 0 1307 l 1
 93 1307 l 1
 186 1307 l 1x14
559 1307 m 1x11
 559 1214 l 1
 559 1121 l 1
 466 1121 l 1
 372 1121 l 1
 372 1214 l 1x11
 372 1307 l 1x12
 466 1307 l 1
 559 1307 l 1x11
559 1307 m 1
 559 1400 l 1
 559 1493 l 1
 652 1493 l 1
 745 1493 l 1
 745 1400 l 1
 745 1307 l 1
 652 1307 l 1x0880
 559 1307 l 1
EndSplineSet
EndChar

StartChar: LATIN
Encoding: 246 246 182
Width: 1117
VWidth: 40
Flags: HW
HStem: 4 186<186 745> 190 558<0 186 745 931> 748 187<186 745> 1121 186<186 372 559 745>
VStem: 0 186<190 748> 186 186<1121 1307> 559 186<1121 1307> 745 186<190 748>
LayerCount: 2
Fore
SplineSet
186 1214 m 1x14
 186 1307 l 1
 279 1307 l 1
 372 1307 l 1
 372 1214 l 1
 372 1121 l 1
 279 1121 l 1
 186 1121 l 1
 186 1214 l 1x14
559 1214 m 1x12
 559 1307 l 1
 652 1307 l 1
 745 1307 l 1
 745 1214 l 1
 745 1121 l 1
 652 1121 l 1
 559 1121 l 1
 559 1214 l 1x12
186 841 m 1x54
 186 935 l 1
 466 935 l 1
 745 935 l 1x35
 745 841 l 1
 745 748 l 1x55
 466 748 l 1x35
 186 748 l 1x59
 186 469 l 1
 186 190 l 1
 466 190 l 1
 745 190 l 1x99
 745 469 l 1
 745 748 l 1
 838 748 l 1
 931 748 l 1
 931 469 l 1
 931 190 l 1
 838 190 l 1x59
 745 190 l 1
 745 97 l 1
 745 4 l 1
 466 4 l 1
 186 4 l 1
 186 97 l 1x95
 186 190 l 1x98
 93 190 l 1
 0 190 l 1
 0 469 l 1
 0 748 l 1
 93 748 l 1
 186 748 l 1x58
 186 841 l 1x54
EndSplineSet
EndChar

StartChar: DIVISION
Encoding: 247 247 183
Width: 1117
VWidth: 40
Flags: HW
HStem: 190 186<372 559> 562 186<0 931> 935 186<372 559>
VStem: 372 187<190 376 935 1121>
LayerCount: 2
Fore
SplineSet
372 1028 m 1
 372 1121 l 1
 466 1121 l 1
 559 1121 l 1
 559 1028 l 1
 559 935 l 1
 466 935 l 1
 372 935 l 1
 372 1028 l 1
0 655 m 1
 0 748 l 1
 465 748 l 1
 931 748 l 1
 931 655 l 1
 931 562 l 1
 465 562 l 1
 0 562 l 1
 0 655 l 1
372 283 m 1
 372 376 l 1
 466 376 l 1
 559 376 l 1
 559 283 l 1
 559 190 l 1
 466 190 l 1
 372 190 l 1
 372 283 l 1
EndSplineSet
EndChar

StartChar: LATIN
Encoding: 248 248 184
Width: 1117
VWidth: 40
Flags: HW
HStem: 4 186<372 745> 190 558<0 186 745 931> 376 186<372 559> 748 187<186 559>
VStem: 0 186<376 748> 186 559<4 190 748 935> 372 187<376 562> 745 186<190 562>
LayerCount: 2
Fore
SplineSet
559 655 m 1xa3
 559 748 l 1
 373 748 l 1xb3
 186 748 l 1x4b
 186 562 l 1
 186 376 l 1
 279 376 l 1
 372 376 l 1
 372 283 l 1
 372 190 l 1
 559 190 l 1xab
 745 190 l 1xa4
 745 376 l 1
 745 562 l 1
 652 562 l 1
 559 562 l 1
 559 655 l 1xa3
186 842 m 1x44
 186 935 l 1
 466 935 l 1
 745 935 l 1x14
 745 842 l 1
 745 748 l 1x44
 838 748 l 1
 931 748 l 1
 931 469 l 1
 931 190 l 1
 838 190 l 1x41
 745 190 l 1
 745 97 l 1
 745 4 l 1
 466 4 l 1
 186 4 l 1x84
 186 97 l 1
 186 190 l 1x44
 93 190 l 1
 0 190 l 1
 0 469 l 1
 0 748 l 1
 93 748 l 1
 186 748 l 1x48
 186 842 l 1x44
372 469 m 1x22
 372 562 l 1
 466 562 l 1
 559 562 l 1
 559 469 l 1
 559 376 l 1
 466 376 l 1
 372 376 l 1
 372 469 l 1x22
EndSplineSet
EndChar

StartChar: LATIN
Encoding: 249 249 185
Width: 1117
VWidth: 40
Flags: HW
HStem: 4 186<186 559> 190 186<559 745> 914 20G<0 186 745 931> 1121 186<372 559> 1307 186<186 372>
VStem: 0 186<190 934> 186 186<1307 1493> 372 187<1121 1307> 745 186<4 190 376 934>
LayerCount: 2
Fore
SplineSet
186 1400 m 1x2a80
 186 1493 l 1
 279 1493 l 1
 372 1493 l 1x2a80
 372 1400 l 1
 372 1307 l 1x3280
 279 1307 l 1
 186 1307 l 1
 186 1400 l 1x2a80
0 562 m 1x6480
 0 934 l 1
 93 934 l 1
 186 934 l 1
 186 562 l 1
 186 190 l 1xa480
 93 190 l 1
 0 190 l 1
 0 562 l 1x6480
372 1307 m 1x3280
 466 1307 l 1
 559 1307 l 1
 559 1214 l 1
 559 1121 l 1
 466 1121 l 1
 372 1121 l 1
 372 1214 l 1x3180
 372 1307 l 1x3280
559 190 m 1xa580
 559 97 l 1
 559 4 l 1xa580
 373 4 l 1
 186 4 l 1
 186 97 l 1xa280
 186 190 l 1
 373 190 l 1
 559 190 l 1xa580
559 190 m 1
 559 283 l 1
 559 376 l 1
 652 376 l 1
 745 376 l 1x6180
 745 655 l 1
 745 934 l 1
 838 934 l 1
 931 934 l 1
 931 469 l 1
 931 4 l 1
 838 4 l 1
 745 4 l 1xa180
 745 97 l 1
 745 190 l 1
 652 190 l 1x6180
 559 190 l 1
EndSplineSet
EndChar

StartChar: LATIN
Encoding: 250 250 186
Width: 1117
VWidth: 40
Flags: HW
HStem: 4 186<186 559> 190 186<559 745> 914 20G<0 186 745 931> 1121 186<372 559> 1307 186<559 745>
VStem: 0 186<190 934> 372 187<1121 1307> 559 186<1307 1493> 745 186<4 190 376 934>
LayerCount: 2
Fore
SplineSet
559 1400 m 1x35
 559 1493 l 1
 652 1493 l 1
 745 1493 l 1
 745 1400 l 1
 745 1307 l 1
 652 1307 l 1x2d
 559 1307 l 1x36
 559 1400 l 1x35
0 562 m 1
 0 934 l 1
 93 934 l 1
 186 934 l 1
 186 562 l 1
 186 190 l 1xa4
 93 190 l 1
 0 190 l 1x64
 0 562 l 1
559 1307 m 1x36
 559 1214 l 1
 559 1121 l 1
 466 1121 l 1
 372 1121 l 1
 372 1214 l 1
 372 1307 l 1
 466 1307 l 1
 559 1307 l 1x36
559 190 m 1xa5
 559 97 l 1
 559 4 l 1
 373 4 l 1
 186 4 l 1
 186 97 l 1
 186 190 l 1
 373 190 l 1
 559 190 l 1xa5
559 190 m 1
 559 283 l 1
 559 376 l 1x65
 652 376 l 1
 745 376 l 1x6480
 745 655 l 1
 745 934 l 1
 838 934 l 1
 931 934 l 1
 931 469 l 1
 931 4 l 1
 838 4 l 1
 745 4 l 1xa480
 745 97 l 1
 745 190 l 1
 652 190 l 1x6480
 559 190 l 1
EndSplineSet
EndChar

StartChar: LATIN
Encoding: 251 251 187
Width: 1117
VWidth: 40
Flags: HW
HStem: 4 186<186 559> 190 186<559 745> 914 20G<0 186 745 931> 1121 186<186 372 559 745> 1307 186<372 559>
VStem: 0 186<190 934> 186 186<1121 1307> 372 187<1307 1493> 559 186<1121 1307> 745 186<4 190 376 934>
LayerCount: 2
Fore
SplineSet
372 1400 m 1x31
 372 1493 l 1
 466 1493 l 1
 559 1493 l 1x29
 559 1400 l 1
 559 1307 l 1x31
 466 1307 l 1x29
 372 1307 l 1x32
 372 1400 l 1x31
0 562 m 1x64
 0 934 l 1
 93 934 l 1
 186 934 l 1
 186 562 l 1
 186 190 l 1xa4
 93 190 l 1
 0 190 l 1
 0 562 l 1x64
372 1307 m 1x32
 372 1214 l 1
 372 1121 l 1
 279 1121 l 1
 186 1121 l 1
 186 1214 l 1
 186 1307 l 1
 279 1307 l 1
 372 1307 l 1x32
559 1307 m 1x31
 652 1307 l 1
 745 1307 l 1
 745 1214 l 1
 745 1121 l 1
 652 1121 l 1
 559 1121 l 1
 559 1214 l 1x3080
 559 1307 l 1x31
559 190 m 1xa480
 559 97 l 1
 559 4 l 1
 373 4 l 1
 186 4 l 1
 186 97 l 1xa280
 186 190 l 1
 373 190 l 1
 559 190 l 1xa480
559 190 m 1
 559 283 l 1
 559 376 l 1x6080
 652 376 l 1
 745 376 l 1x6040
 745 655 l 1
 745 934 l 1
 838 934 l 1
 931 934 l 1
 931 469 l 1
 931 4 l 1
 838 4 l 1
 745 4 l 1xa040
 745 97 l 1
 745 190 l 1
 652 190 l 1x6040
 559 190 l 1
EndSplineSet
EndChar

StartChar: LATIN
Encoding: 252 252 188
Width: 1117
VWidth: 40
Flags: HW
HStem: 4 186<186 559> 190 186<559 745> 915 20G<0 186 745 931> 1121 186<186 372 559 745>
VStem: 0 186<190 935> 186 186<1121 1307> 559 186<1121 1307> 745 186<4 190 376 935>
LayerCount: 2
Fore
SplineSet
186 1214 m 1x34
 186 1307 l 1
 279 1307 l 1
 372 1307 l 1
 372 1214 l 1
 372 1121 l 1
 279 1121 l 1
 186 1121 l 1
 186 1214 l 1x34
559 1214 m 1x32
 559 1307 l 1
 652 1307 l 1
 745 1307 l 1
 745 1214 l 1
 745 1121 l 1
 652 1121 l 1
 559 1121 l 1
 559 1214 l 1x32
0 562 m 1x78
 0 935 l 1
 93 935 l 1
 186 935 l 1
 186 562 l 1
 186 190 l 1xb8
 93 190 l 1
 0 190 l 1
 0 562 l 1x78
559 190 m 1xba
 559 97 l 1
 559 4 l 1
 373 4 l 1
 186 4 l 1
 186 97 l 1xb6
 186 190 l 1
 373 190 l 1
 559 190 l 1xba
559 190 m 1
 559 283 l 1
 559 376 l 1x72
 652 376 l 1
 745 376 l 1x71
 745 655 l 1
 745 935 l 1
 838 935 l 1
 931 935 l 1
 931 469 l 1
 931 4 l 1
 838 4 l 1
 745 4 l 1xb1
 745 97 l 1
 745 190 l 1
 652 190 l 1x71
 559 190 l 1
EndSplineSet
EndChar

StartChar: LATIN
Encoding: 253 253 189
Width: 1117
VWidth: 40
Flags: HW
HStem: -369 186<186 745> 3 187<186 559> 190 186<559 745> 914 20G<0 186 745 931> 1121 186<372 559> 1307 186<559 745>
VStem: 0 186<190 934> 372 187<1121 1307> 559 186<1307 1493> 745 186<-183 190 376 934>
LayerCount: 2
Fore
SplineSet
559 1400 m 1x9a80
 559 1493 l 1
 652 1493 l 1
 745 1493 l 1
 745 1400 l 1
 745 1307 l 1
 652 1307 l 1x9680
 559 1307 l 1x9b
 559 1400 l 1x9a80
0 562 m 1
 0 934 l 1
 93 934 l 1
 186 934 l 1
 186 562 l 1
 186 190 l 1xd2
 93 190 l 1
 0 190 l 1xb2
 0 562 l 1
559 1307 m 1x9b
 559 1214 l 1
 559 1121 l 1
 466 1121 l 1
 372 1121 l 1
 372 1214 l 1
 372 1307 l 1
 466 1307 l 1
 559 1307 l 1x9b
745 -183 m 1xb240
 745 3 l 1xd240
 745 190 l 1
 652 190 l 1xb240
 559 190 l 1
 559 96 l 1
 559 3 l 1
 373 3 l 1
 186 3 l 1
 186 96 l 1
 186 190 l 1
 373 190 l 1
 559 190 l 1xd280
 559 283 l 1
 559 376 l 1xb280
 652 376 l 1
 745 376 l 1
 745 655 l 1
 745 934 l 1
 838 934 l 1
 931 934 l 1
 931 376 l 1
 931 -183 l 1
 838 -183 l 1
 745 -183 l 1xb240
745 -183 m 1
 745 -276 l 1
 745 -369 l 1
 466 -369 l 1
 186 -369 l 1
 186 -276 l 1
 186 -183 l 1
 466 -183 l 1
 745 -183 l 1
EndSplineSet
EndChar

StartChar: LATIN
Encoding: 254 254 190
Width: 1117
VWidth: 40
Flags: HW
HStem: -369 21G<0 186> 3 187<186 745> 748 187<186 745> 1287 20G<0 186>
VStem: 0 186<-369 3 190 748 935 1307> 745 186<190 748>
LayerCount: 2
Fore
SplineSet
0 469 m 1
 0 1307 l 1
 93 1307 l 1
 186 1307 l 1
 186 1121 l 1
 186 935 l 1
 466 935 l 1
 745 935 l 1
 745 841 l 1
 745 748 l 1
 466 748 l 1
 186 748 l 1
 186 469 l 1
 186 190 l 1
 466 190 l 1
 745 190 l 1
 745 469 l 1
 745 748 l 1
 838 748 l 1
 931 748 l 1
 931 469 l 1
 931 190 l 1
 838 190 l 1
 745 190 l 1
 745 96 l 1
 745 3 l 1
 466 3 l 1
 186 3 l 1
 186 -183 l 1
 186 -369 l 1
 93 -369 l 1
 0 -369 l 1
 0 469 l 1
EndSplineSet
EndChar

StartChar: LATIN
Encoding: 255 255 191
Width: 1117
VWidth: 40
Flags: HW
HStem: -369 186<186 745> 3 187<186 559> 190 186<559 745> 915 20G<0 186 745 931> 1121 186<186 372 559 745>
VStem: 0 186<190 935> 186 186<1121 1307> 559 186<1121 1307> 745 186<-183 190 376 935>
LayerCount: 2
Fore
SplineSet
186 1214 m 1x9a
 186 1307 l 1
 279 1307 l 1
 372 1307 l 1
 372 1214 l 1
 372 1121 l 1
 279 1121 l 1
 186 1121 l 1
 186 1214 l 1x9a
559 1214 m 1x99
 559 1307 l 1
 652 1307 l 1
 745 1307 l 1
 745 1214 l 1
 745 1121 l 1
 652 1121 l 1
 559 1121 l 1
 559 1214 l 1x99
0 562 m 1xbc
 0 935 l 1
 93 935 l 1
 186 935 l 1
 186 562 l 1
 186 190 l 1xdc
 93 190 l 1
 0 190 l 1
 0 562 l 1xbc
745 -183 m 1xb880
 745 3 l 1xd880
 745 190 l 1
 652 190 l 1xb880
 559 190 l 1
 559 96 l 1
 559 3 l 1
 373 3 l 1
 186 3 l 1
 186 96 l 1xdb
 186 190 l 1
 373 190 l 1
 559 190 l 1xdd
 559 283 l 1
 559 376 l 1xbd
 652 376 l 1
 745 376 l 1
 745 655 l 1
 745 935 l 1
 838 935 l 1
 931 935 l 1
 931 376 l 1
 931 -183 l 1
 838 -183 l 1
 745 -183 l 1xb880
745 -183 m 1
 745 -276 l 1
 745 -369 l 1
 466 -369 l 1
 186 -369 l 1
 186 -276 l 1
 186 -183 l 1x9a80
 466 -183 l 1
 745 -183 l 1
EndSplineSet
EndChar

StartChar: LATIN
Encoding: 256 256 192
Width: 1117
VWidth: 40
Flags: HW
HStem: 4 21G<0 186 745 931> 376 186<186 745> 914 20G<745 931> 934 187<186 745> 1307 186<186 745>
VStem: 0 186<4 376 562 934> 186 559<934 1121 1307 1493> 745 186<4 376 562 934>
LayerCount: 2
Fore
SplineSet
186 1400 m 1xca
 186 1493 l 1
 466 1493 l 1
 745 1493 l 1
 745 1400 l 1
 745 1307 l 1
 466 1307 l 1
 186 1307 l 1
 186 1400 l 1xca
186 1028 m 1
 186 1121 l 1
 466 1121 l 1
 745 1121 l 1xda
 745 1028 l 1
 745 934 l 1xea
 466 934 l 1
 186 934 l 1
 186 748 l 1
 186 562 l 1
 466 562 l 1
 745 562 l 1
 745 748 l 1xdd
 745 934 l 1xea
 838 934 l 1
 931 934 l 1xe9
 931 469 l 1
 931 4 l 1
 838 4 l 1
 745 4 l 1
 745 190 l 1
 745 376 l 1
 466 376 l 1
 186 376 l 1
 186 190 l 1
 186 4 l 1
 93 4 l 1
 0 4 l 1
 0 469 l 1
 0 934 l 1
 93 934 l 1
 186 934 l 1xdd
 186 1028 l 1
EndSplineSet
EndChar

StartChar: LATIN
Encoding: 257 257 193
Width: 1117
VWidth: 40
Flags: HW
HStem: 4 186<186 745> 190 186<0 186> 376 186<186 745> 748 187<186 745> 1121 186<186 745>
VStem: 0 186<190 376> 186 559<748 935 1121 1307> 745 186<190 376 562 748>
LayerCount: 2
Fore
SplineSet
186 1214 m 1x1a
 186 1307 l 1
 466 1307 l 1
 745 1307 l 1
 745 1214 l 1
 745 1121 l 1
 466 1121 l 1
 186 1121 l 1
 186 1214 l 1x1a
745 283 m 1x9d
 745 376 l 1
 466 376 l 1xbd
 186 376 l 1x5d
 186 283 l 1
 186 190 l 1
 466 190 l 1
 745 190 l 1
 745 283 l 1x9d
186 841 m 1x1a
 186 935 l 1
 466 935 l 1
 745 935 l 1
 745 841 l 1
 745 748 l 1
 466 748 l 1
 186 748 l 1
 186 841 l 1x1a
186 376 m 1x5c
 186 469 l 1
 186 562 l 1x3a
 466 562 l 1
 745 562 l 1
 745 655 l 1x39
 745 748 l 1x3a
 838 748 l 1
 931 748 l 1
 931 376 l 1
 931 4 l 1xb9
 559 4 l 1
 186 4 l 1
 186 97 l 1xba
 186 190 l 1xbc
 93 190 l 1
 0 190 l 1
 0 283 l 1
 0 376 l 1
 93 376 l 1
 186 376 l 1x5c
EndSplineSet
EndChar

StartChar: LATIN
Encoding: 258 258 194
Width: 1117
VWidth: 40
Flags: HW
HStem: 4 21G<0 186 745 931> 376 186<186 745> 934 373<186 745> 1307 186<0 186 745 931>
VStem: 0 186<4 376 562 934 1307 1493> 186 559<934 1307> 745 186<4 376 562 934 1307 1493>
LayerCount: 2
Fore
SplineSet
0 1400 m 1xd8
 0 1493 l 1
 93 1493 l 1
 186 1493 l 1xd8
 186 1400 l 1
 186 1307 l 1xe8
 93 1307 l 1
 0 1307 l 1
 0 1400 l 1xd8
186 934 m 1xe8
 186 748 l 1
 186 562 l 1
 466 562 l 1
 745 562 l 1
 745 748 l 1xea
 745 934 l 1xe4
 466 934 l 1
 186 934 l 1xe8
186 934 m 1
 186 1121 l 1xe4
 186 1307 l 1xe8
 466 1307 l 1
 745 1307 l 1
 745 1121 l 1
 745 934 l 1xe4
 838 934 l 1
 931 934 l 1
 931 469 l 1
 931 4 l 1
 838 4 l 1
 745 4 l 1
 745 190 l 1
 745 376 l 1
 466 376 l 1
 186 376 l 1
 186 190 l 1
 186 4 l 1
 93 4 l 1
 0 4 l 1
 0 469 l 1
 0 934 l 1
 93 934 l 1
 186 934 l 1
745 1307 m 1
 745 1400 l 1
 745 1493 l 1
 838 1493 l 1
 931 1493 l 1
 931 1400 l 1
 931 1307 l 1
 838 1307 l 1xd2
 745 1307 l 1
EndSplineSet
EndChar

StartChar: LATIN
Encoding: 259 259 195
Width: 1117
VWidth: 40
Flags: HW
HStem: 4 186<186 745> 190 186<0 186> 376 186<186 745> 748 186<186 745> 1121 186<186 745> 1307 186<0 186 745 931>
VStem: 0 186<190 376 1307 1493> 186 559<748 934 1121 1307> 745 186<190 376 562 748 1307 1493>
LayerCount: 2
Fore
SplineSet
0 1400 m 1x16
 0 1493 l 1
 93 1493 l 1
 186 1493 l 1x16
 186 1400 l 1
 186 1307 l 1x1a
 93 1307 l 1
 0 1307 l 1
 0 1400 l 1x16
745 283 m 1x9280
 745 376 l 1
 466 376 l 1xb280
 186 376 l 1x5280
 186 283 l 1
 186 190 l 1
 466 190 l 1
 745 190 l 1
 745 283 l 1x9280
186 841 m 1x11
 186 934 l 1
 466 934 l 1
 745 934 l 1
 745 841 l 1
 745 748 l 1
 466 748 l 1
 186 748 l 1
 186 841 l 1x11
745 1307 m 1x19
 745 1214 l 1
 745 1121 l 1
 466 1121 l 1
 186 1121 l 1
 186 1214 l 1x19
 186 1307 l 1x1a
 466 1307 l 1
 745 1307 l 1x19
745 1307 m 1
 745 1400 l 1
 745 1493 l 1
 838 1493 l 1
 931 1493 l 1
 931 1400 l 1
 931 1307 l 1
 838 1307 l 1x1480
 745 1307 l 1
186 376 m 1x52
 186 469 l 1
 186 562 l 1x31
 466 562 l 1
 745 562 l 1
 745 655 l 1x3080
 745 748 l 1x31
 838 748 l 1
 931 748 l 1
 931 376 l 1
 931 4 l 1xb080
 559 4 l 1
 186 4 l 1
 186 97 l 1xb1
 186 190 l 1xb2
 93 190 l 1
 0 190 l 1
 0 283 l 1
 0 376 l 1
 93 376 l 1
 186 376 l 1x52
EndSplineSet
EndChar

StartChar: LATIN
Encoding: 260 260 196
Width: 1117
VWidth: 40
Flags: HW
HStem: -369 186<745 931> -17 20G<559 745> 3 21G<0 186 745 931> 376 186<186 745> 935 186<186 372 559 745> 1121 186<372 559>
VStem: 0 186<3 376 562 935> 186 186<935 1121> 372 187<1121 1307> 559 186<-183 3 935 1121> 745 186<3 376 562 935>
LayerCount: 2
Fore
SplineSet
372 1214 m 1xb880
 372 1307 l 1
 466 1307 l 1
 559 1307 l 1x9480
 559 1214 l 1
 559 1121 l 1x9880
 466 1121 l 1x9480
 372 1121 l 1
 372 1028 l 1
 372 935 l 1x99
 279 935 l 1
 186 935 l 1
 186 748 l 1
 186 562 l 1
 466 562 l 1
 745 562 l 1
 745 748 l 1x9a20
 745 935 l 1
 652 935 l 1
 559 935 l 1
 559 1028 l 1x9840
 559 1121 l 1x9880
 652 1121 l 1
 745 1121 l 1
 745 1028 l 1
 745 935 l 1x9840
 838 935 l 1
 931 935 l 1
 931 469 l 1
 931 3 l 1
 838 3 l 1xb820
 745 3 l 1xd040
 745 190 l 1
 745 376 l 1
 466 376 l 1
 186 376 l 1
 186 190 l 1
 186 3 l 1
 93 3 l 1
 0 3 l 1
 0 469 l 1
 0 935 l 1
 93 935 l 1
 186 935 l 1xba20
 186 1028 l 1
 186 1121 l 1
 279 1121 l 1
 372 1121 l 1xb9
 372 1214 l 1xb880
745 3 m 1xd040
 745 -90 l 1
 745 -183 l 1xd040
 838 -183 l 1
 931 -183 l 1
 931 -276 l 1
 931 -369 l 1
 745 -369 l 1xd020
 559 -369 l 1
 559 -183 l 1
 559 3 l 1
 652 3 l 1
 745 3 l 1xd040
EndSplineSet
EndChar

StartChar: LATIN
Encoding: 261 261 197
Width: 1117
VWidth: 40
Flags: HW
HStem: -369 186<745 931> 3 187<186 559> 190 186<0 186> 376 186<186 745> 748 187<186 745>
VStem: 0 186<190 376> 559 186<-183 3> 745 186<190 376 562 748>
LayerCount: 2
Fore
SplineSet
745 283 m 1xad
 745 376 l 1
 466 376 l 1x9d
 186 376 l 1xad
 186 283 l 1
 186 190 l 1
 466 190 l 1xcd
 745 190 l 1
 745 283 l 1xad
186 842 m 1
 186 935 l 1
 466 935 l 1
 745 935 l 1
 745 842 l 1
 745 748 l 1
 466 748 l 1
 186 748 l 1
 186 842 l 1
186 376 m 1xae
 186 469 l 1
 186 562 l 1
 466 562 l 1
 745 562 l 1
 745 655 l 1
 745 748 l 1
 838 748 l 1
 931 748 l 1
 931 376 l 1
 931 3 l 1xdd
 838 3 l 1
 745 3 l 1
 745 -90 l 1
 745 -183 l 1xde
 838 -183 l 1
 931 -183 l 1
 931 -276 l 1
 931 -369 l 1
 745 -369 l 1xdd
 559 -369 l 1
 559 -183 l 1
 559 3 l 1
 373 3 l 1
 186 3 l 1
 186 96 l 1
 186 190 l 1xde
 93 190 l 1
 0 190 l 1
 0 283 l 1
 0 376 l 1
 93 376 l 1
 186 376 l 1xae
EndSplineSet
EndChar

StartChar: LATIN
Encoding: 262 262 198
Width: 1117
VWidth: 40
Flags: HW
HStem: 4 186<186 745> 190 186<745 931> 748 186<745 931> 934 187<186 372 559 745> 1287 20G<372 559> 1307 186<559 745>
VStem: 0 186<190 934> 186 559<4 190 934 1121> 372 187<1121 1307> 559 186<1307 1493> 745 186<190 376 748 934>
LayerCount: 2
Fore
SplineSet
559 1400 m 1x0840
 559 1493 l 1
 652 1493 l 1
 745 1493 l 1
 745 1400 l 1
 745 1307 l 1
 652 1307 l 1x0440
 559 1307 l 1x0880
 559 1400 l 1x0840
745 190 m 1x91
 745 97 l 1
 745 4 l 1
 466 4 l 1
 186 4 l 1
 186 97 l 1x91
 186 190 l 1x92
 93 190 l 1
 0 190 l 1
 0 562 l 1
 0 934 l 1
 93 934 l 1
 186 934 l 1x52
 186 1028 l 1
 186 1121 l 1x51
 279 1121 l 1
 372 1121 l 1
 372 1214 l 1
 372 1307 l 1
 466 1307 l 1
 559 1307 l 1
 559 1214 l 1
 559 1121 l 1x5880
 652 1121 l 1
 745 1121 l 1x59
 745 1028 l 1
 745 934 l 1x21
 466 934 l 1
 186 934 l 1
 186 562 l 1
 186 190 l 1x92
 466 190 l 1
 745 190 l 1x91
745 190 m 1
 745 283 l 1
 745 376 l 1
 838 376 l 1
 931 376 l 1
 931 283 l 1
 931 190 l 1
 838 190 l 1x4020
 745 190 l 1
745 934 m 1x21
 838 934 l 1
 931 934 l 1
 931 841 l 1
 931 748 l 1
 838 748 l 1
 745 748 l 1
 745 841 l 1x2020
 745 934 l 1x21
EndSplineSet
EndChar

StartChar: LATIN
Encoding: 263 263 199
Width: 1117
VWidth: 40
Flags: HW
HStem: 4 186<186 745> 190 186<745 931> 562 186<745 931> 748 186<186 745> 1121 186<372 559> 1307 186<559 745>
VStem: 0 186<190 748> 186 559<4 190 748 934> 372 187<1121 1307> 559 186<1307 1493> 745 186<190 376 562 748>
LayerCount: 2
Fore
SplineSet
559 1400 m 1x0840
 559 1493 l 1
 652 1493 l 1
 745 1493 l 1
 745 1400 l 1
 745 1307 l 1
 652 1307 l 1x0440
 559 1307 l 1x0880
 559 1400 l 1x0840
186 841 m 1x11
 186 934 l 1
 466 934 l 1
 745 934 l 1x11
 745 841 l 1
 745 748 l 1x21
 466 748 l 1
 186 748 l 1x12
 186 841 l 1x11
559 1307 m 1x0880
 559 1214 l 1
 559 1121 l 1
 466 1121 l 1
 372 1121 l 1
 372 1214 l 1
 372 1307 l 1
 466 1307 l 1
 559 1307 l 1x0880
745 190 m 1x91
 745 97 l 1
 745 4 l 1
 466 4 l 1
 186 4 l 1
 186 97 l 1x91
 186 190 l 1x92
 93 190 l 1
 0 190 l 1x42
 0 469 l 1
 0 748 l 1
 93 748 l 1
 186 748 l 1
 186 469 l 1
 186 190 l 1x92
 466 190 l 1
 745 190 l 1x91
745 190 m 1
 745 283 l 1
 745 376 l 1
 838 376 l 1
 931 376 l 1
 931 283 l 1
 931 190 l 1
 838 190 l 1x4020
 745 190 l 1
745 748 m 1x21
 838 748 l 1
 931 748 l 1
 931 655 l 1
 931 562 l 1
 838 562 l 1
 745 562 l 1
 745 655 l 1x2020
 745 748 l 1x21
EndSplineSet
EndChar

StartChar: LATIN
Encoding: 264 264 200
Width: 1117
VWidth: 40
Flags: HW
HStem: 4 186<186 745> 190 186<745 931> 748 186<745 931> 934 373<186 372 559 745> 934 187<372 559> 1307 186<372 559>
VStem: 0 186<190 934> 186 186<1121 1307> 372 187<1307 1493> 559 186<1121 1307> 745 186<190 376 748 934>
LayerCount: 2
Fore
SplineSet
372 1400 m 1x1080
 372 1493 l 1
 466 1493 l 1
 559 1493 l 1x0480
 559 1400 l 1
 559 1307 l 1x1080
 466 1307 l 1x0480
 372 1307 l 1x11
 372 1214 l 1
 372 1121 l 1
 466 1121 l 1
 559 1121 l 1
 559 1214 l 1x0940
 559 1307 l 1x1080
 652 1307 l 1
 745 1307 l 1x1040
 745 1121 l 1x0840
 745 934 l 1x2020
 466 934 l 1x0820
 186 934 l 1x1220
 186 1121 l 1x09
 186 1307 l 1
 279 1307 l 1
 372 1307 l 1x11
 372 1400 l 1x1080
745 190 m 1x9220
 745 97 l 1
 745 4 l 1
 466 4 l 1
 186 4 l 1
 186 97 l 1x9120
 186 190 l 1x92
 93 190 l 1
 0 190 l 1
 0 562 l 1
 0 934 l 1
 93 934 l 1x4a
 186 934 l 1
 186 562 l 1
 186 190 l 1
 466 190 l 1
 745 190 l 1x9220
745 190 m 1
 745 283 l 1
 745 376 l 1
 838 376 l 1
 931 376 l 1
 931 283 l 1
 931 190 l 1
 838 190 l 1x4020
 745 190 l 1
745 934 m 1x2020
 838 934 l 1
 931 934 l 1
 931 841 l 1
 931 748 l 1
 838 748 l 1
 745 748 l 1
 745 841 l 1
 745 934 l 1x2020
EndSplineSet
EndChar

StartChar: LATIN
Encoding: 265 265 201
Width: 1117
VWidth: 40
Flags: HW
HStem: 4 186<186 745> 190 186<745 931> 562 186<745 931> 748 186<186 745> 1121 186<186 372 559 745> 1307 186<372 559>
VStem: 0 186<190 748> 186 186<1121 1307> 372 187<1307 1493> 559 186<1121 1307> 745 186<190 376 562 748>
LayerCount: 2
Fore
SplineSet
372 1400 m 1x0880
 372 1493 l 1
 466 1493 l 1
 559 1493 l 1x0480
 559 1400 l 1
 559 1307 l 1x0880
 466 1307 l 1x0480
 372 1307 l 1x09
 372 1400 l 1x0880
186 841 m 1x11
 186 934 l 1
 466 934 l 1
 745 934 l 1x1120
 745 841 l 1
 745 748 l 1x2120
 466 748 l 1
 186 748 l 1x1220
 186 841 l 1x11
372 1307 m 1x09
 372 1214 l 1
 372 1121 l 1
 279 1121 l 1
 186 1121 l 1
 186 1214 l 1
 186 1307 l 1
 279 1307 l 1
 372 1307 l 1x09
559 1307 m 1x0880
 652 1307 l 1
 745 1307 l 1
 745 1214 l 1
 745 1121 l 1
 652 1121 l 1
 559 1121 l 1
 559 1214 l 1x0840
 559 1307 l 1x0880
745 190 m 1x9220
 745 97 l 1
 745 4 l 1
 466 4 l 1
 186 4 l 1
 186 97 l 1x9120
 186 190 l 1x92
 93 190 l 1
 0 190 l 1x42
 0 469 l 1
 0 748 l 1
 93 748 l 1
 186 748 l 1
 186 469 l 1
 186 190 l 1
 466 190 l 1
 745 190 l 1x9220
745 190 m 1
 745 283 l 1
 745 376 l 1
 838 376 l 1
 931 376 l 1
 931 283 l 1
 931 190 l 1
 838 190 l 1x4020
 745 190 l 1
745 748 m 1x2020
 838 748 l 1
 931 748 l 1
 931 655 l 1
 931 562 l 1
 838 562 l 1
 745 562 l 1
 745 655 l 1
 745 748 l 1x2020
EndSplineSet
EndChar

StartChar: LATIN
Encoding: 266 266 202
Width: 1117
VWidth: 40
Flags: HW
HStem: 4 186<186 745> 190 186<745 931> 748 186<745 931> 934 187<186 745> 1307 186<372 559>
VStem: 0 186<190 934> 186 559<4 190 934 1121> 372 187<1307 1493> 745 186<190 376 748 934>
LayerCount: 2
Fore
SplineSet
372 1400 m 1x09
 372 1493 l 1
 466 1493 l 1
 559 1493 l 1
 559 1400 l 1
 559 1307 l 1
 466 1307 l 1
 372 1307 l 1
 372 1400 l 1x09
186 1028 m 1x1a
 186 1121 l 1
 466 1121 l 1
 745 1121 l 1x1a
 745 1028 l 1
 745 934 l 1x2a
 466 934 l 1
 186 934 l 1x1c
 186 1028 l 1x1a
745 190 m 1x9a
 745 97 l 1
 745 4 l 1
 466 4 l 1
 186 4 l 1
 186 97 l 1x9a
 186 190 l 1x9c
 93 190 l 1
 0 190 l 1x4c
 0 562 l 1
 0 934 l 1
 93 934 l 1
 186 934 l 1
 186 562 l 1
 186 190 l 1x9c
 466 190 l 1
 745 190 l 1x9a
745 190 m 1
 745 283 l 1
 745 376 l 1
 838 376 l 1
 931 376 l 1
 931 283 l 1
 931 190 l 1
 838 190 l 1x4880
 745 190 l 1
745 934 m 1x2a
 838 934 l 1
 931 934 l 1
 931 841 l 1
 931 748 l 1
 838 748 l 1
 745 748 l 1
 745 841 l 1x2880
 745 934 l 1x2a
EndSplineSet
EndChar

StartChar: LATIN
Encoding: 267 267 203
Width: 1117
VWidth: 40
Flags: HW
HStem: 4 186<186 745> 190 186<745 931> 562 186<745 931> 748 187<186 745> 1121 186<372 559>
VStem: 0 186<190 748> 186 559<4 190 748 935> 372 187<1121 1307> 745 186<190 376 562 748>
LayerCount: 2
Fore
SplineSet
372 1214 m 1x09
 372 1307 l 1
 466 1307 l 1
 559 1307 l 1
 559 1214 l 1
 559 1121 l 1
 466 1121 l 1
 372 1121 l 1
 372 1214 l 1x09
186 841 m 1x1a
 186 935 l 1
 466 935 l 1
 745 935 l 1x1a
 745 841 l 1
 745 748 l 1x2a
 466 748 l 1
 186 748 l 1x1c
 186 841 l 1x1a
745 190 m 1x9a
 745 97 l 1
 745 4 l 1
 466 4 l 1
 186 4 l 1
 186 97 l 1x9a
 186 190 l 1x9c
 93 190 l 1
 0 190 l 1x4c
 0 469 l 1
 0 748 l 1
 93 748 l 1
 186 748 l 1
 186 469 l 1
 186 190 l 1x9c
 466 190 l 1
 745 190 l 1x9a
745 190 m 1
 745 283 l 1
 745 376 l 1
 838 376 l 1
 931 376 l 1
 931 283 l 1
 931 190 l 1
 838 190 l 1x4880
 745 190 l 1
745 748 m 1x2a
 838 748 l 1
 931 748 l 1
 931 655 l 1
 931 562 l 1
 838 562 l 1
 745 562 l 1
 745 655 l 1x2880
 745 748 l 1x2a
EndSplineSet
EndChar

StartChar: LATIN
Encoding: 268 268 204
Width: 1117
VWidth: 40
Flags: HW
HStem: 4 186<186 745> 190 186<745 931> 748 186<745 931> 934 187<186 372 559 745> 1287 20G<372 559> 1307 186<186 372 559 745>
VStem: 0 186<190 934> 186 186<1307 1493> 372 187<1121 1307> 559 186<1307 1493> 745 186<190 376 748 934>
LayerCount: 2
Fore
SplineSet
186 1400 m 1x05
 186 1493 l 1
 279 1493 l 1
 372 1493 l 1x05
 372 1400 l 1
 372 1307 l 1x09
 279 1307 l 1
 186 1307 l 1
 186 1400 l 1x05
745 190 m 1x92a0
 745 97 l 1
 745 4 l 1
 466 4 l 1
 186 4 l 1
 186 97 l 1x9120
 186 190 l 1x92
 93 190 l 1
 0 190 l 1
 0 562 l 1
 0 934 l 1
 93 934 l 1
 186 934 l 1x52
 186 1028 l 1
 186 1121 l 1x51
 279 1121 l 1
 372 1121 l 1
 372 1214 l 1x5080
 372 1307 l 1x59
 466 1307 l 1
 559 1307 l 1
 559 1214 l 1
 559 1121 l 1
 652 1121 l 1
 745 1121 l 1x58a0
 745 1028 l 1
 745 934 l 1x20a0
 466 934 l 1
 186 934 l 1
 186 562 l 1
 186 190 l 1
 466 190 l 1
 745 190 l 1x92a0
745 190 m 1
 745 283 l 1
 745 376 l 1
 838 376 l 1
 931 376 l 1
 931 283 l 1
 931 190 l 1
 838 190 l 1x4020
 745 190 l 1
745 934 m 1x2020
 838 934 l 1
 931 934 l 1
 931 841 l 1
 931 748 l 1
 838 748 l 1
 745 748 l 1
 745 841 l 1
 745 934 l 1x2020
559 1307 m 1x0880
 559 1400 l 1
 559 1493 l 1
 652 1493 l 1
 745 1493 l 1
 745 1400 l 1
 745 1307 l 1
 652 1307 l 1x0440
 559 1307 l 1x0880
EndSplineSet
EndChar

StartChar: LATIN
Encoding: 269 269 205
Width: 1117
VWidth: 40
Flags: HW
HStem: 4 186<186 745> 190 186<745 931> 562 186<745 931> 748 186<186 745> 1121 186<372 559> 1307 186<186 372 559 745>
VStem: 0 186<190 748> 186 186<1307 1493> 372 187<1121 1307> 559 186<1307 1493> 745 186<190 376 562 748>
LayerCount: 2
Fore
SplineSet
186 1400 m 1x05
 186 1493 l 1
 279 1493 l 1
 372 1493 l 1x05
 372 1400 l 1
 372 1307 l 1x09
 279 1307 l 1
 186 1307 l 1
 186 1400 l 1x05
186 841 m 1
 186 934 l 1
 466 934 l 1
 745 934 l 1x1120
 745 841 l 1
 745 748 l 1x2120
 466 748 l 1
 186 748 l 1x1220
 186 841 l 1
559 1307 m 1x0880
 559 1214 l 1
 559 1121 l 1
 466 1121 l 1
 372 1121 l 1
 372 1214 l 1x0880
 372 1307 l 1x09
 466 1307 l 1
 559 1307 l 1x0880
559 1307 m 1
 559 1400 l 1
 559 1493 l 1
 652 1493 l 1
 745 1493 l 1
 745 1400 l 1
 745 1307 l 1
 652 1307 l 1x0440
 559 1307 l 1
745 190 m 1x9220
 745 97 l 1
 745 4 l 1
 466 4 l 1
 186 4 l 1
 186 97 l 1x9120
 186 190 l 1x92
 93 190 l 1
 0 190 l 1x42
 0 469 l 1
 0 748 l 1
 93 748 l 1
 186 748 l 1
 186 469 l 1
 186 190 l 1
 466 190 l 1
 745 190 l 1x9220
745 190 m 1
 745 283 l 1
 745 376 l 1
 838 376 l 1
 931 376 l 1
 931 283 l 1
 931 190 l 1
 838 190 l 1x4020
 745 190 l 1
745 748 m 1x2020
 838 748 l 1
 931 748 l 1
 931 655 l 1
 931 562 l 1
 838 562 l 1
 745 562 l 1
 745 655 l 1
 745 748 l 1x2020
EndSplineSet
EndChar

StartChar: LATIN
Encoding: 270 270 206
Width: 1117
VWidth: 40
Flags: HW
HStem: 4 186<186 745> 934 187<186 372 559 745> 1287 20G<372 559> 1307 186<186 372 559 745>
VStem: 0 186<190 934> 186 186<1307 1493> 372 187<1121 1307> 559 186<1307 1493> 745 186<190 934>
LayerCount: 2
Fore
SplineSet
186 1400 m 1xd4
 186 1493 l 1
 279 1493 l 1
 372 1493 l 1xd4
 372 1400 l 1
 372 1307 l 1xe4
 279 1307 l 1
 186 1307 l 1
 186 1400 l 1xd4
745 190 m 1xc880
 745 562 l 1
 745 934 l 1
 466 934 l 1
 186 934 l 1
 186 562 l 1
 186 190 l 1
 466 190 l 1
 745 190 l 1xc880
745 190 m 1
 745 97 l 1
 745 4 l 1
 373 4 l 1
 0 4 l 1
 0 562 l 1
 0 1121 l 1xea80
 186 1121 l 1xe4
 372 1121 l 1
 372 1214 l 1xe2
 372 1307 l 1xe4
 466 1307 l 1
 559 1307 l 1
 559 1214 l 1
 559 1121 l 1xe2
 652 1121 l 1
 745 1121 l 1
 745 1028 l 1
 745 934 l 1
 838 934 l 1
 931 934 l 1
 931 562 l 1
 931 190 l 1
 838 190 l 1
 745 190 l 1
559 1307 m 1
 559 1400 l 1
 559 1493 l 1
 652 1493 l 1
 745 1493 l 1
 745 1400 l 1
 745 1307 l 1
 652 1307 l 1xd1
 559 1307 l 1
EndSplineSet
EndChar

StartChar: LATIN
Encoding: 271 271 207
Width: 1117
VWidth: 40
Flags: HW
HStem: 4 186<186 559> 190 186<559 745> 562 186<559 745> 748 186<186 559> 1121 186<372 559> 1307 186<186 372 559 745>
VStem: 0 186<190 748> 186 186<1307 1493> 372 187<1121 1307> 559 186<1307 1493> 745 186<4 190 376 562 748 1121>
LayerCount: 2
Fore
SplineSet
186 1400 m 1x05
 186 1493 l 1
 279 1493 l 1
 372 1493 l 1x05
 372 1400 l 1
 372 1307 l 1x09
 279 1307 l 1
 186 1307 l 1
 186 1400 l 1x05
745 934 m 1x1020
 745 1121 l 1
 838 1121 l 1
 931 1121 l 1
 931 562 l 1
 931 4 l 1
 838 4 l 1
 745 4 l 1xa820
 745 97 l 1
 745 190 l 1
 652 190 l 1x4020
 559 190 l 1x8040
 559 283 l 1
 559 376 l 1x4040
 652 376 l 1
 745 376 l 1
 745 469 l 1
 745 562 l 1x6020
 652 562 l 1
 559 562 l 1
 559 655 l 1
 559 748 l 1x6040
 373 748 l 1
 186 748 l 1
 186 469 l 1
 186 190 l 1x9240
 373 190 l 1
 559 190 l 1
 559 97 l 1
 559 4 l 1
 373 4 l 1
 186 4 l 1
 186 97 l 1x9140
 186 190 l 1x92
 93 190 l 1
 0 190 l 1
 0 469 l 1
 0 748 l 1
 93 748 l 1
 186 748 l 1x52
 186 841 l 1
 186 934 l 1
 373 934 l 1
 559 934 l 1x5140
 559 841 l 1
 559 748 l 1x2140
 652 748 l 1
 745 748 l 1x2020
 745 934 l 1x1020
559 1307 m 1x0880
 559 1214 l 1
 559 1121 l 1
 466 1121 l 1
 372 1121 l 1
 372 1214 l 1x0880
 372 1307 l 1x09
 466 1307 l 1
 559 1307 l 1x0880
559 1307 m 1
 559 1400 l 1
 559 1493 l 1
 652 1493 l 1
 745 1493 l 1
 745 1400 l 1
 745 1307 l 1
 652 1307 l 1x0440
 559 1307 l 1
EndSplineSet
EndChar

StartChar: LATIN
Encoding: 272 272 208
Width: 1117
VWidth: 40
Flags: HW
HStem: 4 186<372 931> 562 186<0 186 372 559> 1121 186<372 931>
VStem: 186 186<190 562 748 1121> 931 186<190 1121>
LayerCount: 2
Fore
SplineSet
186 1028 m 1
 186 1307 l 1
 559 1307 l 1
 931 1307 l 1
 931 1214 l 1
 931 1121 l 1
 652 1121 l 1
 372 1121 l 1
 372 934 l 1
 372 748 l 1
 466 748 l 1
 559 748 l 1
 559 655 l 1
 559 562 l 1
 466 562 l 1
 372 562 l 1
 372 376 l 1
 372 190 l 1
 652 190 l 1
 931 190 l 1
 931 655 l 1
 931 1121 l 1
 1024 1121 l 1
 1117 1121 l 1
 1117 655 l 1
 1117 190 l 1
 1024 190 l 1
 931 190 l 1
 931 97 l 1
 931 4 l 1
 559 4 l 1
 186 4 l 1
 186 283 l 1
 186 562 l 1
 93 562 l 1
 0 562 l 1
 0 655 l 1
 0 748 l 1
 93 748 l 1
 186 748 l 1
 186 1028 l 1
EndSplineSet
EndChar

StartChar: LATIN
Encoding: 273 273 209
Width: 1117
VWidth: 40
Flags: HW
HStem: 4 186<186 559> 562 186<186 559> 935 186<372 559 745 931> 1287 20G<559 745>
VStem: 0 186<190 562> 186 559<4 190 562 748> 559 186<190 562 748 935 1121 1307>
LayerCount: 2
Fore
SplineSet
559 376 m 1xfa
 559 562 l 1
 373 562 l 1
 186 562 l 1
 186 376 l 1
 186 190 l 1
 373 190 l 1
 559 190 l 1
 559 376 l 1xfa
559 1214 m 1
 559 1307 l 1
 652 1307 l 1
 745 1307 l 1
 745 1214 l 1
 745 1121 l 1
 838 1121 l 1
 931 1121 l 1
 931 1028 l 1
 931 935 l 1
 838 935 l 1
 745 935 l 1
 745 469 l 1xf2
 745 4 l 1
 466 4 l 1
 186 4 l 1
 186 97 l 1xf4
 186 190 l 1
 93 190 l 1
 0 190 l 1
 0 376 l 1
 0 562 l 1
 93 562 l 1
 186 562 l 1xf8
 186 655 l 1
 186 748 l 1xf4
 373 748 l 1
 559 748 l 1
 559 841 l 1
 559 935 l 1
 466 935 l 1
 372 935 l 1
 372 1028 l 1
 372 1121 l 1
 466 1121 l 1
 559 1121 l 1
 559 1214 l 1
EndSplineSet
EndChar

StartChar: LATIN
Encoding: 274 274 210
Width: 1117
VWidth: 40
Flags: HW
HStem: 4 186<186 931> 562 186<186 745> 934 187<186 931> 1307 186<186 745>
VStem: 0 186<190 562 748 934>
LayerCount: 2
Fore
SplineSet
186 1400 m 1
 186 1493 l 1
 466 1493 l 1
 745 1493 l 1
 745 1400 l 1
 745 1307 l 1
 466 1307 l 1
 186 1307 l 1
 186 1400 l 1
0 562 m 1
 0 1121 l 1
 465 1121 l 1
 931 1121 l 1
 931 1028 l 1
 931 934 l 1
 559 934 l 1
 186 934 l 1
 186 841 l 1
 186 748 l 1
 466 748 l 1
 745 748 l 1
 745 655 l 1
 745 562 l 1
 466 562 l 1
 186 562 l 1
 186 376 l 1
 186 190 l 1
 559 190 l 1
 931 190 l 1
 931 97 l 1
 931 4 l 1
 465 4 l 1
 0 4 l 1
 0 562 l 1
EndSplineSet
EndChar

StartChar: LATIN
Encoding: 275 275 211
Width: 1117
VWidth: 40
Flags: HW
HStem: 4 186<186 745> 376 186<186 745> 748 187<186 745> 1121 186<186 745>
VStem: 0 186<190 376 562 748> 186 559<4 190 748 935 1121 1307> 745 186<562 748>
LayerCount: 2
Fore
SplineSet
186 1214 m 1xf4
 186 1307 l 1
 466 1307 l 1
 745 1307 l 1
 745 1214 l 1
 745 1121 l 1
 466 1121 l 1
 186 1121 l 1
 186 1214 l 1xf4
186 841 m 1
 186 935 l 1
 466 935 l 1
 745 935 l 1
 745 841 l 1
 745 748 l 1xf4
 466 748 l 1
 186 748 l 1
 186 655 l 1
 186 562 l 1
 466 562 l 1
 745 562 l 1
 745 655 l 1xfa
 745 748 l 1xf4
 838 748 l 1
 931 748 l 1
 931 562 l 1
 931 376 l 1
 559 376 l 1
 186 376 l 1
 186 283 l 1
 186 190 l 1
 93 190 l 1
 0 190 l 1
 0 469 l 1
 0 748 l 1
 93 748 l 1
 186 748 l 1xfa
 186 841 l 1
186 190 m 1xf8
 466 190 l 1
 745 190 l 1
 745 97 l 1
 745 4 l 1
 466 4 l 1
 186 4 l 1
 186 97 l 1xf4
 186 190 l 1xf8
EndSplineSet
EndChar

StartChar: LATIN
Encoding: 276 276 212
Width: 1117
VWidth: 40
Flags: HW
HStem: 4 186<186 931> 562 186<186 745> 934 373<186 745> 934 187<745 931> 1307 186<0 186 745 931>
VStem: 0 186<190 562 748 934 1307 1493> 745 186<1307 1493>
LayerCount: 2
Fore
SplineSet
0 1400 m 1xce
 0 1493 l 1
 93 1493 l 1
 186 1493 l 1xce
 186 1400 l 1
 186 1307 l 1xe6
 93 1307 l 1
 0 1307 l 1
 0 1400 l 1xce
745 1307 m 1xe6
 745 1214 l 1
 745 1121 l 1
 838 1121 l 1
 931 1121 l 1
 931 1028 l 1
 931 934 l 1xd6
 559 934 l 1
 186 934 l 1xe6
 186 841 l 1
 186 748 l 1
 466 748 l 1
 745 748 l 1
 745 655 l 1
 745 562 l 1
 466 562 l 1
 186 562 l 1
 186 376 l 1
 186 190 l 1
 559 190 l 1
 931 190 l 1
 931 97 l 1
 931 4 l 1
 465 4 l 1
 0 4 l 1
 0 562 l 1
 0 1121 l 1
 93 1121 l 1
 186 1121 l 1xd6
 186 1214 l 1
 186 1307 l 1
 466 1307 l 1
 745 1307 l 1xe6
745 1307 m 1xe6
 745 1400 l 1
 745 1493 l 1
 838 1493 l 1
 931 1493 l 1
 931 1400 l 1
 931 1307 l 1
 838 1307 l 1xce
 745 1307 l 1xe6
EndSplineSet
EndChar

StartChar: LATIN
Encoding: 277 277 213
Width: 1117
VWidth: 40
Flags: HW
HStem: 4 186<186 745> 376 186<186 745> 748 186<186 745> 1121 186<186 745> 1307 186<0 186 745 931>
VStem: 0 186<190 376 562 748 1307 1493> 186 559<4 190 748 934 1121 1307> 745 186<562 748 1307 1493>
LayerCount: 2
Fore
SplineSet
0 1400 m 1xec
 0 1493 l 1
 93 1493 l 1
 186 1493 l 1xec
 186 1400 l 1
 186 1307 l 1xf4
 93 1307 l 1
 0 1307 l 1
 0 1400 l 1xec
186 841 m 1xe2
 186 934 l 1
 466 934 l 1
 745 934 l 1
 745 841 l 1
 745 748 l 1xe2
 466 748 l 1
 186 748 l 1
 186 655 l 1
 186 562 l 1
 466 562 l 1
 745 562 l 1
 745 655 l 1xe5
 745 748 l 1xe2
 838 748 l 1
 931 748 l 1
 931 562 l 1
 931 376 l 1
 559 376 l 1
 186 376 l 1
 186 283 l 1
 186 190 l 1
 93 190 l 1
 0 190 l 1
 0 469 l 1
 0 748 l 1
 93 748 l 1
 186 748 l 1xe5
 186 841 l 1xe2
745 1307 m 1xf2
 745 1214 l 1
 745 1121 l 1
 466 1121 l 1
 186 1121 l 1
 186 1214 l 1xf2
 186 1307 l 1xf4
 466 1307 l 1
 745 1307 l 1xf2
745 1307 m 1
 745 1400 l 1
 745 1493 l 1
 838 1493 l 1
 931 1493 l 1
 931 1400 l 1
 931 1307 l 1
 838 1307 l 1xe9
 745 1307 l 1
186 190 m 1xe4
 466 190 l 1
 745 190 l 1
 745 97 l 1
 745 4 l 1
 466 4 l 1
 186 4 l 1
 186 97 l 1xe2
 186 190 l 1xe4
EndSplineSet
EndChar

StartChar: LATIN
Encoding: 278 278 214
Width: 1117
VWidth: 40
Flags: HW
HStem: 4 186<186 931> 562 186<186 745> 934 187<186 931> 1307 186<372 559>
VStem: 0 186<190 562 748 934> 372 187<1307 1493>
LayerCount: 2
Fore
SplineSet
372 1400 m 1
 372 1493 l 1
 466 1493 l 1
 559 1493 l 1
 559 1400 l 1
 559 1307 l 1
 466 1307 l 1
 372 1307 l 1
 372 1400 l 1
0 562 m 1
 0 1121 l 1
 465 1121 l 1
 931 1121 l 1
 931 1028 l 1
 931 934 l 1
 559 934 l 1
 186 934 l 1
 186 841 l 1
 186 748 l 1
 466 748 l 1
 745 748 l 1
 745 655 l 1
 745 562 l 1
 466 562 l 1
 186 562 l 1
 186 376 l 1
 186 190 l 1
 559 190 l 1
 931 190 l 1
 931 97 l 1
 931 4 l 1
 465 4 l 1
 0 4 l 1
 0 562 l 1
EndSplineSet
EndChar

StartChar: LATIN
Encoding: 279 279 215
Width: 1117
VWidth: 40
Flags: HW
HStem: 4 186<186 745> 376 186<186 745> 748 187<186 745> 1121 186<372 559>
VStem: 0 186<190 376 562 748> 186 559<4 190 748 935> 372 187<1121 1307> 745 186<562 748>
LayerCount: 2
Fore
SplineSet
372 1214 m 1xf2
 372 1307 l 1
 466 1307 l 1
 559 1307 l 1
 559 1214 l 1
 559 1121 l 1
 466 1121 l 1
 372 1121 l 1
 372 1214 l 1xf2
186 841 m 1xf4
 186 935 l 1
 466 935 l 1
 745 935 l 1
 745 841 l 1
 745 748 l 1xf4
 466 748 l 1
 186 748 l 1
 186 655 l 1
 186 562 l 1
 466 562 l 1
 745 562 l 1
 745 655 l 1xf9
 745 748 l 1xf4
 838 748 l 1
 931 748 l 1
 931 562 l 1
 931 376 l 1
 559 376 l 1
 186 376 l 1
 186 283 l 1
 186 190 l 1
 93 190 l 1
 0 190 l 1
 0 469 l 1
 0 748 l 1
 93 748 l 1
 186 748 l 1xfb
 186 841 l 1xf4
186 190 m 1xf8
 466 190 l 1
 745 190 l 1
 745 97 l 1
 745 4 l 1
 466 4 l 1
 186 4 l 1
 186 97 l 1xf4
 186 190 l 1xf8
EndSplineSet
EndChar

StartChar: LATIN
Encoding: 280 280 216
Width: 1117
VWidth: 40
Flags: HW
HStem: -369 186<559 745> 3 187<186 372 559 931> 562 186<186 745> 1121 186<186 931>
VStem: 0 186<190 562 748 1121> 372 187<-183 3>
LayerCount: 2
Fore
SplineSet
0 655 m 1
 0 1307 l 1
 465 1307 l 1
 931 1307 l 1
 931 1214 l 1
 931 1121 l 1
 559 1121 l 1
 186 1121 l 1
 186 934 l 1
 186 748 l 1
 466 748 l 1
 745 748 l 1
 745 655 l 1
 745 562 l 1
 466 562 l 1
 186 562 l 1
 186 376 l 1
 186 190 l 1
 559 190 l 1
 931 190 l 1
 931 96 l 1
 931 3 l 1
 745 3 l 1
 559 3 l 1
 559 -90 l 1
 559 -183 l 1
 652 -183 l 1
 745 -183 l 1
 745 -276 l 1
 745 -369 l 1
 559 -369 l 1
 372 -369 l 1
 372 -183 l 1
 372 3 l 1
 186 3 l 1
 0 3 l 1
 0 655 l 1
EndSplineSet
EndChar

StartChar: LATIN
Encoding: 281 281 217
Width: 1117
VWidth: 40
Flags: HW
HStem: -369 186<559 745> 3 187<186 372 559 745> 376 186<186 745> 748 187<186 745>
VStem: 0 186<190 376 562 748> 186 559<3 190 748 935> 372 187<-183 3> 745 186<562 748>
LayerCount: 2
Fore
SplineSet
186 842 m 1xf4
 186 935 l 1
 466 935 l 1
 745 935 l 1
 745 842 l 1
 745 748 l 1xf4
 466 748 l 1
 186 748 l 1
 186 655 l 1
 186 562 l 1
 466 562 l 1
 745 562 l 1
 745 655 l 1xf9
 745 748 l 1xf4
 838 748 l 1
 931 748 l 1
 931 562 l 1
 931 376 l 1
 559 376 l 1
 186 376 l 1
 186 283 l 1
 186 190 l 1
 93 190 l 1
 0 190 l 1
 0 469 l 1
 0 748 l 1
 93 748 l 1
 186 748 l 1xfb
 186 842 l 1xf4
186 190 m 1xf8
 466 190 l 1
 745 190 l 1
 745 96 l 1
 745 3 l 1xf4
 652 3 l 1
 559 3 l 1
 559 -90 l 1
 559 -183 l 1
 652 -183 l 1
 745 -183 l 1
 745 -276 l 1
 745 -369 l 1
 559 -369 l 1
 372 -369 l 1
 372 -183 l 1
 372 3 l 1xf3
 279 3 l 1
 186 3 l 1
 186 96 l 1xf4
 186 190 l 1xf8
EndSplineSet
EndChar

StartChar: LATIN
Encoding: 282 282 218
Width: 1117
VWidth: 40
Flags: HW
HStem: 4 186<186 931> 562 186<186 745> 934 187<186 372 559 931> 1287 20G<372 559> 1307 186<186 372 559 745>
VStem: 0 186<190 562 748 934> 186 186<1307 1493> 372 187<1121 1307> 559 186<1307 1493>
LayerCount: 2
Fore
SplineSet
186 1400 m 1xea
 186 1493 l 1
 279 1493 l 1
 372 1493 l 1xea
 372 1400 l 1
 372 1307 l 1xf2
 279 1307 l 1
 186 1307 l 1
 186 1400 l 1xea
559 1307 m 1xf1
 559 1214 l 1
 559 1121 l 1xf1
 745 1121 l 1
 931 1121 l 1
 931 1028 l 1
 931 934 l 1
 559 934 l 1
 186 934 l 1
 186 841 l 1
 186 748 l 1
 466 748 l 1
 745 748 l 1
 745 655 l 1
 745 562 l 1
 466 562 l 1
 186 562 l 1
 186 376 l 1
 186 190 l 1
 559 190 l 1
 931 190 l 1
 931 97 l 1
 931 4 l 1
 465 4 l 1
 0 4 l 1
 0 562 l 1
 0 1121 l 1xf480
 186 1121 l 1xf2
 372 1121 l 1
 372 1214 l 1xf1
 372 1307 l 1xf2
 466 1307 l 1
 559 1307 l 1xf1
559 1307 m 1
 559 1400 l 1
 559 1493 l 1
 652 1493 l 1
 745 1493 l 1
 745 1400 l 1
 745 1307 l 1
 652 1307 l 1xe880
 559 1307 l 1
EndSplineSet
EndChar

StartChar: LATIN
Encoding: 283 283 219
Width: 1117
VWidth: 40
Flags: HW
HStem: 4 186<186 745> 376 186<186 745> 748 186<186 745> 1121 186<372 559> 1307 186<186 372 559 745>
VStem: 0 186<190 376 562 748> 186 186<1307 1493> 372 187<1121 1307> 559 186<1307 1493> 745 186<562 748>
LayerCount: 2
Fore
SplineSet
186 1400 m 1xea
 186 1493 l 1
 279 1493 l 1
 372 1493 l 1xea
 372 1400 l 1
 372 1307 l 1xf2
 279 1307 l 1
 186 1307 l 1
 186 1400 l 1xea
186 841 m 1
 186 934 l 1xe2
 466 934 l 1
 745 934 l 1
 745 841 l 1
 745 748 l 1
 466 748 l 1
 186 748 l 1
 186 655 l 1
 186 562 l 1
 466 562 l 1
 745 562 l 1
 745 655 l 1
 745 748 l 1
 838 748 l 1
 931 748 l 1
 931 562 l 1
 931 376 l 1xe440
 559 376 l 1
 186 376 l 1
 186 283 l 1
 186 190 l 1
 93 190 l 1
 0 190 l 1
 0 469 l 1
 0 748 l 1
 93 748 l 1
 186 748 l 1xe480
 186 841 l 1
559 1307 m 1xf1
 559 1214 l 1
 559 1121 l 1
 466 1121 l 1
 372 1121 l 1
 372 1214 l 1xf1
 372 1307 l 1xf2
 466 1307 l 1
 559 1307 l 1xf1
559 1307 m 1
 559 1400 l 1
 559 1493 l 1
 652 1493 l 1
 745 1493 l 1
 745 1400 l 1
 745 1307 l 1
 652 1307 l 1xe880
 559 1307 l 1
186 190 m 1xe4
 466 190 l 1
 745 190 l 1
 745 97 l 1
 745 4 l 1
 466 4 l 1
 186 4 l 1
 186 97 l 1xe240
 186 190 l 1xe4
EndSplineSet
EndChar

